<svg version="1.1" xmlns="http://www.w3.org/2000/svg" viewBox="0 0 902.9047234696894 562.94140625" width="1805.8094469393789" height="1125.8828125">
  <!-- svg-source:excalidraw -->
  
  <defs>
    <style class="style-fonts">
      @font-face {
        font-family: Virgil;
        src: url(https://unpkg.com/@excalidraw/excalidraw@undefined/dist/prod/Virgil-Regular-YHAB2VGJ.woff2);
          }
    </style>
    
  </defs>
  <rect x="0" y="0" width="902.9047234696894" height="562.94140625" fill="#ffffff"></rect><g stroke-linecap="round" transform="translate(10 11.091796875) rotate(0 87.20901993627393 41.830078125)"><path d="M20.92 0 C52.17 2.44, 83.37 4.1, 153.5 0 C166.04 -0.79, 170.84 3.38, 174.42 20.92 C175.18 37.07, 170.33 48.16, 174.42 62.75 C173.91 77.37, 167.35 86.91, 153.5 83.66 C107.36 78.9, 60.95 79.43, 20.92 83.66 C5.96 83.73, -0.91 78.57, 0 62.75 C-0.87 50.02, -3.47 38.79, 0 20.92 C0 8.7, 7.26 0.43, 20.92 0" stroke="none" stroke-width="0" fill="#a5d8ff"></path><path d="M20.92 0 C48 -2.37, 76.33 -1.5, 153.5 0 M20.92 0 C54.16 -1.23, 85.53 -0.82, 153.5 0 M153.5 0 C167.21 -1.87, 173.37 6.53, 174.42 20.92 M153.5 0 C167.01 -1.06, 173.07 7.8, 174.42 20.92 M174.42 20.92 C176.23 29.92, 176.26 39.63, 174.42 62.75 M174.42 20.92 C174.44 33.17, 174.53 43.24, 174.42 62.75 M174.42 62.75 C172.69 78.28, 167.49 82.74, 153.5 83.66 M174.42 62.75 C172.54 76.73, 167.23 84.43, 153.5 83.66 M153.5 83.66 C117.09 83.91, 80.29 84, 20.92 83.66 M153.5 83.66 C103.23 84.89, 53.56 84.61, 20.92 83.66 M20.92 83.66 C6.7 81.9, -0.87 77.17, 0 62.75 M20.92 83.66 C4.84 83.81, 0.87 76.34, 0 62.75 M0 62.75 C-0.13 51.17, 1.55 41.75, 0 20.92 M0 62.75 C0.16 49.93, 0.66 37.7, 0 20.92 M0 20.92 C1.17 8.03, 5.37 -0.24, 20.92 0 M0 20.92 C1.09 8.99, 4.73 2.24, 20.92 0" stroke="#1e1e1e" stroke-width="4" fill="none"></path></g><g transform="translate(75.71902970189899 40.421875) rotate(0 21.489990234375 12.5)"><text x="21.489990234375" y="17.619999999999997" font-family="Virgil, Segoe UI Emoji" font-size="20px" fill="#1e1e1e" text-anchor="middle" style="white-space: pre;" direction="ltr" dominant-baseline="alphabetic">BAM</text></g><g stroke-linecap="round" transform="translate(269.54925471968943 10) rotate(0 109.333984375 41.830078125)"><path d="M4.91 5.59 C4.91 5.59, 4.91 5.59, 4.91 5.59 M4.91 5.59 C4.91 5.59, 4.91 5.59, 4.91 5.59 M1.11 22.16 C6.94 13.81, 13.66 5.33, 20.13 0.28 M1.11 22.16 C8.48 15.51, 14.46 7.62, 20.13 0.28 M0.58 34.96 C9.49 24.06, 19.08 15.64, 30.76 0.24 M0.58 34.96 C9.33 25.13, 16.39 16.31, 30.76 0.24 M0.72 47 C14.11 31.26, 30.55 14.48, 41.39 0.21 M0.72 47 C13.09 32.34, 25.74 20.16, 41.39 0.21 M0.85 59.04 C9.94 48.58, 21.24 35.85, 52.02 0.17 M0.85 59.04 C19.43 39.07, 35.95 17.48, 52.02 0.17 M1.64 70.33 C24.63 44.06, 42.97 20.29, 62.65 0.14 M1.64 70.33 C18.62 49.89, 36.98 27.58, 62.65 0.14 M5.71 77.84 C27.26 55.42, 46.82 30.2, 73.28 0.1 M5.71 77.84 C28.81 52.45, 51.5 26.26, 73.28 0.1 M12.4 82.33 C35.07 56.81, 57.38 30.69, 83.91 0.07 M12.4 82.33 C37.15 52.76, 62.87 23.57, 83.91 0.07 M21.72 83.81 C37.76 64.37, 55.38 47.34, 94.54 0.04 M21.72 83.81 C49.14 53.43, 75.3 21.3, 94.54 0.04 M32.35 83.77 C58.24 52.53, 86.93 19.66, 104.52 0.76 M32.35 83.77 C52.27 60.56, 72.26 38.04, 104.52 0.76 M42.33 84.49 C67.16 51.85, 94.14 21.89, 115.15 0.72 M42.33 84.49 C64.65 56.98, 87.21 30.81, 115.15 0.72 M52.96 84.46 C78.5 57.54, 102.11 29.18, 125.78 0.69 M52.96 84.46 C77.55 54.81, 102.31 27.56, 125.78 0.69 M63.59 84.42 C81.73 65.24, 100.2 44.45, 136.41 0.65 M63.59 84.42 C90 54.29, 117.36 23.93, 136.41 0.65 M74.22 84.39 C101.53 51.44, 132.65 17.55, 147.04 0.62 M74.22 84.39 C90.28 65.7, 105.96 49.96, 147.04 0.62 M84.85 84.36 C108.82 56.24, 134.95 27.65, 157.67 0.58 M84.85 84.36 C102.24 65.9, 118.66 46.24, 157.67 0.58 M95.48 84.32 C110.95 67.07, 126.41 49.21, 168.3 0.55 M95.48 84.32 C124.39 51.75, 151.93 21.28, 168.3 0.55 M106.11 84.29 C134.46 51.38, 160.28 21.63, 178.93 0.51 M106.11 84.29 C130.34 56.18, 153.53 27.69, 178.93 0.51 M116.74 84.25 C131.23 68.36, 146.91 48.98, 189.56 0.48 M116.74 84.25 C141.95 54.25, 168.66 23.45, 189.56 0.48 M127.37 84.22 C149.24 56.22, 173.25 30.45, 200.19 0.45 M127.37 84.22 C144.06 65.03, 162.22 44.34, 200.19 0.45 M138 84.18 C162.55 56.82, 188.29 25.58, 208.85 2.67 M138 84.18 C159.93 58.41, 181.18 31.95, 208.85 2.67 M148.63 84.15 C172.14 55.7, 199.45 27.27, 214.89 7.92 M148.63 84.15 C163.58 67.68, 179.51 49.75, 214.89 7.92 M159.26 84.11 C176.03 64.73, 196.42 40.93, 218.3 16.19 M159.26 84.11 C183.4 58.5, 204.38 31.72, 218.3 16.19 M169.89 84.08 C185.71 66.1, 200.84 47.58, 218.44 28.23 M169.89 84.08 C183.13 69.12, 196.09 52.61, 218.44 28.23 M180.52 84.05 C188.69 70.87, 202.77 61.45, 218.57 40.27 M180.52 84.05 C193.57 69.19, 207.78 53.01, 218.57 40.27 M191.15 84.01 C196.8 75.68, 204.83 70.22, 218.7 52.31 M191.15 84.01 C199.73 73.38, 208.23 64.12, 218.7 52.31 M203.09 82.47 C209.17 76.55, 216.67 67.67, 218.83 64.35 M203.09 82.47 C206.51 77.5, 209.58 73.12, 218.83 64.35 M4.93 78.17 C4.93 78.17, 4.93 78.17, 4.93 78.17 M4.93 78.17 C4.93 78.17, 4.93 78.17, 4.93 78.17 M22.25 82.63 C15.78 78.25, 12.46 73.02, 2.63 65.57 M22.25 82.63 C17.06 77.54, 11.42 71.81, 2.63 65.57 M34.29 82.49 C24.32 73.38, 13.85 65.26, 2.59 54.94 M34.29 82.49 C23.11 73.76, 11.54 62.56, 2.59 54.94 M46.33 82.36 C36.59 72.79, 28.31 65.17, 2.56 44.31 M46.33 82.36 C30.35 67.76, 11.69 53.44, 2.56 44.31 M58.37 82.23 C38.45 63.16, 16.54 46.34, 2.52 33.68 M58.37 82.23 C44.73 70.63, 31.41 57.26, 2.52 33.68 M70.41 82.09 C47.33 63.62, 23.36 43.21, 2.49 23.05 M70.41 82.09 C54.97 66.57, 37.54 53.61, 2.49 23.05 M83.21 82.62 C60.45 61, 36.07 40.04, 3.21 13.08 M83.21 82.62 C66.95 69.53, 51.02 55.36, 3.21 13.08 M95.25 82.48 C75.51 65.79, 54.1 47.49, 5.44 4.41 M95.25 82.48 C75.35 65.59, 55.59 47.67, 5.44 4.41 M107.29 82.35 C86.05 62.67, 67.52 47.03, 12.95 0.34 M107.29 82.35 C78.56 55.93, 50.37 31.55, 12.95 0.34 M119.33 82.22 C98.59 66.22, 80.59 45.62, 22.73 -1.76 M119.33 82.22 C85.01 51.39, 48.74 20.61, 22.73 -1.76 M131.37 82.08 C107.78 62.25, 83.44 40.63, 34.77 -1.89 M131.37 82.08 C107.54 62.05, 83.87 41.68, 34.77 -1.89 M144.17 82.61 C110.86 51.83, 74.16 22.55, 46.81 -2.02 M144.17 82.61 C115.22 58.21, 88.96 34.29, 46.81 -2.02 M156.21 82.47 C127.28 55.38, 94.19 30.56, 58.85 -2.16 M156.21 82.47 C120.69 52, 85.32 22.01, 58.85 -2.16 M168.25 82.34 C147.36 63.13, 123.8 43.05, 71.65 -1.63 M168.25 82.34 C139.96 57.93, 111.52 31.8, 71.65 -1.63 M180.29 82.21 C144.48 51.26, 104.3 19.68, 83.69 -1.77 M180.29 82.21 C157.23 63.62, 136.27 45.87, 83.69 -1.77 M193.09 82.73 C158.08 50.29, 121.98 21.84, 95.73 -1.9 M193.09 82.73 C169.3 62.08, 144.43 40.52, 95.73 -1.9 M201.35 79.32 C175.76 58.83, 153.79 35.47, 107.77 -2.03 M201.35 79.32 C181.73 61.84, 162.26 46.79, 107.77 -2.03 M212.64 78.53 C183.39 50.27, 149.89 23.16, 119.81 -2.17 M212.64 78.53 C183.44 52.26, 153.91 27.8, 119.81 -2.17 M217.13 71.83 C189.47 46.04, 162.45 23.76, 132.61 -1.64 M217.13 71.83 C187.71 48.51, 159.35 23.81, 132.61 -1.64 M218.61 62.52 C196.06 39.55, 169.02 21.26, 144.65 -1.78 M218.61 62.52 C202.55 49.91, 187.36 36.26, 144.65 -1.78 M218.57 51.89 C203.39 38.96, 189.57 25.17, 156.69 -1.91 M218.57 51.89 C203.11 37.7, 187.02 24.96, 156.69 -1.91 M218.54 41.26 C197.63 25.9, 180.36 7.76, 168.73 -2.04 M218.54 41.26 C199.81 25.92, 181.88 9.01, 168.73 -2.04 M218.5 30.63 C209.22 22.81, 199.59 14.41, 180.77 -2.18 M218.5 30.63 C209.32 23.88, 200.94 15.31, 180.77 -2.18 M218.47 20 C210.17 13.69, 202.98 6.43, 193.56 -1.65 M218.47 20 C209.47 12.93, 200.67 5.63, 193.56 -1.65" stroke="#ffec99" stroke-width="1" fill="none"></path><path d="M20.92 0 C61.76 1.98, 104.49 1.96, 197.75 0 M20.92 0 C74.85 0.46, 130.88 0.24, 197.75 0 M197.75 0 C211.01 -1.84, 218.24 6.31, 218.67 20.92 M197.75 0 C212.37 0.03, 220.66 6.14, 218.67 20.92 M218.67 20.92 C219.23 31.58, 218.21 40.1, 218.67 62.75 M218.67 20.92 C219.24 35.25, 219.46 50.93, 218.67 62.75 M218.67 62.75 C217.25 75.4, 210.64 84.12, 197.75 83.66 M218.67 62.75 C217.58 74.53, 210.08 85.67, 197.75 83.66 M197.75 83.66 C144.25 82.53, 90.8 83.1, 20.92 83.66 M197.75 83.66 C159.19 84.1, 122.5 83.58, 20.92 83.66 M20.92 83.66 C8.19 84.31, -0.92 75.81, 0 62.75 M20.92 83.66 C8.83 81.83, -1.21 76.05, 0 62.75 M0 62.75 C1.42 54.53, -0.32 45, 0 20.92 M0 62.75 C-0.83 50.56, 0.46 37.91, 0 20.92 M0 20.92 C-0.4 7.67, 5.48 -1.29, 20.92 0 M0 20.92 C0.37 8.77, 6.66 1.11, 20.92 0" stroke="#1e1e1e" stroke-width="2" fill="none"></path></g><g transform="translate(330.0132821244746 26.830078125) rotate(0 48.869956970214844 25)"><text x="48.869956970214844" y="17.619999999999997" font-family="Virgil, Segoe UI Emoji" font-size="20px" fill="#1e1e1e" text-anchor="middle" style="white-space: pre;" direction="ltr" dominant-baseline="alphabetic">Samtools </text><text x="48.869956970214844" y="42.62" font-family="Virgil, Segoe UI Emoji" font-size="20px" fill="#1e1e1e" text-anchor="middle" style="white-space: pre;" direction="ltr" dominant-baseline="alphabetic">index</text></g><g stroke-linecap="round" transform="translate(293.69732569464554 165.921875) rotate(0 87.20901993627393 41.830078125)"><path d="M20.92 0 C53.87 -1.29, 87.07 -1.25, 153.5 0 C170.57 -0.1, 176.03 7.28, 174.42 20.92 C175.59 35.38, 174.51 45.05, 174.42 62.75 C172.85 77.99, 169.11 82.53, 153.5 83.66 C101.5 85.16, 49.57 87.82, 20.92 83.66 C10.19 84.75, 1.76 78.17, 0 62.75 C0.15 46.65, -1.52 39.09, 0 20.92 C2.33 6.44, 3.67 -1.91, 20.92 0" stroke="none" stroke-width="0" fill="#a5d8ff"></path><path d="M20.92 0 C50.72 0.76, 82.73 1.08, 153.5 0 M20.92 0 C69.33 -0.53, 118.43 0.3, 153.5 0 M153.5 0 C167.96 1.56, 174.97 6.67, 174.42 20.92 M153.5 0 C167.11 -1.36, 175.45 6.39, 174.42 20.92 M174.42 20.92 C172.26 31.78, 174.09 39.8, 174.42 62.75 M174.42 20.92 C174.97 34.67, 174.11 50.03, 174.42 62.75 M174.42 62.75 C173.95 77.75, 165.95 83.29, 153.5 83.66 M174.42 62.75 C175.11 76.99, 168.22 84.71, 153.5 83.66 M153.5 83.66 C117.37 85.39, 84.53 85.74, 20.92 83.66 M153.5 83.66 C103.9 83.43, 53.42 82.49, 20.92 83.66 M20.92 83.66 C5.85 85.13, 0.69 75.37, 0 62.75 M20.92 83.66 C6.33 85.57, 0.05 78.55, 0 62.75 M0 62.75 C-0.5 52.46, -0.72 41.51, 0 20.92 M0 62.75 C1.09 48.7, 0.42 33.7, 0 20.92 M0 20.92 C-0.41 6.01, 7.89 -0.86, 20.92 0 M0 20.92 C-2.09 9.23, 7.52 -0.15, 20.92 0" stroke="#1e1e1e" stroke-width="2" fill="none"></path></g><g transform="translate(329.90637507561405 195.251953125) rotate(0 50.99997055530548 12.5)"><text x="50.99997055530548" y="17.619999999999997" font-family="Virgil, Segoe UI Emoji" font-size="20px" fill="#1e1e1e" text-anchor="middle" style="white-space: pre;" direction="ltr" dominant-baseline="alphabetic">BAM index</text></g><g stroke-linecap="round" transform="translate(506.0624047713194 165.8125) rotate(0 87.20901993627399 41.830078125)"><path d="M20.92 0 C53.87 -4.1, 88.73 -0.01, 153.5 0 C165.12 -3.58, 174.02 4.98, 174.42 20.92 C172.46 31.72, 175.29 49.65, 174.42 62.75 C174.9 73.7, 165.85 82.36, 153.5 83.66 C126.52 84.35, 93.77 81.79, 20.92 83.66 C8.43 81.03, -2.87 78.51, 0 62.75 C0.3 49.29, -1.28 29.75, 0 20.92 C3.45 5.73, 10.55 0.5, 20.92 0" stroke="none" stroke-width="0" fill="#a5d8ff"></path><path d="M20.92 0 C57.78 0.13, 99.78 0.7, 153.5 0 M20.92 0 C66.25 0.36, 113.73 2, 153.5 0 M153.5 0 C168.57 -1.73, 174.09 6.2, 174.42 20.92 M153.5 0 C166.69 -0.96, 176.55 6.13, 174.42 20.92 M174.42 20.92 C172.63 32.24, 172.78 43.79, 174.42 62.75 M174.42 20.92 C174.18 31.35, 174.1 40.61, 174.42 62.75 M174.42 62.75 C175.43 78.07, 168.97 85.23, 153.5 83.66 M174.42 62.75 C174.93 78.63, 166.45 84.28, 153.5 83.66 M153.5 83.66 C116.31 84.17, 74.05 84.59, 20.92 83.66 M153.5 83.66 C110.88 84.55, 69.39 83.64, 20.92 83.66 M20.92 83.66 C5.55 81.81, 1.05 76.76, 0 62.75 M20.92 83.66 C4.97 83.94, 1.58 75.51, 0 62.75 M0 62.75 C-0.6 50.2, 0.81 34.76, 0 20.92 M0 62.75 C-0.05 47.24, -0.91 30.91, 0 20.92 M0 20.92 C0.57 6.23, 6.48 1.7, 20.92 0 M0 20.92 C-0.05 7.79, 8.1 -2.29, 20.92 0" stroke="#1e1e1e" stroke-width="4" fill="none"></path></g><g transform="translate(547.6514553843159 195.142578125) rotate(0 45.61996932327747 12.5)"><text x="45.61996932327747" y="17.619999999999997" font-family="Virgil, Segoe UI Emoji" font-size="20px" fill="#1e1e1e" text-anchor="middle" style="white-space: pre;" direction="ltr" dominant-baseline="alphabetic">Intervals</text></g><g stroke-linecap="round" transform="translate(718.4866835971415 166.6953125) rotate(0 87.20901993627399 41.830078125)"><path d="M20.92 0 C72.18 -4.21, 119.69 -0.07, 153.5 0 C170.32 2.79, 175.29 10.2, 174.42 20.92 C174.38 37.48, 173.22 48.85, 174.42 62.75 C177.98 73.82, 169.88 84.14, 153.5 83.66 C116.91 82.41, 82.49 82.73, 20.92 83.66 C7.18 83.98, 0.15 74.37, 0 62.75 C-2.67 52.18, -2.98 43.81, 0 20.92 C-2.31 6.43, 8.25 -0.96, 20.92 0" stroke="none" stroke-width="0" fill="#a5d8ff"></path><path d="M20.92 0 C72.56 -1.41, 123.27 0.25, 153.5 0 M20.92 0 C70.1 0.94, 120.16 0.75, 153.5 0 M153.5 0 C165.88 1.31, 174.4 7.8, 174.42 20.92 M153.5 0 C168.31 -1.39, 173.35 5.3, 174.42 20.92 M174.42 20.92 C173.37 31.08, 175.62 36.87, 174.42 62.75 M174.42 20.92 C174.66 30.39, 175.11 40.87, 174.42 62.75 M174.42 62.75 C175.15 75.3, 167.89 82.38, 153.5 83.66 M174.42 62.75 C176 76.6, 169.73 84.94, 153.5 83.66 M153.5 83.66 C106.16 84.42, 57.4 86.15, 20.92 83.66 M153.5 83.66 C116.59 84.14, 81.78 84.04, 20.92 83.66 M20.92 83.66 C6.04 85.29, 0.47 75.3, 0 62.75 M20.92 83.66 C9.21 84.85, 2.28 78.34, 0 62.75 M0 62.75 C0.23 53.63, -1.41 40.04, 0 20.92 M0 62.75 C0.48 47.62, -0.12 32.09, 0 20.92 M0 20.92 C-0.22 7.69, 8.15 -1.74, 20.92 0 M0 20.92 C1.17 5.38, 8.89 -2.12, 20.92 0" stroke="#1e1e1e" stroke-width="4" fill="none"></path></g><g transform="translate(734.4957431824251 183.525390625) rotate(0 71.1999603509903 25)"><text x="71.1999603509903" y="17.619999999999997" font-family="Virgil, Segoe UI Emoji" font-size="20px" fill="#1e1e1e" text-anchor="middle" style="white-space: pre;" direction="ltr" dominant-baseline="alphabetic">Reference</text><text x="71.1999603509903" y="42.62" font-family="Virgil, Segoe UI Emoji" font-size="20px" fill="#1e1e1e" text-anchor="middle" style="white-space: pre;" direction="ltr" dominant-baseline="alphabetic">+ index &amp; dict</text></g><g stroke-linecap="round" transform="translate(271.13519221968943 320.8828125) rotate(0 109.333984375 41.830078125)"><path d="M4.91 5.59 C4.91 5.59, 4.91 5.59, 4.91 5.59 M4.91 5.59 C4.91 5.59, 4.91 5.59, 4.91 5.59 M3.73 19.14 C6.63 13.72, 11.47 8.83, 16.2 4.8 M3.73 19.14 C7.28 14.69, 9.86 12.15, 16.2 4.8 M3.87 31.19 C11.11 24.59, 15.37 18.48, 26.83 4.77 M3.87 31.19 C12.09 20.72, 21.31 11.87, 26.83 4.77 M4 43.23 C14.86 31.7, 25.6 18.94, 37.46 4.74 M4 43.23 C13.97 33.64, 21.21 22.23, 37.46 4.74 M4.13 55.27 C17.63 42.9, 29.22 30.49, 48.09 4.7 M4.13 55.27 C21.54 34.82, 38.47 14.52, 48.09 4.7 M2.3 69.57 C14.11 53.59, 27.44 41.88, 58.72 4.67 M2.3 69.57 C13.93 55.52, 26.41 40.41, 58.72 4.67 M6.37 77.08 C28.86 49.07, 56.85 19.3, 69.35 4.63 M6.37 77.08 C21.5 59.16, 37.72 41.82, 69.35 4.63 M12.4 82.33 C25.26 64.88, 38.98 49.85, 79.32 5.35 M12.4 82.33 C38.32 51.08, 66.46 21.53, 79.32 5.35 M21.72 83.81 C45.1 55.64, 71.17 28.52, 89.95 5.32 M21.72 83.81 C37.25 66.39, 53.26 47.46, 89.95 5.32 M32.35 83.77 C58.73 52.95, 84.47 23.23, 100.58 5.28 M32.35 83.77 C51.63 62.18, 70.01 39.89, 100.58 5.28 M42.33 84.49 C60.86 61.16, 84.35 37.98, 111.21 5.25 M42.33 84.49 C66.27 57.53, 89.83 29.83, 111.21 5.25 M52.96 84.46 C78.41 52.99, 105.24 23.72, 121.84 5.21 M52.96 84.46 C77.23 55.83, 101.69 25.61, 121.84 5.21 M63.59 84.42 C90.32 55.15, 117.46 24.83, 132.47 5.18 M63.59 84.42 C87.74 57.47, 110.82 31.88, 132.47 5.18 M74.22 84.39 C100.99 55.92, 123.14 27.99, 143.1 5.15 M74.22 84.39 C100.27 52.36, 128.57 23.62, 143.1 5.15 M84.85 84.36 C101.12 67.8, 114.24 47.77, 153.73 5.11 M84.85 84.36 C102.76 61.84, 121.83 39.86, 153.73 5.11 M95.48 84.32 C109.51 68.52, 122.27 51.4, 164.36 5.08 M95.48 84.32 C116.13 61.35, 136.21 37.6, 164.36 5.08 M106.11 84.29 C120.64 65.65, 136.99 50.49, 174.99 5.04 M106.11 84.29 C130 56.52, 155.26 29.71, 174.99 5.04 M116.74 84.25 C137.64 59.01, 163.43 31.2, 185.62 5.01 M116.74 84.25 C134.81 64.99, 152.87 43.45, 185.62 5.01 M127.37 84.22 C146.43 61.84, 165.65 41.65, 199.53 1.2 M127.37 84.22 C144.72 63.19, 165.01 41.15, 199.53 1.2 M138 84.18 C158.98 58.39, 177.91 37.86, 208.85 2.67 M138 84.18 C158.6 62.4, 178.38 40.49, 208.85 2.67 M148.63 84.15 C161.87 67.52, 178.07 52.05, 215.54 7.17 M148.63 84.15 C163.35 65.87, 179.27 48.26, 215.54 7.17 M159.26 84.11 C179.06 58.37, 199.42 37.38, 218.3 16.19 M159.26 84.11 C180.11 60.07, 201.77 37.13, 218.3 16.19 M169.89 84.08 C185.72 61.75, 206.2 41.44, 218.44 28.23 M169.89 84.08 C179.89 70.85, 191.96 59.75, 218.44 28.23 M180.52 84.05 C190.19 72.91, 205.57 56.56, 218.57 40.27 M180.52 84.05 C193.05 68.89, 204.86 55.36, 218.57 40.27 M191.15 84.01 C199.92 74.49, 206.01 65.76, 218.7 52.31 M191.15 84.01 C199.99 73.7, 207.59 65.52, 218.7 52.31 M200.47 85.49 C204.87 79.5, 211.11 73.42, 219.49 63.6 M200.47 85.49 C205.38 80.36, 210.39 74.05, 219.49 63.6 M4.93 78.17 C4.93 78.17, 4.93 78.17, 4.93 78.17 M4.93 78.17 C4.93 78.17, 4.93 78.17, 4.93 78.17 M22.25 82.63 C17.18 76.03, 12.04 71.68, 2.63 65.57 M22.25 82.63 C17.84 77.5, 11.61 73.52, 2.63 65.57 M34.29 82.49 C24.03 71, 11.9 60.64, 2.59 54.94 M34.29 82.49 C25.55 75.76, 18.06 68.57, 2.59 54.94 M46.33 82.36 C27.42 65.89, 13.57 53.59, 2.56 44.31 M46.33 82.36 C32.48 69.33, 16.63 55.77, 2.56 44.31 M58.37 82.23 C38.75 65.94, 16.44 45.13, 2.52 33.68 M58.37 82.23 C46.37 72.42, 34.99 61.08, 2.52 33.68 M70.41 82.09 C53.46 64.95, 33.04 51.49, 2.49 23.05 M70.41 82.09 C49.74 64.44, 28.19 46.96, 2.49 23.05 M83.21 82.62 C61.73 61.15, 34.75 40.12, 3.21 13.08 M83.21 82.62 C61.03 63.78, 40.84 44.57, 3.21 13.08 M95.25 82.48 C72.69 63.59, 50.48 44, 5.44 4.41 M95.25 82.48 C66.18 57.96, 37.54 35.19, 5.44 4.41 M107.29 82.35 C76.61 55.52, 47.47 32.1, 12.95 0.34 M107.29 82.35 C85.08 62.77, 64.39 43.61, 12.95 0.34 M119.33 82.22 C96.13 63.17, 72.25 42.37, 22.73 -1.76 M119.33 82.22 C97.79 63.96, 76.38 45.98, 22.73 -1.76 M131.37 82.08 C92.12 48.35, 54.48 17.05, 34.77 -1.89 M131.37 82.08 C104.65 58.37, 76.68 34.9, 34.77 -1.89 M144.17 82.61 C118.78 61.97, 95.67 39.27, 46.81 -2.02 M144.17 82.61 C123.41 63.66, 101.82 45.26, 46.81 -2.02 M156.21 82.47 C124.31 54.94, 93.46 27.27, 58.85 -2.16 M156.21 82.47 C131.81 62.26, 108.86 40.18, 58.85 -2.16 M168.25 82.34 C149.03 66.08, 126.56 49.07, 71.65 -1.63 M168.25 82.34 C146.37 64.98, 125.64 46.31, 71.65 -1.63 M180.29 82.21 C150.47 53.53, 115.63 27.26, 83.69 -1.77 M180.29 82.21 C143.81 48.63, 104.06 15.48, 83.69 -1.77 M193.09 82.73 C155.44 52.27, 122.08 20, 95.73 -1.9 M193.09 82.73 C166.79 58.24, 138 35.91, 95.73 -1.9 M201.35 79.32 C175.74 59.18, 154.6 40.08, 107.77 -2.03 M201.35 79.32 C182.43 61.41, 163.55 46.45, 107.77 -2.03 M212.64 78.53 C180.28 54.92, 151.71 27.58, 119.81 -2.17 M212.64 78.53 C177.98 48.98, 143.07 19.56, 119.81 -2.17 M217.13 71.83 C188.78 47.09, 158.88 21.38, 132.61 -1.64 M217.13 71.83 C182.61 43.41, 149.18 14.12, 132.61 -1.64 M218.61 62.52 C194.17 41.33, 166.6 18.51, 144.65 -1.78 M218.61 62.52 C188.65 36.39, 160.26 11.12, 144.65 -1.78 M218.57 51.89 C200.27 34.95, 178.92 18.14, 156.69 -1.91 M218.57 51.89 C199.72 34.61, 179.84 18.65, 156.69 -1.91 M218.54 41.26 C204.43 28.7, 192.34 18.49, 168.73 -2.04 M218.54 41.26 C198.49 24.77, 180.12 8.43, 168.73 -2.04 M218.5 30.63 C208.97 25.28, 199.68 14.83, 180.77 -2.18 M218.5 30.63 C206.5 20.21, 195.22 9.6, 180.77 -2.18 M218.47 20 C214.59 16.89, 205.76 9.92, 193.56 -1.65 M218.47 20 C211.09 13.03, 204.3 6.6, 193.56 -1.65" stroke="#ffec99" stroke-width="1" fill="none"></path><path d="M20.92 0 C73.62 0, 127.82 -0.58, 197.75 0 M20.92 0 C60.11 0.7, 96.59 1.87, 197.75 0 M197.75 0 C213.1 -0.47, 218.81 7.46, 218.67 20.92 M197.75 0 C210.44 -1.65, 220.84 6.82, 218.67 20.92 M218.67 20.92 C219.06 33.82, 218.05 43.85, 218.67 62.75 M218.67 20.92 C217.92 31.49, 219.09 43.46, 218.67 62.75 M218.67 62.75 C217.87 74.83, 213.23 82.64, 197.75 83.66 M218.67 62.75 C218.09 75.93, 209.76 83.23, 197.75 83.66 M197.75 83.66 C141.23 81.99, 87.62 84.1, 20.92 83.66 M197.75 83.66 C126.73 81.07, 58.51 81.68, 20.92 83.66 M20.92 83.66 C6.63 85.61, -1.14 76.49, 0 62.75 M20.92 83.66 C6.36 83.51, 2.18 77.46, 0 62.75 M0 62.75 C-1.74 44.15, 0.12 28.31, 0 20.92 M0 62.75 C0.02 52.7, -0.78 42.65, 0 20.92 M0 20.92 C-0.55 7.97, 8.65 0.95, 20.92 0 M0 20.92 C0.75 7.74, 4.77 0.79, 20.92 0" stroke="#1e1e1e" stroke-width="2" fill="none"></path></g><g transform="translate(305.689241920188 337.712890625) rotate(0 74.77993467450142 25)"><text x="74.77993467450142" y="17.619999999999997" font-family="Virgil, Segoe UI Emoji" font-size="20px" fill="#1e1e1e" text-anchor="middle" style="white-space: pre;" direction="ltr" dominant-baseline="alphabetic">GATK </text><text x="74.77993467450142" y="42.62" font-family="Virgil, Segoe UI Emoji" font-size="20px" fill="#1e1e1e" text-anchor="middle" style="white-space: pre;" direction="ltr" dominant-baseline="alphabetic">HaplotypeCaller</text></g><g stroke-linecap="round" transform="translate(293.750293891252 469.28125) rotate(0 87.20901993627399 41.830078125)"><path d="M20.92 0 C68.74 0.97, 113.08 2.59, 153.5 0 C166.35 -1.31, 174.25 6.32, 174.42 20.92 C172.52 34.83, 171.41 57.67, 174.42 62.75 C171.7 74.25, 167.3 82.67, 153.5 83.66 C126.4 84.38, 97.04 82.15, 20.92 83.66 C6.59 83.14, 0.94 78.84, 0 62.75 C-1.18 45.69, -2.83 34.39, 0 20.92 C2 3.42, 3.62 0.99, 20.92 0" stroke="none" stroke-width="0" fill="#a5d8ff"></path><path d="M20.92 0 C66.29 -0.96, 114.98 -1.31, 153.5 0 M20.92 0 C52.15 -0.3, 82.47 -0.88, 153.5 0 M153.5 0 C166.82 0.22, 176 8.68, 174.42 20.92 M153.5 0 C169.12 -0.36, 175.64 8.74, 174.42 20.92 M174.42 20.92 C172.87 37.16, 172.23 49.78, 174.42 62.75 M174.42 20.92 C175.08 32.33, 174.77 41.95, 174.42 62.75 M174.42 62.75 C176.27 74.88, 167.49 81.99, 153.5 83.66 M174.42 62.75 C172.65 77.61, 169.15 85.95, 153.5 83.66 M153.5 83.66 C126.01 85.16, 95.39 84.74, 20.92 83.66 M153.5 83.66 C111.67 83.47, 69.78 82.69, 20.92 83.66 M20.92 83.66 C7.37 85.15, 1.17 74.94, 0 62.75 M20.92 83.66 C7.73 85.59, -0.39 77.89, 0 62.75 M0 62.75 C1.36 53.92, -1.65 44.26, 0 20.92 M0 62.75 C-0.14 48.01, 0.16 32.6, 0 20.92 M0 20.92 C-1.53 7.76, 7.52 0.79, 20.92 0 M0 20.92 C-0.98 8.04, 8.83 -0.88, 20.92 0" stroke="#1e1e1e" stroke-width="2" fill="none"></path></g><g transform="translate(322.8893426609749 498.611328125) rotate(0 58.06997116655111 12.5)"><text x="58.06997116655111" y="17.619999999999997" font-family="Virgil, Segoe UI Emoji" font-size="20px" fill="#1e1e1e" text-anchor="middle" style="white-space: pre;" direction="ltr" dominant-baseline="alphabetic">VCF + index</text></g><g stroke-linecap="round"><g transform="translate(96.94140625 107.619140625) rotate(0 76.6328929632758 129.97283362320871)"><path d="M-1.11 -0.86 C0.32 35.35, -17.94 174.22, 8.77 217.61 C35.48 261, 133.83 252.3, 159.15 259.45 M0.51 1.3 C1.77 37.69, -18.36 175.91, 7.92 219.17 C34.2 262.42, 133.2 254.24, 158.2 260.81" stroke="#1e1e1e" stroke-width="2" fill="none"></path></g><g transform="translate(96.94140625 107.619140625) rotate(0 76.6328929632758 129.97283362320871)"><path d="M134 267.07 C140.24 265.61, 149.44 262.73, 158.2 260.81 M134 267.07 C141.11 264.64, 148.62 263.29, 158.2 260.81" stroke="#1e1e1e" stroke-width="2" fill="none"></path></g><g transform="translate(96.94140625 107.619140625) rotate(0 76.6328929632758 129.97283362320871)"><path d="M135.64 250.04 C141.4 253.99, 150.08 256.53, 158.2 260.81 M135.64 250.04 C142.42 252.86, 149.42 256.72, 158.2 260.81" stroke="#1e1e1e" stroke-width="2" fill="none"></path></g></g><mask></mask><g stroke-linecap="round"><g transform="translate(380.2293586378545 105.09804847491444) rotate(0 0.1301044309677195 24.439764024615755)"><path d="M0.11 0.11 C0.21 8.11, 0.77 40.46, 0.76 48.48 M-0.5 -0.31 C-0.46 8.02, 0.21 41.03, 0.49 49.19" stroke="#1e1e1e" stroke-width="2" fill="none"></path></g><g transform="translate(380.2293586378545 105.09804847491444) rotate(0 0.1301044309677195 24.439764024615755)"><path d="M-8.38 26.65 C-5.19 34.57, -2.43 40.67, 0.49 49.19 M-8.38 26.65 C-5.76 32.15, -4.23 38.16, 0.49 49.19" stroke="#1e1e1e" stroke-width="2" fill="none"></path></g><g transform="translate(380.2293586378545 105.09804847491444) rotate(0 0.1301044309677195 24.439764024615755)"><path d="M8.18 26.22 C5.97 34.3, 3.32 40.54, 0.49 49.19 M8.18 26.22 C6.55 31.88, 3.83 38.01, 0.49 49.19" stroke="#1e1e1e" stroke-width="2" fill="none"></path></g></g><mask></mask><g stroke-linecap="round"><g transform="translate(380.7613654270848 261.1536390604771) rotate(0 0.22226737518252548 24.26726710375675)"><path d="M-0.53 -0.42 C-0.38 7.69, 0.8 40.76, 0.98 48.95 M0.19 0.55 C0.32 8.5, 0.82 40.37, 0.82 48.25" stroke="#1e1e1e" stroke-width="2" fill="none"></path></g><g transform="translate(380.7613654270848 261.1536390604771) rotate(0 0.22226737518252548 24.26726710375675)"><path d="M-7.67 25.57 C-5.74 33.61, -1.41 39.8, 0.82 48.25 M-7.67 25.57 C-5.05 33.11, -1.41 41.5, 0.82 48.25" stroke="#1e1e1e" stroke-width="2" fill="none"></path></g><g transform="translate(380.7613654270848 261.1536390604771) rotate(0 0.22226737518252548 24.26726710375675)"><path d="M8.89 25.41 C5.69 33.42, 4.88 39.67, 0.82 48.25 M8.89 25.41 C5.63 33.07, 3.38 41.52, 0.82 48.25" stroke="#1e1e1e" stroke-width="2" fill="none"></path></g></g><mask></mask><g stroke-linecap="round"><g transform="translate(380.8983448637614 411.92357307814893) rotate(0 0.3785265712478463 24.535335349170907)"><path d="M-0.13 0.24 C0.05 8.23, 0.78 40.43, 0.89 48.47 M0.8 -0.11 C0.96 8.21, 0.78 40.99, 0.69 49.19" stroke="#1e1e1e" stroke-width="2" fill="none"></path></g><g transform="translate(380.8983448637614 411.92357307814893) rotate(0 0.3785265712478463 24.535335349170907)"><path d="M-7.42 26.36 C-4.73 33.24, -2.96 38.64, 0.69 49.19 M-7.42 26.36 C-5.36 33.54, -2.44 40.5, 0.69 49.19" stroke="#1e1e1e" stroke-width="2" fill="none"></path></g><g transform="translate(380.8983448637614 411.92357307814893) rotate(0 0.3785265712478463 24.535335349170907)"><path d="M9.15 26.49 C7.44 33.31, 4.81 38.67, 0.69 49.19 M9.15 26.49 C6.19 33.56, 4.1 40.48, 0.69 49.19" stroke="#1e1e1e" stroke-width="2" fill="none"></path></g></g><mask></mask><g stroke-linecap="round"><g transform="translate(595.6613677465953 258.79565813882994) rotate(0 -47.35407096480634 46.09440729512727)"><path d="M-0.48 -0.87 C-3.12 10.62, 1.2 54.63, -14.7 70.07 C-30.61 85.5, -82.38 88.18, -95.9 91.74 M1.47 1.29 C-1.45 12.93, 0.46 52.93, -15.82 68.22 C-32.09 83.52, -82.97 89.03, -96.17 93.06" stroke="#1e1e1e" stroke-width="2" fill="none"></path></g><g transform="translate(595.6613677465953 258.79565813882994) rotate(0 -47.35407096480634 46.09440729512727)"><path d="M-74.96 79.83 C-84.62 84.43, -90.64 91.72, -96.17 93.06 M-74.96 79.83 C-80.83 82.94, -88.03 86.74, -96.17 93.06" stroke="#1e1e1e" stroke-width="2" fill="none"></path></g><g transform="translate(595.6613677465953 258.79565813882994) rotate(0 -47.35407096480634 46.09440729512727)"><path d="M-71.42 96.56 C-82.64 94.56, -90.05 95.27, -96.17 93.06 M-71.42 96.56 C-78.5 94.66, -86.76 93.45, -96.17 93.06" stroke="#1e1e1e" stroke-width="2" fill="none"></path></g></g><mask></mask><g stroke-linecap="round"><g transform="translate(801.1498254589234 263.1575657921736) rotate(0 -148.39641986341223 55.6850621379798)"><path d="M0.06 -0.75 C-7.34 15.13, 4.02 77.56, -45.38 96.21 C-94.79 114.86, -254.59 108.73, -296.37 111.15 M-1.36 1.47 C-8.28 17.41, 6.24 78.92, -43.01 97.36 C-92.26 115.8, -254.8 109.8, -296.86 112.12" stroke="#1e1e1e" stroke-width="2" fill="none"></path></g><g transform="translate(801.1498254589234 263.1575657921736) rotate(0 -148.39641986341223 55.6850621379798)"><path d="M-273.46 103.3 C-279.75 104.16, -284.85 108.04, -296.86 112.12 M-273.46 103.3 C-278.95 105.44, -284.59 108, -296.86 112.12" stroke="#1e1e1e" stroke-width="2" fill="none"></path></g><g transform="translate(801.1498254589234 263.1575657921736) rotate(0 -148.39641986341223 55.6850621379798)"><path d="M-273.27 120.4 C-279.73 117.53, -284.87 117.68, -296.86 112.12 M-273.27 120.4 C-278.93 118.36, -284.61 116.73, -296.86 112.12" stroke="#1e1e1e" stroke-width="2" fill="none"></path></g></g><mask></mask><g stroke-linecap="round"><g transform="translate(196.73927690760354 54.50014116616944) rotate(0 29.336689349718768 0.02151378544505178)"><path d="M0.67 1.02 C10.56 1.31, 49.51 0.86, 59.12 0.69 M-0.44 0.51 C9.28 0.55, 47.8 -1.21, 57.97 -1.07" stroke="#1e1e1e" stroke-width="2" fill="none"></path></g><g transform="translate(196.73927690760354 54.50014116616944) rotate(0 29.336689349718768 0.02151378544505178)"><path d="M34.65 7.92 C42.96 4.66, 48.94 0.78, 57.97 -1.07 M34.65 7.92 C41.47 5.72, 48.8 3.07, 57.97 -1.07" stroke="#1e1e1e" stroke-width="2" fill="none"></path></g><g transform="translate(196.73927690760354 54.50014116616944) rotate(0 29.336689349718768 0.02151378544505178)"><path d="M34.32 -9.17 C42.58 -7.65, 48.65 -6.74, 57.97 -1.07 M34.32 -9.17 C41.4 -6.21, 48.82 -3.71, 57.97 -1.07" stroke="#1e1e1e" stroke-width="2" fill="none"></path></g></g><mask></mask></svg>