<svg class="main-svg" xmlns="http://www.w3.org/2000/svg" xmlns:xlink="http://www.w3.org/1999/xlink" width="2200" height="1000" style="" viewBox="0 0 1100 500"><rect x="0" y="0" width="1100" height="500" style="fill: rgb(255, 255, 255); fill-opacity: 1;"/><defs id="defs-fcc684"><g class="clips"><clipPath id="clipfcc684xyplot" class="plotclip"><rect width="1009" height="385"/></clipPath><clipPath class="axesclip" id="clipfcc684x"><rect x="65" y="0" width="1009" height="500"/></clipPath><clipPath class="axesclip" id="clipfcc684y"><rect x="0" y="50" width="1100" height="385"/></clipPath><clipPath class="axesclip" id="clipfcc684xy"><rect x="65" y="50" width="1009" height="385"/></clipPath></g><g class="gradients"/><g class="patterns"/></defs><g class="bglayer"/><g class="layer-below"><g class="imagelayer"/><g class="shapelayer"/></g><g class="cartesianlayer"><g class="subplot xy"><g class="layer-subplot"><g class="shapelayer"/><g class="imagelayer"/></g><g class="minor-gridlayer"><g class="x"/><g class="y"/></g><g class="gridlayer"><g class="x"><path class="xgrid crisp" transform="translate(266.8,0)" d="M0,50v385" style="stroke: rgb(0, 0, 0); stroke-opacity: 0.05; stroke-width: 1px;"/><path class="xgrid crisp" transform="translate(468.6,0)" d="M0,50v385" style="stroke: rgb(0, 0, 0); stroke-opacity: 0.05; stroke-width: 1px;"/><path class="xgrid crisp" transform="translate(670.4,0)" d="M0,50v385" style="stroke: rgb(0, 0, 0); stroke-opacity: 0.05; stroke-width: 1px;"/><path class="xgrid crisp" transform="translate(872.2,0)" d="M0,50v385" style="stroke: rgb(0, 0, 0); stroke-opacity: 0.05; stroke-width: 1px;"/></g><g class="y"><path class="ygrid crisp" transform="translate(0,379.78)" d="M65,0h1009" style="stroke: rgb(0, 0, 0); stroke-opacity: 0.05; stroke-width: 1px;"/><path class="ygrid crisp" transform="translate(0,324.57)" d="M65,0h1009" style="stroke: rgb(0, 0, 0); stroke-opacity: 0.05; stroke-width: 1px;"/><path class="ygrid crisp" transform="translate(0,269.35)" d="M65,0h1009" style="stroke: rgb(0, 0, 0); stroke-opacity: 0.05; stroke-width: 1px;"/><path class="ygrid crisp" transform="translate(0,214.14)" d="M65,0h1009" style="stroke: rgb(0, 0, 0); stroke-opacity: 0.05; stroke-width: 1px;"/><path class="ygrid crisp" transform="translate(0,158.92000000000002)" d="M65,0h1009" style="stroke: rgb(0, 0, 0); stroke-opacity: 0.05; stroke-width: 1px;"/><path class="ygrid crisp" transform="translate(0,103.71000000000001)" d="M65,0h1009" style="stroke: rgb(0, 0, 0); stroke-opacity: 0.05; stroke-width: 1px;"/></g></g><g class="zerolinelayer"><path class="xzl zl crisp" transform="translate(65,0)" d="M0,50v385" style="stroke: rgb(0, 0, 0); stroke-opacity: 0.05; stroke-width: 2px;"/><path class="yzl zl crisp" transform="translate(0,435)" d="M65,0h1009" style="stroke: rgb(0, 0, 0); stroke-opacity: 0.05; stroke-width: 2px;"/></g><g class="layer-between"><g class="shapelayer"/><g class="imagelayer"/></g><path class="xlines-below"/><path class="ylines-below"/><g class="overlines-below"/><g class="xaxislayer-below"/><g class="yaxislayer-below"/><g class="overaxes-below"/><g class="overplot"><g class="xy" transform="translate(65,50)" clip-path="url(#clipfcc684xyplot)"><g class="scatterlayer mlayer"><g class="trace scatter trace957511" style="stroke-miterlimit: 2; opacity: 1;"><g class="fills"/><g class="errorbars"/><g class="lines"><path class="js-line" d="M0,383.07L20.18,385L30.27,385L282.52,384.77L292.61,379.82L302.7,346.6L312.79,348.94L322.88,312.16L332.97,262.69L343.06,240.26L353.15,251.22L363.24,153.76L373.33,87.27L383.42,55.96L393.51,67.01L403.6,19.25L413.69,190.93L423.78,291.94L433.87,354.16L443.96,354.74L454.05,308.45L464.14,325.76L474.23,320.71L484.32,361.36L494.41,362.1L504.5,343.48L514.59,366.31L524.68,382.91L534.77,384.4L605.4,384.52L615.49,384.86L736.57,385L746.66,385L1009,385" style="vector-effect: none; fill: none; stroke: rgb(217, 83, 79); stroke-opacity: 1; stroke-width: 2px; opacity: 1;"/></g><g class="points"/><g class="text"/></g><g class="trace scatter trace29e765" style="stroke-miterlimit: 2; opacity: 1;"><g class="fills"/><g class="errorbars"/><g class="lines"><path class="js-line" d="M0,383.07L20.18,385L30.27,385L282.52,384.38L292.61,380.74L302.7,348.98L312.79,351.23L332.97,259.17L343.06,243.03L353.15,248L363.24,153.93L373.33,86.06L383.42,62.74L393.51,78.21L403.6,32.38L413.69,184.18L423.78,280.6L433.87,350.34L443.96,354.11L454.05,306.67L464.14,323.27L474.23,322.76L484.32,359.93L494.41,363.23L504.5,344.65L514.59,366.43L524.68,383L534.77,384.36L544.86,384.22L575.13,384.38L585.22,384.52L605.4,384.72L615.49,384.86L676.03,385L686.12,385L1009,385" style="vector-effect: none; fill: none; stroke: rgb(217, 83, 79); stroke-opacity: 1; stroke-width: 2px; opacity: 1;"/></g><g class="points"/><g class="text"/></g><g class="trace scatter tracefc800b" style="stroke-miterlimit: 2; opacity: 1;"><g class="fills"/><g class="errorbars"/><g class="lines"><path class="js-line" d="M0,383.94L30.27,385L40.36,385L282.52,384.82L292.61,378.46L302.7,330.64L312.79,361.81L322.88,333.61L332.97,283.67L343.06,262.1L353.15,255.59L363.24,202.26L373.33,126.29L383.42,70.4L393.51,57.64L403.6,23.61L413.69,167.37L423.78,210.71L433.87,328.96L443.96,349.23L454.05,290.12L464.14,326.84L474.23,318.38L484.32,358.36L494.41,365.76L504.5,365.2L514.59,359.34L524.68,376.63L534.77,380.2L554.95,382.52L565.04,381.97L595.31,383.73L605.4,384.29L676.03,384.82L686.12,384.82L736.57,385L746.66,385L827.38,385L837.47,385L1009,385" style="vector-effect: none; fill: none; stroke: rgb(217, 83, 79); stroke-opacity: 1; stroke-width: 2px; opacity: 1;"/></g><g class="points"/><g class="text"/></g><g class="trace scatter tracea305f3" style="stroke-miterlimit: 2; opacity: 1;"><g class="fills"/><g class="errorbars"/><g class="lines"><path class="js-line" d="M0,383.94L30.27,385L40.36,385L282.52,384.74L292.61,381.36L302.7,335.14L312.79,360.91L322.88,321.8L332.97,276.96L353.15,262.39L363.24,190.66L373.33,126.58L383.42,77.74L393.51,71.92L403.6,30.82L413.69,163.6L423.78,195.72L433.87,329.88L443.96,347.74L454.05,289.48L464.14,321.21L474.23,321.5L484.32,358.56L494.41,363.87L504.5,364.7L514.59,364.49L524.68,378.39L534.77,380.97L544.86,381.59L605.4,383.77L615.49,383.94L635.67,384.65L645.76,384.91L706.3,385L716.39,385L1009,385" style="vector-effect: none; fill: none; stroke: rgb(217, 83, 79); stroke-opacity: 1; stroke-width: 2px; opacity: 1;"/></g><g class="points"/><g class="text"/></g><g class="trace scatter trace6513c6" style="stroke-miterlimit: 2; opacity: 1;"><g class="fills"/><g class="errorbars"/><g class="lines"><path class="js-line" d="M0,383.07L20.18,385L30.27,385L282.52,384.77L292.61,379.82L302.7,346.6L312.79,348.94L322.88,312.16L332.97,262.69L343.06,240.26L353.15,251.22L363.24,153.76L373.33,87.27L383.42,55.96L393.51,67.01L403.6,19.25L413.69,190.93L423.78,291.94L433.87,354.16L443.96,354.74L454.05,308.45L464.14,325.76L474.23,320.71L484.32,361.36L494.41,362.1L504.5,343.48L514.59,366.31L524.68,382.91L534.77,384.4L605.4,384.52L615.49,384.86L736.57,385L746.66,385L1009,385" style="vector-effect: none; fill: none; stroke: rgb(217, 83, 79); stroke-opacity: 1; stroke-width: 2px; opacity: 1;"/></g><g class="points"/><g class="text"/></g><g class="trace scatter trace951748" style="stroke-miterlimit: 2; opacity: 1;"><g class="fills"/><g class="errorbars"/><g class="lines"><path class="js-line" d="M0,383.94L30.27,385L40.36,385L282.52,384.82L292.61,378.46L302.7,330.64L312.79,361.81L322.88,333.61L332.97,283.67L343.06,262.1L353.15,255.59L363.24,202.26L373.33,126.29L383.42,70.4L393.51,57.64L403.6,23.61L413.69,167.37L423.78,210.71L433.87,328.96L443.96,349.23L454.05,290.12L464.14,326.84L474.23,318.38L484.32,358.36L494.41,365.76L504.5,365.2L514.59,359.34L524.68,376.63L534.77,380.2L554.95,382.52L565.04,381.97L595.31,383.73L605.4,384.29L676.03,384.82L686.12,384.82L736.57,385L746.66,385L827.38,385L837.47,385L1009,385" style="vector-effect: none; fill: none; stroke: rgb(217, 83, 79); stroke-opacity: 1; stroke-width: 2px; opacity: 1;"/></g><g class="points"/><g class="text"/></g></g></g></g><path class="xlines-above crisp" d="M0,0" style="fill: none;"/><path class="ylines-above crisp" d="M0,0" style="fill: none;"/><g class="overlines-above"/><g class="xaxislayer-above"><g class="xtick"><text text-anchor="middle" x="0" y="451" transform="translate(65,0)" style="font-family: 'Lucida Grande', 'Open Sans', verdana, arial, sans-serif; font-size: 10px; fill: rgb(0, 0, 0); fill-opacity: 1; white-space: pre; opacity: 1;">0%</text></g><g class="xtick"><text text-anchor="middle" x="0" y="451" style="font-family: 'Lucida Grande', 'Open Sans', verdana, arial, sans-serif; font-size: 10px; fill: rgb(0, 0, 0); fill-opacity: 1; white-space: pre; opacity: 1;" transform="translate(266.8,0)">20%</text></g><g class="xtick"><text text-anchor="middle" x="0" y="451" style="font-family: 'Lucida Grande', 'Open Sans', verdana, arial, sans-serif; font-size: 10px; fill: rgb(0, 0, 0); fill-opacity: 1; white-space: pre; opacity: 1;" transform="translate(468.6,0)">40%</text></g><g class="xtick"><text text-anchor="middle" x="0" y="451" style="font-family: 'Lucida Grande', 'Open Sans', verdana, arial, sans-serif; font-size: 10px; fill: rgb(0, 0, 0); fill-opacity: 1; white-space: pre; opacity: 1;" transform="translate(670.4,0)">60%</text></g><g class="xtick"><text text-anchor="middle" x="0" y="451" style="font-family: 'Lucida Grande', 'Open Sans', verdana, arial, sans-serif; font-size: 10px; fill: rgb(0, 0, 0); fill-opacity: 1; white-space: pre; opacity: 1;" transform="translate(872.2,0)">80%</text></g><g class="xtick"><text text-anchor="middle" x="0" y="451" style="font-family: 'Lucida Grande', 'Open Sans', verdana, arial, sans-serif; font-size: 10px; fill: rgb(0, 0, 0); fill-opacity: 1; white-space: pre; opacity: 1;" transform="translate(1074,0)">100%</text></g></g><g class="yaxislayer-above"><g class="ytick"><text text-anchor="end" x="59" y="3.5" transform="translate(0,435)" style="font-family: 'Lucida Grande', 'Open Sans', verdana, arial, sans-serif; font-size: 10px; fill: rgb(0, 0, 0); fill-opacity: 1; white-space: pre; opacity: 1;">0%</text></g><g class="ytick"><text text-anchor="end" x="59" y="3.5" style="font-family: 'Lucida Grande', 'Open Sans', verdana, arial, sans-serif; font-size: 10px; fill: rgb(0, 0, 0); fill-opacity: 1; white-space: pre; opacity: 1;" transform="translate(0,379.78)">2%</text></g><g class="ytick"><text text-anchor="end" x="59" y="3.5" style="font-family: 'Lucida Grande', 'Open Sans', verdana, arial, sans-serif; font-size: 10px; fill: rgb(0, 0, 0); fill-opacity: 1; white-space: pre; opacity: 1;" transform="translate(0,324.57)">4%</text></g><g class="ytick"><text text-anchor="end" x="59" y="3.5" style="font-family: 'Lucida Grande', 'Open Sans', verdana, arial, sans-serif; font-size: 10px; fill: rgb(0, 0, 0); fill-opacity: 1; white-space: pre; opacity: 1;" transform="translate(0,269.35)">6%</text></g><g class="ytick"><text text-anchor="end" x="59" y="3.5" style="font-family: 'Lucida Grande', 'Open Sans', verdana, arial, sans-serif; font-size: 10px; fill: rgb(0, 0, 0); fill-opacity: 1; white-space: pre; opacity: 1;" transform="translate(0,214.14)">8%</text></g><g class="ytick"><text text-anchor="end" x="59" y="3.5" style="font-family: 'Lucida Grande', 'Open Sans', verdana, arial, sans-serif; font-size: 10px; fill: rgb(0, 0, 0); fill-opacity: 1; white-space: pre; opacity: 1;" transform="translate(0,158.92000000000002)">10%</text></g><g class="ytick"><text text-anchor="end" x="59" y="3.5" style="font-family: 'Lucida Grande', 'Open Sans', verdana, arial, sans-serif; font-size: 10px; fill: rgb(0, 0, 0); fill-opacity: 1; white-space: pre; opacity: 1;" transform="translate(0,103.71000000000001)">12%</text></g></g><g class="overaxes-above"/></g></g><g class="polarlayer"/><g class="smithlayer"/><g class="ternarylayer"/><g class="geolayer"/><g class="funnelarealayer"/><g class="pielayer"/><g class="iciclelayer"/><g class="treemaplayer"/><g class="sunburstlayer"/><g class="glimages"/><defs id="topdefs-fcc684"><g class="clips"/></defs><g class="layer-above"><g class="imagelayer"/><g class="shapelayer"/></g><g class="infolayer"><g class="g-gtitle"><text class="gtitle" x="550" y="25" text-anchor="middle" dy="0em" style="opacity: 1; font-family: 'Lucida Grande', 'Open Sans', verdana, arial, sans-serif; font-size: 20px; fill: rgb(42, 63, 95); fill-opacity: 1; white-space: pre;"><tspan class="line" dy="0em" x="550" y="25">FastQC: Per Sequence GC Content</tspan><tspan class="line" dy="1.3em" x="550" y="25">​<tspan style="font-size:70%" dy="-0.6em">Percentages, 6 samples</tspan><tspan dy="0.42em">​</tspan></tspan></text></g><g class="g-xtitle"><text class="xtitle" x="569.5" y="472.3" text-anchor="middle" style="opacity: 0.3; font-family: 'Lucida Grande', 'Open Sans', verdana, arial, sans-serif; font-size: 14px; fill: rgb(0, 0, 0); fill-opacity: 1; white-space: pre;">% GC</text></g><g class="g-ytitle"><text class="ytitle" transform="rotate(-90,22.365625,242.5)" x="22.365625" y="242.5" text-anchor="middle" style="opacity: 0.3; font-family: 'Lucida Grande', 'Open Sans', verdana, arial, sans-serif; font-size: 14px; fill: rgb(0, 0, 0); fill-opacity: 1; white-space: pre;">Percentage</text></g></g></svg>