<?xml version="1.0" encoding="UTF-8"?>
<svg id="Layer_1" data-name="Layer 1" xmlns="http://www.w3.org/2000/svg" viewBox="0 0 431.84 61.31">
  <defs>
    <style>
      .cls-1 {
        fill: #fff;
        fill-rule: evenodd;
      }
    </style>
  </defs>
  <g>
    <path class="cls-1" d="M14.98,2.47H52.6c1.61,0,2.93,1.32,2.93,2.93h0c0,1.61-1.32,2.93-2.93,2.93H14.98c-1.61,0-2.93-1.32-2.93-2.93h0c0-1.61,1.32-2.93,2.93-2.93Z"/>
    <path class="cls-1" d="M63.36,2.47h0c1.55,0,2.82,1.27,2.82,2.82v.23c0,1.55-1.27,2.82-2.82,2.82h0c-1.55,0-2.82-1.27-2.82-2.82v-.23c0-1.55,1.27-2.82,2.82-2.82Z"/>
    <path class="cls-1" d="M2.93,2.47H7.1c1.61,0,2.93,1.32,2.93,2.93h0c0,1.61-1.32,2.93-2.93,2.93H2.93c-1.61,0-2.93-1.32-2.93-2.93H0c0-1.61,1.32-2.93,2.93-2.93Z"/>
    <path class="cls-1" d="M2.93,14.07H40.55c1.61,0,2.93,1.32,2.93,2.93h0c0,1.61-1.32,2.93-2.93,2.93H2.93c-1.61,0-2.93-1.32-2.93-2.93H0c0-1.61,1.32-2.93,2.93-2.93Z"/>
    <path class="cls-1" d="M49.85,14.07h0c1.55,0,2.82,1.27,2.82,2.82v.23c0,1.55-1.27,2.82-2.82,2.82h0c-1.55,0-2.82-1.27-2.82-2.82v-.23c0-1.55,1.27-2.82,2.82-2.82Z"/>
    <path class="cls-1" d="M59.08,14.07h4.17c1.61,0,2.93,1.32,2.93,2.93h0c0,1.61-1.32,2.93-2.93,2.93h-4.17c-1.61,0-2.93-1.32-2.93-2.93h0c0-1.61,1.32-2.93,2.93-2.93Z"/>
    <path class="cls-1" d="M15.6,25.73H53.22c1.61,0,2.93,1.32,2.93,2.93h0c0,1.61-1.32,2.93-2.93,2.93H15.6c-1.61,0-2.93-1.32-2.93-2.93h0c0-1.61,1.32-2.93,2.93-2.93Z"/>
    <path class="cls-1" d="M63.36,25.73h0c1.55,0,2.82,1.27,2.82,2.82v.23c0,1.55-1.27,2.82-2.82,2.82h0c-1.55,0-2.82-1.27-2.82-2.82v-.23c0-1.55,1.27-2.82,2.82-2.82Z"/>
    <path class="cls-1" d="M2.93,25.73H7.1c1.61,0,2.93,1.32,2.93,2.93h0c0,1.61-1.32,2.93-2.93,2.93H2.93c-1.61,0-2.93-1.32-2.93-2.93H0c0-1.61,1.32-2.93,2.93-2.93Z"/>
    <g>
      <path class="cls-1" d="M63.25,37.33H25.63c-1.61,0-2.93,1.32-2.93,2.93h0c0,1.61,1.32,2.93,2.93,2.93H63.25c1.61,0,2.93-1.32,2.93-2.93h0c0-1.61-1.32-2.93-2.93-2.93Z"/>
      <path class="cls-1" d="M16.33,37.33h0c-1.55,0-2.82,1.27-2.82,2.82v.23c0,1.55,1.27,2.82,2.82,2.82h0c1.55,0,2.82-1.27,2.82-2.82v-.23c0-1.55-1.27-2.82-2.82-2.82Z"/>
      <path class="cls-1" d="M7.1,37.33H2.93C1.32,37.33,0,38.65,0,40.26H0c0,1.61,1.32,2.93,2.93,2.93H7.1c1.61,0,2.93-1.32,2.93-2.93h0c0-1.61-1.32-2.93-2.93-2.93Z"/>
    </g>
    <path class="cls-1" d="M51.2,48.93H13.58c-1.61,0-2.93,1.32-2.93,2.93h0c0,1.61,1.32,2.93,2.93,2.93H51.2c1.61,0,2.93-1.32,2.93-2.93h0c0-1.61-1.32-2.93-2.93-2.93Z"/>
    <path class="cls-1" d="M2.82,48.93h0C1.27,48.93,0,50.2,0,51.75v.23c0,1.55,1.27,2.82,2.82,2.82h0c1.55,0,2.82-1.27,2.82-2.82v-.23c0-1.55-1.27-2.82-2.82-2.82Z"/>
    <path class="cls-1" d="M63.25,48.93h-4.17c-1.61,0-2.93,1.32-2.93,2.93h0c0,1.61,1.32,2.93,2.93,2.93h4.17c1.61,0,2.93-1.32,2.93-2.93h0c0-1.61-1.32-2.93-2.93-2.93Z"/>
  </g>
  <path class="cls-1" d="M112.53,17.51c-3.85-3.38-7.77-4.39-12.98-4.39-6.08,0-14.06,2.7-14.06,10.41s7.5,9.87,13.79,10.34c4.73,.27,6.62,1.22,6.62,3.52,0,2.43-2.91,4.06-6.02,3.99-3.72-.07-9.13-2.03-11.49-4.66l-4.06,5.88c4.87,5.07,10.14,5.95,15.41,5.95,9.53,0,14.33-5.07,14.33-10.95,0-8.86-7.98-10.28-14.26-10.68-4.26-.27-6.22-1.49-6.22-3.65s2.16-3.31,6.08-3.31c3.18,0,5.88,.74,8.25,2.97l4.6-5.41h0Zm39.89,16.16c1.28-13.72-5.68-20.62-16.83-20.62s-17.71,7.3-17.71,17.44c0,10.68,6.83,17.78,18.32,17.78,5.07,0,10.82-1.76,14.33-5.41l-5.27-5.21c-1.89,1.96-5.88,3.11-8.92,3.11-5.81,0-9.4-2.97-9.94-7.1h26.03Zm-25.89-6.83c1.22-4.33,4.87-6.49,9.33-6.49,4.73,0,8.11,2.16,8.65,6.49h-17.98Zm48.33,13.39c-5.61,0-9.46-4.26-9.46-9.46s3.52-9.46,9.46-9.46,9.46,4.26,9.46,9.46-3.85,9.46-9.46,9.46h0Zm18.45,21.09V14.06h-7.71l-.54,4.6c-2.57-3.72-7.03-5.34-10.82-5.34-10.28,0-17.1,7.64-17.1,17.44s6.15,17.44,16.83,17.44c3.52,0,8.72-1.08,11.09-4.73v17.85h8.25Zm40.29-27.65c1.28-13.72-5.68-20.62-16.83-20.62s-17.71,7.3-17.71,17.44c0,10.68,6.83,17.78,18.32,17.78,5.07,0,10.82-1.76,14.33-5.41l-5.27-5.21c-1.89,1.96-5.88,3.11-8.92,3.11-5.81,0-9.4-2.97-9.94-7.1h26.03Zm-25.89-6.83c1.22-4.33,4.87-6.49,9.33-6.49,4.73,0,8.11,2.16,8.65,6.49h-17.98Zm32.25-12.78V47.39h8.25V29.81c0-6.15,3.99-8.45,8.32-8.45,2.7,0,4.26,.74,5.95,2.16l3.72-7.17c-1.83-1.83-5.14-3.18-8.59-3.18s-6.83,.61-9.4,4.73l-.61-3.85h-7.64Zm55.5,4.6c-1.89-3.31-6.15-5.41-10.61-5.41-9.74-.07-17.37,5.95-17.37,17.44s7.3,17.78,17.17,17.71c3.72-.07,8.92-1.96,10.82-5.88l.41,4.87h7.77V14.06h-7.91l-.27,4.6h0Zm-9.87,1.96c12.98,0,12.98,20.21,0,20.21-5.48,0-9.87-3.79-9.87-10.14s4.39-10.07,9.87-10.07Z"/>
  <path class="cls-1" d="M310.48,0V47.39h3.31V0h-3.31Zm41.37,13.99v7.3c-2.77-5.2-8.25-7.71-13.66-7.71-9.33,0-16.97,6.9-16.97,17.1s7.64,17.24,16.97,17.24c5.41,0,10.41-2.43,13.66-7.64v7.1h3.31V13.99h-3.31Zm-13.66,2.77c18.59,0,18.59,27.92,0,27.92-7.57,0-13.66-5.61-13.66-13.99s6.08-13.93,13.66-13.93h0Zm42.25-.14c7.5,0,13.66,4.66,13.66,14.06s-6.15,13.99-13.66,13.99-13.66-5.75-13.66-14.06,5.95-13.99,13.66-13.99h0ZM363.48,0V47.39h3.25v-7.37c2.77,5.07,8.25,7.91,13.93,7.91,9.33,0,16.7-6.15,16.7-17.24s-7.44-17.24-16.77-17.24c-5.75,0-11.15,2.43-13.86,7.84V0h-3.25Zm66.93,17.91c-3.31-3.11-7.57-4.46-12.44-4.46-6.76-.07-13.32,2.77-13.25,9.33,.07,6.69,6.49,7.91,12.98,8.99,5.48,.88,11.02,1.83,10.88,6.63-.2,5.27-6.35,6.35-10.41,6.35-4.46,0-9.46-1.69-12.24-5.68l-2.43,2.16c2.91,4.46,8.72,6.69,14.6,6.69s13.52-1.96,13.72-9.33c.34-7.77-7.84-8.79-13.79-9.8-4.19-.74-10.01-1.62-10.14-6.08-.14-4.26,4.87-6.22,10.07-6.15,3.72,0,7.03,.54,10.41,3.52l2.03-2.16Z"/>
</svg>