<svg version="1.1" xmlns="http://www.w3.org/2000/svg" viewBox="0 0 981.7387923958568 1283.5356465603895" width="1963.4775847917135" height="2567.071293120779">
  <!-- svg-source:excalidraw -->
  
  <defs>
    <style class="style-fonts">
      @font-face {
        font-family: Virgil;
        src: url(https://unpkg.com/@excalidraw/excalidraw@undefined/dist/prod/Virgil-Regular-YHAB2VGJ.woff2);
          }
@font-face {
        font-family: Excalifont;
        src: url(https://unpkg.com/@excalidraw/excalidraw@undefined/dist/prod/Excalifont-Regular-CPKEUDVM.woff2);
          }
    </style>
    
  </defs>
  <rect x="0" y="0" width="981.7387923958568" height="1283.5356465603895" fill="#ffffff"></rect><g stroke-linecap="round" transform="translate(10 10) rotate(0 480.8693961979284 260.43542301409775)"><path d="M32 0 C315.92 1.05, 599.76 1.6, 929.74 0 M32 0 C385.4 0.53, 739.22 0.98, 929.74 0 M929.74 0 C949.12 0.23, 961.87 8.71, 961.74 32 M929.74 0 C950.01 -2.07, 960.02 9.88, 961.74 32 M961.74 32 C963.48 147.18, 963.23 263.9, 961.74 488.87 M961.74 32 C959.71 126.83, 959.92 221.45, 961.74 488.87 M961.74 488.87 C960.63 508.35, 952.15 519.42, 929.74 520.87 M961.74 488.87 C963.32 510.79, 949.16 520.06, 929.74 520.87 M929.74 520.87 C577.8 517.56, 224.63 516.75, 32 520.87 M929.74 520.87 C621.53 517.98, 313.31 518.16, 32 520.87 M32 520.87 C10.44 522.39, -1.62 510.02, 0 488.87 M32 520.87 C12.68 520.88, -1.4 512.04, 0 488.87 M0 488.87 C-0.99 396.14, -0.81 304.61, 0 32 M0 488.87 C-0.88 381.64, -1.01 274.77, 0 32 M0 32 C-0.02 11.65, 12.38 -1.08, 32 0 M0 32 C0.06 12.3, 10.34 2.03, 32 0" stroke="#1e1e1e" stroke-width="2" fill="none"></path></g><g stroke-linecap="round" transform="translate(30.035148788527863 32.15135221324704) rotate(0 87.20901993627393 41.830078125)"><path d="M20.92 0 C52.17 2.44, 83.37 4.1, 153.5 0 C166.04 -0.79, 170.84 3.38, 174.42 20.92 C175.18 37.07, 170.33 48.16, 174.42 62.75 C173.91 77.37, 167.35 86.91, 153.5 83.66 C107.36 78.9, 60.95 79.43, 20.92 83.66 C5.96 83.73, -0.91 78.57, 0 62.75 C-0.87 50.02, -3.47 38.79, 0 20.92 C0 8.7, 7.26 0.43, 20.92 0" stroke="none" stroke-width="0" fill="#a5d8ff"></path><path d="M20.92 0 C48 -2.37, 76.33 -1.5, 153.5 0 M20.92 0 C54.16 -1.23, 85.53 -0.82, 153.5 0 M153.5 0 C167.21 -1.87, 173.37 6.53, 174.42 20.92 M153.5 0 C167.01 -1.06, 173.07 7.8, 174.42 20.92 M174.42 20.92 C176.23 29.92, 176.26 39.63, 174.42 62.75 M174.42 20.92 C174.44 33.17, 174.53 43.24, 174.42 62.75 M174.42 62.75 C172.69 78.28, 167.49 82.74, 153.5 83.66 M174.42 62.75 C172.54 76.73, 167.23 84.43, 153.5 83.66 M153.5 83.66 C117.09 83.91, 80.29 84, 20.92 83.66 M153.5 83.66 C103.23 84.89, 53.56 84.61, 20.92 83.66 M20.92 83.66 C6.7 81.9, -0.87 77.17, 0 62.75 M20.92 83.66 C4.84 83.81, 0.87 76.34, 0 62.75 M0 62.75 C-0.13 51.17, 1.55 41.75, 0 20.92 M0 62.75 C0.16 49.93, 0.66 37.7, 0 20.92 M0 20.92 C1.17 8.03, 5.37 -0.24, 20.92 0 M0 20.92 C1.09 8.99, 4.73 2.24, 20.92 0" stroke="#1e1e1e" stroke-width="4" fill="none"></path></g><g transform="translate(95.75417849042685 61.48143033824704) rotate(0 21.489990234375 12.5)"><text x="21.489990234375" y="17.619999999999997" font-family="Virgil, Segoe UI Emoji" font-size="20px" fill="#1e1e1e" text-anchor="middle" style="white-space: pre;" direction="ltr" dominant-baseline="alphabetic">BAM</text></g><g stroke-linecap="round" transform="translate(289.5844035082173 31.059555338247037) rotate(0 109.333984375 41.830078125)"><path d="M4.91 5.59 C4.91 5.59, 4.91 5.59, 4.91 5.59 M4.91 5.59 C4.91 5.59, 4.91 5.59, 4.91 5.59 M1.11 22.16 C6.94 13.81, 13.66 5.33, 20.13 0.28 M1.11 22.16 C8.48 15.51, 14.46 7.62, 20.13 0.28 M0.58 34.96 C9.49 24.06, 19.08 15.64, 30.76 0.24 M0.58 34.96 C9.33 25.13, 16.39 16.31, 30.76 0.24 M0.72 47 C14.11 31.26, 30.55 14.48, 41.39 0.21 M0.72 47 C13.09 32.34, 25.74 20.16, 41.39 0.21 M0.85 59.04 C9.94 48.58, 21.24 35.85, 52.02 0.17 M0.85 59.04 C19.43 39.07, 35.95 17.48, 52.02 0.17 M1.64 70.33 C24.63 44.06, 42.97 20.29, 62.65 0.14 M1.64 70.33 C18.62 49.89, 36.98 27.58, 62.65 0.14 M5.71 77.84 C27.26 55.42, 46.82 30.2, 73.28 0.1 M5.71 77.84 C28.81 52.45, 51.5 26.26, 73.28 0.1 M12.4 82.33 C35.07 56.81, 57.38 30.69, 83.91 0.07 M12.4 82.33 C37.15 52.76, 62.87 23.57, 83.91 0.07 M21.72 83.81 C37.76 64.37, 55.38 47.34, 94.54 0.04 M21.72 83.81 C49.14 53.43, 75.3 21.3, 94.54 0.04 M32.35 83.77 C58.24 52.53, 86.93 19.66, 104.52 0.76 M32.35 83.77 C52.27 60.56, 72.26 38.04, 104.52 0.76 M42.33 84.49 C67.16 51.85, 94.14 21.89, 115.15 0.72 M42.33 84.49 C64.65 56.98, 87.21 30.81, 115.15 0.72 M52.96 84.46 C78.5 57.54, 102.11 29.18, 125.78 0.69 M52.96 84.46 C77.55 54.81, 102.31 27.56, 125.78 0.69 M63.59 84.42 C81.73 65.24, 100.2 44.45, 136.41 0.65 M63.59 84.42 C90 54.29, 117.36 23.93, 136.41 0.65 M74.22 84.39 C101.53 51.44, 132.65 17.55, 147.04 0.62 M74.22 84.39 C90.28 65.7, 105.96 49.96, 147.04 0.62 M84.85 84.36 C108.82 56.24, 134.95 27.65, 157.67 0.58 M84.85 84.36 C102.24 65.9, 118.66 46.24, 157.67 0.58 M95.48 84.32 C110.95 67.07, 126.41 49.21, 168.3 0.55 M95.48 84.32 C124.39 51.75, 151.93 21.28, 168.3 0.55 M106.11 84.29 C134.46 51.38, 160.28 21.63, 178.93 0.51 M106.11 84.29 C130.34 56.18, 153.53 27.69, 178.93 0.51 M116.74 84.25 C131.23 68.36, 146.91 48.98, 189.56 0.48 M116.74 84.25 C141.95 54.25, 168.66 23.45, 189.56 0.48 M127.37 84.22 C149.24 56.22, 173.25 30.45, 200.19 0.45 M127.37 84.22 C144.06 65.03, 162.22 44.34, 200.19 0.45 M138 84.18 C162.55 56.82, 188.29 25.58, 208.85 2.67 M138 84.18 C159.93 58.41, 181.18 31.95, 208.85 2.67 M148.63 84.15 C172.14 55.7, 199.45 27.27, 214.89 7.92 M148.63 84.15 C163.58 67.68, 179.51 49.75, 214.89 7.92 M159.26 84.11 C176.03 64.73, 196.42 40.93, 218.3 16.19 M159.26 84.11 C183.4 58.5, 204.38 31.72, 218.3 16.19 M169.89 84.08 C185.71 66.1, 200.84 47.58, 218.44 28.23 M169.89 84.08 C183.13 69.12, 196.09 52.61, 218.44 28.23 M180.52 84.05 C188.69 70.87, 202.77 61.45, 218.57 40.27 M180.52 84.05 C193.57 69.19, 207.78 53.01, 218.57 40.27 M191.15 84.01 C196.8 75.68, 204.83 70.22, 218.7 52.31 M191.15 84.01 C199.73 73.38, 208.23 64.12, 218.7 52.31 M203.09 82.47 C209.17 76.55, 216.67 67.67, 218.83 64.35 M203.09 82.47 C206.51 77.5, 209.58 73.12, 218.83 64.35 M4.93 78.17 C4.93 78.17, 4.93 78.17, 4.93 78.17 M4.93 78.17 C4.93 78.17, 4.93 78.17, 4.93 78.17 M22.25 82.63 C15.78 78.25, 12.46 73.02, 2.63 65.57 M22.25 82.63 C17.06 77.54, 11.42 71.81, 2.63 65.57 M34.29 82.49 C24.32 73.38, 13.85 65.26, 2.59 54.94 M34.29 82.49 C23.11 73.76, 11.54 62.56, 2.59 54.94 M46.33 82.36 C36.59 72.79, 28.31 65.17, 2.56 44.31 M46.33 82.36 C30.35 67.76, 11.69 53.44, 2.56 44.31 M58.37 82.23 C38.45 63.16, 16.54 46.34, 2.52 33.68 M58.37 82.23 C44.73 70.63, 31.41 57.26, 2.52 33.68 M70.41 82.09 C47.33 63.62, 23.36 43.21, 2.49 23.05 M70.41 82.09 C54.97 66.57, 37.54 53.61, 2.49 23.05 M83.21 82.62 C60.45 61, 36.07 40.04, 3.21 13.08 M83.21 82.62 C66.95 69.53, 51.02 55.36, 3.21 13.08 M95.25 82.48 C75.51 65.79, 54.1 47.49, 5.44 4.41 M95.25 82.48 C75.35 65.59, 55.59 47.67, 5.44 4.41 M107.29 82.35 C86.05 62.67, 67.52 47.03, 12.95 0.34 M107.29 82.35 C78.56 55.93, 50.37 31.55, 12.95 0.34 M119.33 82.22 C98.59 66.22, 80.59 45.62, 22.73 -1.76 M119.33 82.22 C85.01 51.39, 48.74 20.61, 22.73 -1.76 M131.37 82.08 C107.78 62.25, 83.44 40.63, 34.77 -1.89 M131.37 82.08 C107.54 62.05, 83.87 41.68, 34.77 -1.89 M144.17 82.61 C110.86 51.83, 74.16 22.55, 46.81 -2.02 M144.17 82.61 C115.22 58.21, 88.96 34.29, 46.81 -2.02 M156.21 82.47 C127.28 55.38, 94.19 30.56, 58.85 -2.16 M156.21 82.47 C120.69 52, 85.32 22.01, 58.85 -2.16 M168.25 82.34 C147.36 63.13, 123.8 43.05, 71.65 -1.63 M168.25 82.34 C139.96 57.93, 111.52 31.8, 71.65 -1.63 M180.29 82.21 C144.48 51.26, 104.3 19.68, 83.69 -1.77 M180.29 82.21 C157.23 63.62, 136.27 45.87, 83.69 -1.77 M193.09 82.73 C158.08 50.29, 121.98 21.84, 95.73 -1.9 M193.09 82.73 C169.3 62.08, 144.43 40.52, 95.73 -1.9 M201.35 79.32 C175.76 58.83, 153.79 35.47, 107.77 -2.03 M201.35 79.32 C181.73 61.84, 162.26 46.79, 107.77 -2.03 M212.64 78.53 C183.39 50.27, 149.89 23.16, 119.81 -2.17 M212.64 78.53 C183.44 52.26, 153.91 27.8, 119.81 -2.17 M217.13 71.83 C189.47 46.04, 162.45 23.76, 132.61 -1.64 M217.13 71.83 C187.71 48.51, 159.35 23.81, 132.61 -1.64 M218.61 62.52 C196.06 39.55, 169.02 21.26, 144.65 -1.78 M218.61 62.52 C202.55 49.91, 187.36 36.26, 144.65 -1.78 M218.57 51.89 C203.39 38.96, 189.57 25.17, 156.69 -1.91 M218.57 51.89 C203.11 37.7, 187.02 24.96, 156.69 -1.91 M218.54 41.26 C197.63 25.9, 180.36 7.76, 168.73 -2.04 M218.54 41.26 C199.81 25.92, 181.88 9.01, 168.73 -2.04 M218.5 30.63 C209.22 22.81, 199.59 14.41, 180.77 -2.18 M218.5 30.63 C209.32 23.88, 200.94 15.31, 180.77 -2.18 M218.47 20 C210.17 13.69, 202.98 6.43, 193.56 -1.65 M218.47 20 C209.47 12.93, 200.67 5.63, 193.56 -1.65" stroke="#ffec99" stroke-width="1" fill="none"></path><path d="M20.92 0 C61.76 1.98, 104.49 1.96, 197.75 0 M20.92 0 C74.85 0.46, 130.88 0.24, 197.75 0 M197.75 0 C211.01 -1.84, 218.24 6.31, 218.67 20.92 M197.75 0 C212.37 0.03, 220.66 6.14, 218.67 20.92 M218.67 20.92 C219.23 31.58, 218.21 40.1, 218.67 62.75 M218.67 20.92 C219.24 35.25, 219.46 50.93, 218.67 62.75 M218.67 62.75 C217.25 75.4, 210.64 84.12, 197.75 83.66 M218.67 62.75 C217.58 74.53, 210.08 85.67, 197.75 83.66 M197.75 83.66 C144.25 82.53, 90.8 83.1, 20.92 83.66 M197.75 83.66 C159.19 84.1, 122.5 83.58, 20.92 83.66 M20.92 83.66 C8.19 84.31, -0.92 75.81, 0 62.75 M20.92 83.66 C8.83 81.83, -1.21 76.05, 0 62.75 M0 62.75 C1.42 54.53, -0.32 45, 0 20.92 M0 62.75 C-0.83 50.56, 0.46 37.91, 0 20.92 M0 20.92 C-0.4 7.67, 5.48 -1.29, 20.92 0 M0 20.92 C0.37 8.77, 6.66 1.11, 20.92 0" stroke="#1e1e1e" stroke-width="2" fill="none"></path></g><g transform="translate(350.04843091300245 47.88963346324704) rotate(0 48.869956970214844 25)"><text x="48.869956970214844" y="17.619999999999997" font-family="Virgil, Segoe UI Emoji" font-size="20px" fill="#1e1e1e" text-anchor="middle" style="white-space: pre;" direction="ltr" dominant-baseline="alphabetic">Samtools </text><text x="48.869956970214844" y="42.62" font-family="Virgil, Segoe UI Emoji" font-size="20px" fill="#1e1e1e" text-anchor="middle" style="white-space: pre;" direction="ltr" dominant-baseline="alphabetic">index</text></g><g stroke-linecap="round" transform="translate(313.7324744831734 186.98143033824704) rotate(0 87.20901993627393 41.830078125)"><path d="M20.92 0 C53.87 -1.29, 87.07 -1.25, 153.5 0 C170.57 -0.1, 176.03 7.28, 174.42 20.92 C175.59 35.38, 174.51 45.05, 174.42 62.75 C172.85 77.99, 169.11 82.53, 153.5 83.66 C101.5 85.16, 49.57 87.82, 20.92 83.66 C10.19 84.75, 1.76 78.17, 0 62.75 C0.15 46.65, -1.52 39.09, 0 20.92 C2.33 6.44, 3.67 -1.91, 20.92 0" stroke="none" stroke-width="0" fill="#a5d8ff"></path><path d="M20.92 0 C50.72 0.76, 82.73 1.08, 153.5 0 M20.92 0 C69.33 -0.53, 118.43 0.3, 153.5 0 M153.5 0 C167.96 1.56, 174.97 6.67, 174.42 20.92 M153.5 0 C167.11 -1.36, 175.45 6.39, 174.42 20.92 M174.42 20.92 C172.26 31.78, 174.09 39.8, 174.42 62.75 M174.42 20.92 C174.97 34.67, 174.11 50.03, 174.42 62.75 M174.42 62.75 C173.95 77.75, 165.95 83.29, 153.5 83.66 M174.42 62.75 C175.11 76.99, 168.22 84.71, 153.5 83.66 M153.5 83.66 C117.37 85.39, 84.53 85.74, 20.92 83.66 M153.5 83.66 C103.9 83.43, 53.42 82.49, 20.92 83.66 M20.92 83.66 C5.85 85.13, 0.69 75.37, 0 62.75 M20.92 83.66 C6.33 85.57, 0.05 78.55, 0 62.75 M0 62.75 C-0.5 52.46, -0.72 41.51, 0 20.92 M0 62.75 C1.09 48.7, 0.42 33.7, 0 20.92 M0 20.92 C-0.41 6.01, 7.89 -0.86, 20.92 0 M0 20.92 C-2.09 9.23, 7.52 -0.15, 20.92 0" stroke="#1e1e1e" stroke-width="2" fill="none"></path></g><g transform="translate(349.9415238641419 216.31150846324704) rotate(0 50.99997055530548 12.5)"><text x="50.99997055530548" y="17.619999999999997" font-family="Virgil, Segoe UI Emoji" font-size="20px" fill="#1e1e1e" text-anchor="middle" style="white-space: pre;" direction="ltr" dominant-baseline="alphabetic">BAM index</text></g><g stroke-linecap="round" transform="translate(561.4249569996227 186.87205533824704) rotate(0 87.20901993627399 41.830078125)"><path d="M20.92 0 C53.87 -4.1, 88.73 -0.01, 153.5 0 C165.12 -3.58, 174.02 4.98, 174.42 20.92 C172.46 31.72, 175.29 49.65, 174.42 62.75 C174.9 73.7, 165.85 82.36, 153.5 83.66 C126.52 84.35, 93.77 81.79, 20.92 83.66 C8.43 81.03, -2.87 78.51, 0 62.75 C0.3 49.29, -1.28 29.75, 0 20.92 C3.45 5.73, 10.55 0.5, 20.92 0" stroke="none" stroke-width="0" fill="#a5d8ff"></path><path d="M20.92 0 C57.78 0.13, 99.78 0.7, 153.5 0 M20.92 0 C66.25 0.36, 113.73 2, 153.5 0 M153.5 0 C168.57 -1.73, 174.09 6.2, 174.42 20.92 M153.5 0 C166.69 -0.96, 176.55 6.13, 174.42 20.92 M174.42 20.92 C172.63 32.24, 172.78 43.79, 174.42 62.75 M174.42 20.92 C174.18 31.35, 174.1 40.61, 174.42 62.75 M174.42 62.75 C175.43 78.07, 168.97 85.23, 153.5 83.66 M174.42 62.75 C174.93 78.63, 166.45 84.28, 153.5 83.66 M153.5 83.66 C116.31 84.17, 74.05 84.59, 20.92 83.66 M153.5 83.66 C110.88 84.55, 69.39 83.64, 20.92 83.66 M20.92 83.66 C5.55 81.81, 1.05 76.76, 0 62.75 M20.92 83.66 C4.97 83.94, 1.58 75.51, 0 62.75 M0 62.75 C-0.6 50.2, 0.81 34.76, 0 20.92 M0 62.75 C-0.05 47.24, -0.91 30.91, 0 20.92 M0 20.92 C0.57 6.23, 6.48 1.7, 20.92 0 M0 20.92 C-0.05 7.79, 8.1 -2.29, 20.92 0" stroke="#1e1e1e" stroke-width="4" fill="none"></path></g><g transform="translate(603.0140076126193 216.20213346324704) rotate(0 45.61996932327747 12.5)"><text x="45.61996932327747" y="17.619999999999997" font-family="Virgil, Segoe UI Emoji" font-size="20px" fill="#1e1e1e" text-anchor="middle" style="white-space: pre;" direction="ltr" dominant-baseline="alphabetic">Intervals</text></g><g stroke-linecap="round" transform="translate(773.8492358254448 187.75486783824704) rotate(0 87.20901993627399 41.830078125)"><path d="M20.92 0 C72.18 -4.21, 119.69 -0.07, 153.5 0 C170.32 2.79, 175.29 10.2, 174.42 20.92 C174.38 37.48, 173.22 48.85, 174.42 62.75 C177.98 73.82, 169.88 84.14, 153.5 83.66 C116.91 82.41, 82.49 82.73, 20.92 83.66 C7.18 83.98, 0.15 74.37, 0 62.75 C-2.67 52.18, -2.98 43.81, 0 20.92 C-2.31 6.43, 8.25 -0.96, 20.92 0" stroke="none" stroke-width="0" fill="#a5d8ff"></path><path d="M20.92 0 C72.56 -1.41, 123.27 0.25, 153.5 0 M20.92 0 C70.1 0.94, 120.16 0.75, 153.5 0 M153.5 0 C165.88 1.31, 174.4 7.8, 174.42 20.92 M153.5 0 C168.31 -1.39, 173.35 5.3, 174.42 20.92 M174.42 20.92 C173.37 31.08, 175.62 36.87, 174.42 62.75 M174.42 20.92 C174.66 30.39, 175.11 40.87, 174.42 62.75 M174.42 62.75 C175.15 75.3, 167.89 82.38, 153.5 83.66 M174.42 62.75 C176 76.6, 169.73 84.94, 153.5 83.66 M153.5 83.66 C106.16 84.42, 57.4 86.15, 20.92 83.66 M153.5 83.66 C116.59 84.14, 81.78 84.04, 20.92 83.66 M20.92 83.66 C6.04 85.29, 0.47 75.3, 0 62.75 M20.92 83.66 C9.21 84.85, 2.28 78.34, 0 62.75 M0 62.75 C0.23 53.63, -1.41 40.04, 0 20.92 M0 62.75 C0.48 47.62, -0.12 32.09, 0 20.92 M0 20.92 C-0.22 7.69, 8.15 -1.74, 20.92 0 M0 20.92 C1.17 5.38, 8.89 -2.12, 20.92 0" stroke="#1e1e1e" stroke-width="4" fill="none"></path></g><g transform="translate(789.8582954107285 204.58494596324704) rotate(0 71.1999603509903 25)"><text x="71.1999603509903" y="17.619999999999997" font-family="Virgil, Segoe UI Emoji" font-size="20px" fill="#1e1e1e" text-anchor="middle" style="white-space: pre;" direction="ltr" dominant-baseline="alphabetic">Reference</text><text x="71.1999603509903" y="42.62" font-family="Virgil, Segoe UI Emoji" font-size="20px" fill="#1e1e1e" text-anchor="middle" style="white-space: pre;" direction="ltr" dominant-baseline="alphabetic">+ index &amp; dict</text></g><g stroke-linecap="round" transform="translate(291.1703410082173 341.94236783824704) rotate(0 109.333984375 42.38449770473267)"><path d="M4.98 5.66 C4.98 5.66, 4.98 5.66, 4.98 5.66 M4.98 5.66 C4.98 5.66, 4.98 5.66, 4.98 5.66 M3.81 19.21 C6.71 13.78, 11.54 8.89, 16.27 4.87 M3.81 19.21 C7.36 14.75, 9.93 12.21, 16.27 4.87 M3.94 31.25 C11.19 24.65, 15.44 18.54, 26.9 4.83 M3.94 31.25 C12.16 20.78, 21.38 11.94, 26.9 4.83 M4.07 43.29 C14.93 31.77, 25.68 19, 37.53 4.8 M4.07 43.29 C14.04 33.71, 21.29 22.29, 37.53 4.8 M3.55 56.09 C17.23 43.52, 28.99 30.91, 48.16 4.77 M3.55 56.09 C21.22 35.33, 38.41 14.73, 48.16 4.77 M1.71 70.39 C13.67 54.24, 27.14 42.36, 58.79 4.73 M1.71 70.39 C13.49 56.18, 26.12 40.9, 58.79 4.73 M5.78 77.9 C28.53 49.59, 56.78 19.53, 69.42 4.7 M5.78 77.9 C21.08 59.8, 37.46 42.27, 69.42 4.7 M10.51 84.66 C23.9 66.56, 38.16 50.91, 80.05 4.66 M10.51 84.66 C37.48 52.22, 66.66 21.47, 80.05 4.66 M17.86 88.4 C42.86 58.37, 70.56 29.37, 90.68 4.63 M17.86 88.4 C34.45 69.77, 51.5 49.63, 90.68 4.63 M27.18 89.88 C55.84 56.48, 83.84 24.17, 101.31 4.59 M27.18 89.88 C48.07 66.43, 68.08 42.26, 101.31 4.59 M37.81 89.84 C57.88 64.7, 82.92 39.74, 111.94 4.56 M37.81 89.84 C63.59 60.84, 88.94 31.08, 111.94 4.56 M48.44 89.81 C75.59 56.3, 104.16 25.03, 121.92 5.28 M48.44 89.81 C74.34 59.23, 100.47 27.08, 121.92 5.28 M59.07 89.77 C87.53 58.46, 116.44 26.11, 132.55 5.24 M59.07 89.77 C84.77 61.04, 109.4 33.68, 132.55 5.24 M69.7 89.74 C98.14 59.36, 121.93 29.56, 143.18 5.21 M69.7 89.74 C97.54 55.64, 127.62 24.85, 143.18 5.21 M80.33 89.7 C97.58 71.99, 111.7 50.8, 153.81 5.18 M80.33 89.7 C99.48 65.69, 119.82 42.24, 153.81 5.18 M90.96 89.67 C105.93 72.79, 119.6 54.61, 164.44 5.14 M90.96 89.67 C113.01 65.13, 134.44 39.82, 164.44 5.14 M101.59 89.63 C117.19 69.82, 134.58 53.47, 175.07 5.11 M101.59 89.63 C127.13 60.04, 153.99 31.39, 175.07 5.11 M112.22 89.6 C134.62 62.6, 161.92 33.05, 185.7 5.07 M112.22 89.6 C131.47 69, 150.72 46.09, 185.7 5.07 M122.85 89.56 C143.16 65.81, 163.58 44.24, 199.61 1.26 M122.85 89.56 C141.37 67.16, 162.85 43.75, 199.61 1.26 M132.82 90.29 C155.3 62.71, 175.75 40.45, 208.92 2.74 M132.82 90.29 C154.91 66.9, 176.12 43.34, 208.92 2.74 M143.45 90.25 C157.67 72.57, 174.82 56.01, 214.96 7.99 M143.45 90.25 C159.24 70.7, 176.22 51.85, 214.96 7.99 M154.08 90.22 C175.73 62.35, 197.9 39.27, 218.38 16.25 M154.08 90.22 C176.8 64.05, 200.3 38.99, 218.38 16.25 M164.71 90.18 C182.44 65.62, 204.87 43.07, 218.51 28.3 M164.71 90.18 C175.84 75.6, 189.1 63.14, 218.51 28.3 M175.34 90.15 C186.62 77.23, 203.59 59.06, 218.64 40.34 M175.34 90.15 C189.57 73.01, 203.1 57.49, 218.64 40.34 M185.97 90.11 C196.33 78.83, 203.99 68.3, 218.78 52.38 M185.97 90.11 C196.39 77.97, 205.59 67.95, 218.78 52.38 M199.88 86.3 C204.29 80.32, 210.53 74.24, 218.91 64.42 M199.88 86.3 C204.8 81.18, 209.8 74.87, 218.91 64.42 M5.2 79.38 C5.2 79.38, 5.2 79.38, 5.2 79.38 M5.2 79.38 C5.2 79.38, 5.2 79.38, 5.2 79.38 M22.52 83.84 C17.23 77.06, 11.88 72.52, 2.14 66.13 M22.52 83.84 C17.91 78.53, 11.47 74.37, 2.14 66.13 M34.56 83.71 C24.01 71.97, 11.6 61.36, 2.11 55.5 M34.56 83.71 C25.63 76.81, 17.95 69.46, 2.11 55.5 M46.6 83.57 C27.4 66.85, 13.25 54.29, 2.07 44.87 M46.6 83.57 C32.5 70.31, 16.39 56.54, 2.07 44.87 M58.64 83.44 C38.75 66.91, 16.16 45.86, 2.04 34.24 M58.64 83.44 C46.49 73.5, 34.95 62.02, 2.04 34.24 M70.68 83.31 C53.53 65.99, 32.91 52.35, 2 23.61 M70.68 83.31 C49.78 65.46, 28 47.77, 2 23.61 M83.48 83.83 C61.78 62.17, 34.58 40.95, 2.72 13.63 M83.48 83.83 C61.09 64.81, 40.7 45.42, 2.72 13.63 M95.52 83.7 C72.78 64.64, 50.39 44.88, 4.95 4.97 M95.52 83.7 C66.21 58.97, 37.33 36, 4.95 4.97 M107.56 83.56 C76.65 56.53, 47.27 32.9, 12.47 0.9 M107.56 83.56 C85.18 63.83, 64.31 44.52, 12.47 0.9 M119.6 83.43 C96.22 64.23, 72.16 43.27, 22.24 -1.2 M119.6 83.43 C97.89 65.03, 76.32 46.91, 22.24 -1.2 M131.64 83.3 C92.09 49.32, 54.17 17.75, 34.28 -1.33 M131.64 83.3 C104.71 59.39, 76.53 35.75, 34.28 -1.33 M144.44 83.82 C118.86 63.02, 95.56 40.15, 46.32 -1.47 M144.44 83.82 C123.52 64.73, 101.77 46.18, 46.32 -1.47 M156.48 83.69 C124.58 56.16, 93.73 28.48, 59.12 -0.94 M156.48 83.69 C132.08 63.47, 109.13 41.39, 59.12 -0.94 M168.52 83.56 C149.14 67.16, 126.52 50.01, 71.16 -1.08 M168.52 83.56 C146.47 66.06, 125.58 47.24, 71.16 -1.08 M180.56 83.42 C150.49 54.53, 115.4 28.04, 83.2 -1.21 M180.56 83.42 C143.79 49.58, 103.74 16.18, 83.2 -1.21 M192.6 83.29 C154.95 52.82, 121.59 20.56, 95.24 -1.34 M192.6 83.29 C166.3 58.8, 137.51 36.47, 95.24 -1.34 M201.62 80.53 C175.82 60.23, 154.49 40.97, 107.28 -1.48 M201.62 80.53 C182.54 62.48, 163.51 47.39, 107.28 -1.48 M212.15 79.09 C180.04 55.68, 151.72 28.56, 120.08 -0.95 M212.15 79.09 C177.78 49.78, 143.15 20.6, 120.08 -0.95 M217.4 73.05 C188.8 48.07, 158.64 22.14, 132.12 -1.09 M217.4 73.05 C182.58 44.37, 148.85 14.82, 132.12 -1.09 M218.88 63.73 C194.17 42.32, 166.34 19.28, 144.16 -1.22 M218.88 63.73 C188.62 37.34, 159.94 11.82, 144.16 -1.22 M218.84 53.1 C200.31 35.97, 178.73 18.95, 156.2 -1.35 M218.84 53.1 C199.75 35.62, 179.63 19.46, 156.2 -1.35 M218.81 42.47 C204.51 29.74, 192.21 19.36, 168.24 -1.49 M218.81 42.47 C198.47 25.72, 179.81 9.14, 168.24 -1.49 M218.77 31.84 C209.24 26.5, 199.95 16.04, 181.04 -0.96 M218.77 31.84 C206.77 21.42, 195.49 10.81, 181.04 -0.96 M218.74 21.21 C214.69 17.97, 205.7 10.85, 193.08 -1.1 M218.74 21.21 C211.13 14.05, 204.11 7.43, 193.08 -1.1" stroke="#ffec99" stroke-width="1" fill="none"></path><path d="M21.19 0 C73.73 0.01, 127.76 -0.58, 197.48 0 M21.19 0 C60.27 0.7, 96.63 1.87, 197.48 0 M197.48 0 C213 -0.47, 218.81 7.55, 218.67 21.19 M197.48 0 C210.35 -1.65, 220.84 6.92, 218.67 21.19 M218.67 21.19 C219.06 34.26, 218.06 44.46, 218.67 63.58 M218.67 21.19 C217.92 31.91, 219.08 44.03, 218.67 63.58 M218.67 63.58 C217.87 75.85, 213.14 83.74, 197.48 84.77 M218.67 63.58 C218.09 76.95, 209.67 84.34, 197.48 84.77 M197.48 84.77 C141.13 83.1, 87.69 85.21, 21.19 84.77 M197.48 84.77 C126.67 82.18, 58.67 82.8, 21.19 84.77 M21.19 84.77 C6.72 86.72, -1.14 77.51, 0 63.58 M21.19 84.77 C6.45 84.62, 2.18 78.47, 0 63.58 M0 63.58 C-1.74 44.76, 0.12 28.7, 0 21.19 M0 63.58 C0.02 53.4, -0.78 43.21, 0 21.19 M0 21.19 C-0.55 8.06, 8.74 0.95, 21.19 0 M0 21.19 C0.75 7.83, 4.86 0.79, 21.19 0" stroke="#1e1e1e" stroke-width="2" fill="none"></path></g><g transform="translate(325.7243907087159 359.3268655429797) rotate(0 74.77993467450142 25)"><text x="74.77993467450142" y="17.619999999999997" font-family="Virgil, Segoe UI Emoji" font-size="20px" fill="#1e1e1e" text-anchor="middle" style="white-space: pre;" direction="ltr" dominant-baseline="alphabetic">GATK </text><text x="74.77993467450142" y="42.62" font-family="Virgil, Segoe UI Emoji" font-size="20px" fill="#1e1e1e" text-anchor="middle" style="white-space: pre;" direction="ltr" dominant-baseline="alphabetic">HaplotypeCaller</text></g><g stroke-linecap="round" transform="translate(313.78544267977986 490.34080533824704) rotate(0 87.20901993627399 41.830078125)"><path d="M20.92 0 C68.74 0.97, 113.08 2.59, 153.5 0 C166.35 -1.31, 174.25 6.32, 174.42 20.92 C172.52 34.83, 171.41 57.67, 174.42 62.75 C171.7 74.25, 167.3 82.67, 153.5 83.66 C126.4 84.38, 97.04 82.15, 20.92 83.66 C6.59 83.14, 0.94 78.84, 0 62.75 C-1.18 45.69, -2.83 34.39, 0 20.92 C2 3.42, 3.62 0.99, 20.92 0" stroke="none" stroke-width="0" fill="#a5d8ff"></path><path d="M20.92 0 C66.29 -0.96, 114.98 -1.31, 153.5 0 M20.92 0 C52.15 -0.3, 82.47 -0.88, 153.5 0 M153.5 0 C166.82 0.22, 176 8.68, 174.42 20.92 M153.5 0 C169.12 -0.36, 175.64 8.74, 174.42 20.92 M174.42 20.92 C172.87 37.16, 172.23 49.78, 174.42 62.75 M174.42 20.92 C175.08 32.33, 174.77 41.95, 174.42 62.75 M174.42 62.75 C176.27 74.88, 167.49 81.99, 153.5 83.66 M174.42 62.75 C172.65 77.61, 169.15 85.95, 153.5 83.66 M153.5 83.66 C126.01 85.16, 95.39 84.74, 20.92 83.66 M153.5 83.66 C111.67 83.47, 69.78 82.69, 20.92 83.66 M20.92 83.66 C7.37 85.15, 1.17 74.94, 0 62.75 M20.92 83.66 C7.73 85.59, -0.39 77.89, 0 62.75 M0 62.75 C1.36 53.92, -1.65 44.26, 0 20.92 M0 62.75 C-0.14 48.01, 0.16 32.6, 0 20.92 M0 20.92 C-1.53 7.76, 7.52 0.79, 20.92 0 M0 20.92 C-0.98 8.04, 8.83 -0.88, 20.92 0" stroke="#1e1e1e" stroke-width="2" fill="none"></path></g><g transform="translate(334.87448824128273 519.670883463247) rotate(0 66.11997437477112 12.5)"><text x="66.11997437477112" y="17.619999999999997" font-family="Virgil, Segoe UI Emoji" font-size="20px" fill="#1e1e1e" text-anchor="middle" style="white-space: pre;" direction="ltr" dominant-baseline="alphabetic">GVCF + index</text></g><g stroke-linecap="round"><g transform="translate(116.97655503852786 128.67869596324704) rotate(0 79.43591774469584 126.99154703200844)"><path d="M-1.11 -0.86 C0.32 35.35, -18.94 175.22, 8.77 217.61 C36.48 260, 138.85 247.33, 165.18 253.49 M0.51 1.3 C1.77 37.69, -19.37 176.91, 7.92 219.17 C35.21 261.42, 138.23 249.27, 164.23 254.85" stroke="#1e1e1e" stroke-width="2" fill="none"></path></g><g transform="translate(116.97655503852786 128.67869596324704) rotate(0 79.43591774469584 126.99154703200844)"><path d="M140.31 262.11 C146.46 260.33, 155.57 257.13, 164.23 254.85 M140.31 262.11 C147.33 259.38, 154.74 257.72, 164.23 254.85" stroke="#1e1e1e" stroke-width="2" fill="none"></path></g><g transform="translate(116.97655503852786 128.67869596324704) rotate(0 79.43591774469584 126.99154703200844)"><path d="M141.24 245.03 C147.14 248.68, 155.95 250.91, 164.23 254.85 M141.24 245.03 C148.14 247.55, 155.27 251.12, 164.23 254.85" stroke="#1e1e1e" stroke-width="2" fill="none"></path></g></g><mask></mask><g stroke-linecap="round"><g transform="translate(400.26450742638235 126.15760381316147) rotate(0 0.1301044309677195 24.439764024615755)"><path d="M0.11 0.11 C0.21 8.11, 0.77 40.46, 0.76 48.48 M-0.5 -0.31 C-0.46 8.02, 0.21 41.03, 0.49 49.19" stroke="#1e1e1e" stroke-width="2" fill="none"></path></g><g transform="translate(400.26450742638235 126.15760381316147) rotate(0 0.1301044309677195 24.439764024615755)"><path d="M-8.38 26.65 C-5.19 34.57, -2.43 40.67, 0.49 49.19 M-8.38 26.65 C-5.76 32.15, -4.23 38.16, 0.49 49.19" stroke="#1e1e1e" stroke-width="2" fill="none"></path></g><g transform="translate(400.26450742638235 126.15760381316147) rotate(0 0.1301044309677195 24.439764024615755)"><path d="M8.18 26.22 C5.97 34.3, 3.32 40.54, 0.49 49.19 M8.18 26.22 C6.55 31.88, 3.83 38.01, 0.49 49.19" stroke="#1e1e1e" stroke-width="2" fill="none"></path></g></g><mask></mask><g stroke-linecap="round"><g transform="translate(400.79651421561266 282.2131943987241) rotate(0 0.22226737518252548 24.26726710375675)"><path d="M-0.53 -0.42 C-0.38 7.69, 0.8 40.76, 0.98 48.95 M0.19 0.55 C0.32 8.5, 0.82 40.37, 0.82 48.25" stroke="#1e1e1e" stroke-width="2" fill="none"></path></g><g transform="translate(400.79651421561266 282.2131943987241) rotate(0 0.22226737518252548 24.26726710375675)"><path d="M-7.67 25.57 C-5.74 33.61, -1.41 39.8, 0.82 48.25 M-7.67 25.57 C-5.05 33.11, -1.41 41.5, 0.82 48.25" stroke="#1e1e1e" stroke-width="2" fill="none"></path></g><g transform="translate(400.79651421561266 282.2131943987241) rotate(0 0.22226737518252548 24.26726710375675)"><path d="M8.89 25.41 C5.69 33.42, 4.88 39.67, 0.82 48.25 M8.89 25.41 C5.63 33.07, 3.38 41.52, 0.82 48.25" stroke="#1e1e1e" stroke-width="2" fill="none"></path></g></g><mask></mask><g stroke-linecap="round"><g transform="translate(400.93349365228926 432.98312841639597) rotate(0 0.3785265712478463 24.535335349170907)"><path d="M-0.13 0.24 C0.05 8.23, 0.78 40.43, 0.89 48.47 M0.8 -0.11 C0.96 8.21, 0.78 40.99, 0.69 49.19" stroke="#1e1e1e" stroke-width="2" fill="none"></path></g><g transform="translate(400.93349365228926 432.98312841639597) rotate(0 0.3785265712478463 24.535335349170907)"><path d="M-7.42 26.36 C-4.73 33.24, -2.96 38.64, 0.69 49.19 M-7.42 26.36 C-5.36 33.54, -2.44 40.5, 0.69 49.19" stroke="#1e1e1e" stroke-width="2" fill="none"></path></g><g transform="translate(400.93349365228926 432.98312841639597) rotate(0 0.3785265712478463 24.535335349170907)"><path d="M9.15 26.49 C7.44 33.31, 4.81 38.67, 0.69 49.19 M9.15 26.49 C6.19 33.56, 4.1 40.48, 0.69 49.19" stroke="#1e1e1e" stroke-width="2" fill="none"></path></g></g><mask></mask><g stroke-linecap="round"><g transform="translate(637.0531381216375 279.855213477077) rotate(0 -57.891527346304485 46.60797353495241)"><path d="M-0.48 -0.87 C-3.73 11.25, 1.07 58.23, -18.35 73.84 C-37.76 89.44, -100.55 89.67, -116.98 92.77 M1.47 1.29 C-2.06 13.55, 0.33 56.53, -19.46 71.99 C-39.24 87.46, -101.14 90.51, -117.25 94.08" stroke="#1e1e1e" stroke-width="2" fill="none"></path></g><g transform="translate(637.0531381216375 279.855213477077) rotate(0 -57.891527346304485 46.60797353495241)"><path d="M-95.17 82.36 C-105.19 86.36, -111.55 93.06, -117.25 94.08 M-95.17 82.36 C-101.31 85.02, -108.77 88.37, -117.25 94.08" stroke="#1e1e1e" stroke-width="2" fill="none"></path></g><g transform="translate(637.0531381216375 279.855213477077) rotate(0 -57.891527346304485 46.60797353495241)"><path d="M-92.8 99.3 C-103.91 96.63, -111.21 96.67, -117.25 94.08 M-92.8 99.3 C-99.8 96.89, -107.97 95.16, -117.25 94.08" stroke="#1e1e1e" stroke-width="2" fill="none"></path></g></g><mask></mask><g stroke-linecap="round"><g transform="translate(845.0587329975301 284.21712113042065) rotate(0 -162.67930168177395 56.56735605023431)"><path d="M0.06 -0.75 C-6.92 15.88, 11.27 81.89, -42.9 100.71 C-97.06 119.54, -277.98 110.37, -324.93 112.22 M-1.36 1.47 C-7.87 18.16, 13.49 83.24, -40.52 101.86 C-94.53 120.48, -278.19 111.45, -325.42 113.19" stroke="#1e1e1e" stroke-width="2" fill="none"></path></g><g transform="translate(845.0587329975301 284.21712113042065) rotate(0 -162.67930168177395 56.56735605023431)"><path d="M-301.89 104.74 C-308.21 105.52, -313.34 109.32, -325.42 113.19 M-301.89 104.74 C-307.42 106.79, -313.09 109.26, -325.42 113.19" stroke="#1e1e1e" stroke-width="2" fill="none"></path></g><g transform="translate(845.0587329975301 284.21712113042065) rotate(0 -162.67930168177395 56.56735605023431)"><path d="M-301.97 121.84 C-308.4 118.89, -313.51 118.96, -325.42 113.19 M-301.97 121.84 C-307.6 119.7, -313.25 117.99, -325.42 113.19" stroke="#1e1e1e" stroke-width="2" fill="none"></path></g></g><mask></mask><g stroke-linecap="round"><g transform="translate(216.7744256961314 75.55969650441648) rotate(0 29.336689349718768 0.02151378544505178)"><path d="M0.67 1.02 C10.56 1.31, 49.51 0.86, 59.12 0.69 M-0.44 0.51 C9.28 0.55, 47.8 -1.21, 57.97 -1.07" stroke="#1e1e1e" stroke-width="2" fill="none"></path></g><g transform="translate(216.7744256961314 75.55969650441648) rotate(0 29.336689349718768 0.02151378544505178)"><path d="M34.65 7.92 C42.96 4.66, 48.94 0.78, 57.97 -1.07 M34.65 7.92 C41.47 5.72, 48.8 3.07, 57.97 -1.07" stroke="#1e1e1e" stroke-width="2" fill="none"></path></g><g transform="translate(216.7744256961314 75.55969650441648) rotate(0 29.336689349718768 0.02151378544505178)"><path d="M34.32 -9.17 C42.58 -7.65, 48.65 -6.74, 57.97 -1.07 M34.32 -9.17 C41.4 -6.21, 48.82 -3.71, 57.97 -1.07" stroke="#1e1e1e" stroke-width="2" fill="none"></path></g></g><mask></mask><g transform="translate(427.28441033483523 608.4006578107978) rotate(0 119.65793700516224 17.5)"><text x="0" y="24.668" font-family="Excalifont, Segoe UI Emoji" font-size="28px" fill="#1e1e1e" text-anchor="start" style="white-space: pre;" direction="ltr" dominant-baseline="alphabetic">x multiple samples</text></g><g stroke-linecap="round" transform="translate(309.8036672251775 701.7855233736506) rotate(0 87.20901993627393 41.830078125)"><path d="M20.92 0 C58.69 -0.58, 102.4 3.62, 153.5 0 C169.35 0.54, 174.25 6.75, 174.42 20.92 C174.06 31.82, 171.76 49.31, 174.42 62.75 C171.44 77.69, 166.04 81.2, 153.5 83.66 C118.99 87.98, 79.82 83.96, 20.92 83.66 C8.45 86.73, 3.02 73.53, 0 62.75 C2.97 49.92, 2.8 39.79, 0 20.92 C2.09 5.73, 5.11 -3.09, 20.92 0" stroke="none" stroke-width="0" fill="#a5d8ff"></path><path d="M20.92 0 C64.26 0.26, 107.25 1.48, 153.5 0 M20.92 0 C58.08 -0.03, 95.3 1.16, 153.5 0 M153.5 0 C165.54 -0.45, 175.12 6.79, 174.42 20.92 M153.5 0 C168.36 2.1, 175.35 8.33, 174.42 20.92 M174.42 20.92 C172.6 37.38, 175.58 53.65, 174.42 62.75 M174.42 20.92 C174.92 30.57, 173.08 37.72, 174.42 62.75 M174.42 62.75 C173.67 76.16, 166.73 84.44, 153.5 83.66 M174.42 62.75 C175.37 76.92, 167.86 84.65, 153.5 83.66 M153.5 83.66 C121.41 82.01, 85.62 83, 20.92 83.66 M153.5 83.66 C106.94 82.48, 59.27 81.53, 20.92 83.66 M20.92 83.66 C6.23 85.56, -0.54 75.11, 0 62.75 M20.92 83.66 C8.06 81.57, 1.99 76.01, 0 62.75 M0 62.75 C0.44 47.26, -0.69 35.54, 0 20.92 M0 62.75 C-0.79 49.14, -0.63 36.4, 0 20.92 M0 20.92 C-1.29 7.53, 5.29 0.82, 20.92 0 M0 20.92 C-1.61 6.26, 7.51 -0.97, 20.92 0" stroke="#1e1e1e" stroke-width="2" fill="none"></path></g><g transform="translate(330.89271278668036 731.1156014986506) rotate(0 66.11997437477112 12.5)"><text x="66.11997437477112" y="17.619999999999997" font-family="Virgil, Segoe UI Emoji" font-size="20px" fill="#1e1e1e" text-anchor="middle" style="white-space: pre;" direction="ltr" dominant-baseline="alphabetic">GVCF + index</text></g><g stroke-linecap="round" transform="translate(329.7791772392834 724.7337375089094) rotate(0 87.20901993627399 41.830078125)"><path d="M20.92 0 C55.52 0.8, 88.18 1.15, 153.5 0 C167.35 -1.13, 177.72 4.94, 174.42 20.92 C170.86 35.06, 171.41 42.26, 174.42 62.75 C177.85 74.7, 163.85 83.7, 153.5 83.66 C108.99 84.99, 69.84 84.12, 20.92 83.66 C4.37 80.89, -1.07 78.6, 0 62.75 C0.31 52.33, 1.59 32.15, 0 20.92 C1.21 5.86, 6.63 -2.05, 20.92 0" stroke="none" stroke-width="0" fill="#a5d8ff"></path><path d="M20.92 0 C72.72 -1.91, 119.26 0.87, 153.5 0 M20.92 0 C71.72 0.38, 124.45 1.23, 153.5 0 M153.5 0 C167.56 0.83, 172.5 5.96, 174.42 20.92 M153.5 0 C169.43 -0.47, 172.21 5.93, 174.42 20.92 M174.42 20.92 C175.54 31.43, 174.3 42.35, 174.42 62.75 M174.42 20.92 C173.52 38.1, 174.4 54.12, 174.42 62.75 M174.42 62.75 C175.29 78.49, 169.19 84.04, 153.5 83.66 M174.42 62.75 C172.58 76.82, 165.38 85.96, 153.5 83.66 M153.5 83.66 C125.14 82.91, 101.76 83.92, 20.92 83.66 M153.5 83.66 C108.92 83.72, 63.04 82.71, 20.92 83.66 M20.92 83.66 C8.68 81.83, 1.34 75.51, 0 62.75 M20.92 83.66 C5.29 82.03, -1.63 74.91, 0 62.75 M0 62.75 C0.15 54.24, 0.39 42.85, 0 20.92 M0 62.75 C-0.78 47.89, 0.98 32.12, 0 20.92 M0 20.92 C-1.82 5.83, 8.02 -1.78, 20.92 0 M0 20.92 C-2.11 8.96, 7.29 -0.21, 20.92 0" stroke="#1e1e1e" stroke-width="2" fill="none"></path></g><g transform="translate(350.86822280078627 754.0638156339094) rotate(0 66.11997437477112 12.5)"><text x="66.11997437477112" y="17.619999999999997" font-family="Virgil, Segoe UI Emoji" font-size="20px" fill="#1e1e1e" text-anchor="middle" style="white-space: pre;" direction="ltr" dominant-baseline="alphabetic">GVCF + index</text></g><g stroke-linecap="round" transform="translate(352.6052981695668 747.2838216279436) rotate(0 87.20901993627399 41.830078125)"><path d="M20.92 0 C51.37 -4.83, 75.92 -5.19, 153.5 0 C168.51 2.71, 175.59 8.27, 174.42 20.92 C171.42 33.98, 171.26 56.26, 174.42 62.75 C173.64 73.12, 164.21 86.11, 153.5 83.66 C114.93 79.59, 73.66 82.22, 20.92 83.66 C9.61 84.72, 1.14 77.82, 0 62.75 C2.59 49.53, -0.9 41.21, 0 20.92 C-2.97 7.73, 10.16 2.4, 20.92 0" stroke="none" stroke-width="0" fill="#a5d8ff"></path><path d="M20.92 0 C58.25 -0.03, 96.84 1.05, 153.5 0 M20.92 0 C69.73 -0.06, 119.5 1.16, 153.5 0 M153.5 0 C167.61 -1.83, 173.64 5.38, 174.42 20.92 M153.5 0 C169.29 -1.71, 174.13 8.35, 174.42 20.92 M174.42 20.92 C172.95 28.65, 175.59 39.4, 174.42 62.75 M174.42 20.92 C173.84 28.79, 173.76 37.06, 174.42 62.75 M174.42 62.75 C172.9 75.42, 168.98 83.87, 153.5 83.66 M174.42 62.75 C172.95 77.56, 167.33 83.19, 153.5 83.66 M153.5 83.66 C101.39 84.56, 53.19 84.62, 20.92 83.66 M153.5 83.66 C109.18 82.04, 66.1 82.77, 20.92 83.66 M20.92 83.66 C6.5 84.64, -1.26 78.11, 0 62.75 M20.92 83.66 C7.3 84.48, -1.18 76.68, 0 62.75 M0 62.75 C1.55 47.13, 1.73 32.28, 0 20.92 M0 62.75 C0.85 47.49, -0.82 31.03, 0 20.92 M0 20.92 C1.22 7.89, 8.93 1.49, 20.92 0 M0 20.92 C-0.23 5.92, 7.08 0.23, 20.92 0" stroke="#1e1e1e" stroke-width="2" fill="none"></path></g><g transform="translate(373.6943437310697 776.6138997529436) rotate(0 66.11997437477112 12.5)"><text x="66.11997437477112" y="17.619999999999997" font-family="Virgil, Segoe UI Emoji" font-size="20px" fill="#1e1e1e" text-anchor="middle" style="white-space: pre;" direction="ltr" dominant-baseline="alphabetic">GVCF + index</text></g><g stroke-linecap="round"><g transform="translate(402.82760984364415 591.8180966675825) rotate(0 0.05654684182462688 45.69977301972045)"><path d="M-1.18 -0.65 C-1.46 14.7, -1.24 76.63, -0.85 92.05 M0.4 1.63 C0.42 16.63, 1.31 75.6, 1.42 90.3" stroke="#1e1e1e" stroke-width="2" fill="none"></path></g><g transform="translate(402.82760984364415 591.8180966675825) rotate(0 0.05654684182462688 45.69977301972045)"><path d="M-7.4 66.91 C-5.2 74.3, 0.36 86.41, 1.42 90.3 M-7.4 66.91 C-3.5 74.59, -1.45 82.2, 1.42 90.3" stroke="#1e1e1e" stroke-width="2" fill="none"></path></g><g transform="translate(402.82760984364415 591.8180966675825) rotate(0 0.05654684182462688 45.69977301972045)"><path d="M9.7 66.71 C5.53 74.01, 4.72 86.19, 1.42 90.3 M9.7 66.71 C7.69 74.51, 3.83 82.19, 1.42 90.3" stroke="#1e1e1e" stroke-width="2" fill="none"></path></g></g><mask></mask><g stroke-linecap="round" transform="translate(621.1891155157545 882.4930887867315) rotate(0 87.20901993627393 41.830078125)"><path d="M20.92 0 C74.98 1.79, 122.94 -3.74, 153.5 0 C170.41 -2.27, 177.04 3.94, 174.42 20.92 C176.53 33.79, 175.84 47.25, 174.42 62.75 C172.08 80.02, 169.18 85.9, 153.5 83.66 C104.35 83.84, 47.82 85.52, 20.92 83.66 C7.25 80.53, -1.55 76.12, 0 62.75 C-1.77 49.72, -1.33 36.28, 0 20.92 C-2.6 5.76, 3.4 3.05, 20.92 0" stroke="none" stroke-width="0" fill="#a5d8ff"></path><path d="M20.92 0 C48.68 0.33, 78.58 0.92, 153.5 0 M20.92 0 C64.13 -0.59, 105.41 -0.37, 153.5 0 M153.5 0 C167.62 1.98, 173.94 6.99, 174.42 20.92 M153.5 0 C168.54 0, 173.37 7.24, 174.42 20.92 M174.42 20.92 C174.15 36.56, 175.23 52.83, 174.42 62.75 M174.42 20.92 C173.83 37.02, 173.76 54.83, 174.42 62.75 M174.42 62.75 C173.34 77.92, 168.24 84.34, 153.5 83.66 M174.42 62.75 C173.79 75.88, 165.24 82.26, 153.5 83.66 M153.5 83.66 C113.72 83.16, 74.1 81.44, 20.92 83.66 M153.5 83.66 C116.31 83.38, 78.19 82.45, 20.92 83.66 M20.92 83.66 C5.42 81.93, 1.8 78.04, 0 62.75 M20.92 83.66 C7.46 84.87, 1.81 76.52, 0 62.75 M0 62.75 C-1.74 46.05, 1.7 30.7, 0 20.92 M0 62.75 C-0.46 52, 0.11 39.37, 0 20.92 M0 20.92 C-1.91 5.08, 8.2 -1.62, 20.92 0 M0 20.92 C-1.09 5.51, 7.54 2.16, 20.92 0" stroke="#1e1e1e" stroke-width="2" fill="none"></path></g><g transform="translate(641.2581854895317 899.3231669117315) rotate(0 67.1399499624967 25)"><text x="67.13994996249676" y="17.619999999999997" font-family="Virgil, Segoe UI Emoji" font-size="20px" fill="#1e1e1e" text-anchor="middle" style="white-space: pre;" direction="ltr" dominant-baseline="alphabetic">GenomicsDB</text><text x="67.13994996249676" y="42.62" font-family="Virgil, Segoe UI Emoji" font-size="20px" fill="#1e1e1e" text-anchor="middle" style="white-space: pre;" direction="ltr" dominant-baseline="alphabetic">variant store</text></g><g stroke-linecap="round" transform="translate(601.2405951657298 722.6037647004479) rotate(0 109.33398437499994 42.50000000000006)"><path d="M3.19 8.07 C3.19 8.07, 3.19 8.07, 3.19 8.07 M3.19 8.07 C3.19 8.07, 3.19 8.07, 3.19 8.07 M0.7 23.13 C9.2 15.6, 15.37 4.5, 20.38 0.49 M0.7 23.13 C9.09 15.65, 14.93 5.94, 20.38 0.49 M0.83 35.17 C9.94 23.22, 20.55 10.38, 31.01 0.46 M0.83 35.17 C11.61 21.68, 22.48 9.41, 31.01 0.46 M0.96 47.21 C8.68 38.49, 20.53 28.27, 41.64 0.42 M0.96 47.21 C15.81 31.63, 29.92 14.44, 41.64 0.42 M1.1 59.25 C17.85 43.23, 29.15 26.51, 52.27 0.39 M1.1 59.25 C14.96 41.69, 30.26 24.92, 52.27 0.39 M1.23 71.29 C21 51.73, 38.18 31.31, 62.9 0.35 M1.23 71.29 C14.26 55.37, 27.83 39.55, 62.9 0.35 M5.3 78.81 C21.6 56.94, 40.2 38.02, 73.53 0.32 M5.3 78.81 C20.31 63.21, 33.84 45.65, 73.53 0.32 M11.99 83.3 C32.98 59.59, 52.82 34.5, 84.16 0.28 M11.99 83.3 C40.38 52.09, 66.1 21.48, 84.16 0.28 M20.65 85.53 C49.15 53.02, 76.23 21.62, 94.79 0.25 M20.65 85.53 C38.78 66.77, 55.2 47.97, 94.79 0.25 M31.28 85.5 C52.1 61.66, 71.15 38.05, 105.42 0.21 M31.28 85.5 C49.36 64.86, 66.1 44.79, 105.42 0.21 M41.91 85.46 C59.5 64.95, 76.9 46.65, 116.05 0.18 M41.91 85.46 C55.86 67.61, 73.17 50.69, 116.05 0.18 M52.54 85.43 C67.62 68.78, 81.22 50.64, 126.68 0.14 M52.54 85.43 C72.64 60.55, 93.1 36.74, 126.68 0.14 M63.17 85.39 C90.84 53.97, 114 23.03, 137.31 0.11 M63.17 85.39 C84.27 61.64, 104.01 40.62, 137.31 0.11 M73.8 85.36 C102.06 51.99, 127.95 21.56, 147.94 0.08 M73.8 85.36 C89.63 65.62, 106.64 46.77, 147.94 0.08 M84.44 85.32 C107.02 62.7, 124.1 38.05, 157.91 0.8 M84.44 85.32 C103.56 63.47, 122.22 40.88, 157.91 0.8 M95.07 85.29 C120.19 54.95, 149.02 22.39, 168.54 0.76 M95.07 85.29 C115.89 63.61, 133.96 40.44, 168.54 0.76 M105.7 85.25 C127.83 64.13, 147.12 41.77, 179.17 0.73 M105.7 85.25 C126.4 60.73, 149.84 34.34, 179.17 0.73 M116.33 85.22 C146.58 52.53, 174.42 16.87, 189.8 0.69 M116.33 85.22 C144.29 52.41, 172.6 18.85, 189.8 0.69 M126.3 85.94 C143.64 68.1, 158.51 48.37, 200.43 0.66 M126.3 85.94 C143.71 64.03, 163.79 43.06, 200.43 0.66 M136.93 85.91 C153.85 63.72, 174.2 44.59, 209.1 2.89 M136.93 85.91 C158.48 61.45, 181.4 35.55, 209.1 2.89 M147.56 85.87 C173.7 55.4, 197.02 29.35, 215.13 8.14 M147.56 85.87 C161.02 68.91, 175.59 53.52, 215.13 8.14 M158.19 85.84 C168.24 70.82, 183.69 56.82, 218.55 16.4 M158.19 85.84 C174.73 65.23, 193.27 45.45, 218.55 16.4 M168.82 85.8 C185.87 63.76, 202.3 46.96, 218.68 28.44 M168.82 85.8 C179.46 73.51, 192.52 59.2, 218.68 28.44 M179.45 85.77 C190.61 72.66, 206.45 57.46, 218.81 40.49 M179.45 85.77 C192.92 70.21, 207.11 54.18, 218.81 40.49 M190.08 85.73 C198.2 73.84, 208.18 63.97, 218.95 52.53 M190.08 85.73 C197.67 78.3, 203.53 70.84, 218.95 52.53 M201.37 84.94 C205.31 78.72, 212.46 72.78, 219.08 64.57 M201.37 84.94 C206.3 79.24, 211.3 74.15, 219.08 64.57 M3.31 76.98 C3.31 76.98, 3.31 76.98, 3.31 76.98 M3.31 76.98 C3.31 76.98, 3.31 76.98, 3.31 76.98 M24.41 84.72 C16.14 77.22, 9.06 71.15, 1.01 64.38 M24.41 84.72 C17.4 77.45, 9.32 70.8, 1.01 64.38 M36.45 84.58 C23.62 75.72, 14.4 65.82, 0.98 53.75 M36.45 84.58 C22.61 73.43, 9.55 61.22, 0.98 53.75 M49.24 85.11 C36.91 76.9, 25.77 63.94, 0.94 43.12 M49.24 85.11 C38.58 75.35, 26.76 66.03, 0.94 43.12 M61.28 84.97 C45.56 70.52, 31.62 58.33, 0.91 32.49 M61.28 84.97 C43.63 70.51, 27.31 56.51, 0.91 32.49 M73.32 84.84 C57.98 71.07, 39.38 57.26, 0.87 21.86 M73.32 84.84 C51.15 64.94, 28.53 45.35, 0.87 21.86 M85.37 84.71 C59.54 60.07, 29.64 36.31, 1.59 11.89 M85.37 84.71 C69.05 70.78, 52.07 55.47, 1.59 11.89 M97.41 84.58 C75.18 61.29, 50.03 40.9, 6.09 5.19 M97.41 84.58 C68.9 59.27, 40.63 35.79, 6.09 5.19 M110.2 85.1 C86.29 63.05, 59.35 42.63, 13.6 1.12 M110.2 85.1 C83.15 62.98, 56 37.73, 13.6 1.12 M122.24 84.96 C101.11 68.93, 82.39 48.65, 24.13 -0.32 M122.24 84.96 C83.72 50.8, 43.57 16.64, 24.13 -0.32 M134.28 84.83 C110.29 63.27, 86.4 39.57, 36.93 0.2 M134.28 84.83 C96.72 52.21, 61.13 20.4, 36.93 0.2 M146.32 84.7 C109.62 53.9, 72.39 22.66, 48.97 0.07 M146.32 84.7 C113.81 55.38, 80.25 27.21, 48.97 0.07 M158.37 84.57 C125.31 57.48, 93.18 30.15, 61.01 -0.07 M158.37 84.57 C120.42 54.52, 83.94 21.34, 61.01 -0.07 M171.16 85.09 C145.72 61.63, 123.21 42.14, 73.05 -0.2 M171.16 85.09 C137.43 55.61, 101.88 25.18, 73.05 -0.2 M183.2 84.96 C145.67 49.54, 106.92 17.04, 85.09 -0.33 M183.2 84.96 C154.65 62.05, 128.51 38.78, 85.09 -0.33 M195.24 84.82 C161.23 56.8, 128.73 28.35, 97.89 0.19 M195.24 84.82 C170.36 63.06, 147.09 42.1, 97.89 0.19 M205.02 82.72 C173.15 55.68, 139.64 26.33, 109.93 0.06 M205.02 82.72 C173.85 56.24, 143.15 30.08, 109.93 0.06 M212.53 78.65 C181.48 52.12, 155.14 28.47, 121.97 -0.08 M212.53 78.65 C182.23 51.36, 152.83 25.13, 121.97 -0.08 M217.78 72.61 C200.49 55.66, 185.47 42.33, 134.01 -0.21 M217.78 72.61 C195.92 53.05, 173.66 34.21, 134.01 -0.21 M219.26 63.3 C195.23 43.48, 174.79 23.31, 146.05 -0.34 M219.26 63.3 C200.07 46.72, 182.72 30.56, 146.05 -0.34 M219.22 52.67 C199.41 33.68, 177.66 15.95, 158.84 0.18 M219.22 52.67 C200.54 36.69, 182.59 21.51, 158.84 0.18 M219.19 42.04 C201.88 25.34, 183.52 10.43, 170.89 0.05 M219.19 42.04 C201.94 27.38, 184.09 12.22, 170.89 0.05 M219.15 31.41 C209.22 22.01, 199.18 13.54, 182.93 -0.09 M219.15 31.41 C207.47 20.24, 194.64 9.47, 182.93 -0.09 M219.12 20.78 C209.31 14.51, 201.42 6.28, 194.97 -0.22 M219.12 20.78 C210.42 13.14, 203.82 5.72, 194.97 -0.22" stroke="#ffec99" stroke-width="1" fill="none"></path><path d="M21.25 0 C61.3 2.45, 101.11 1.53, 197.42 0 M21.25 0 C88.34 0.59, 155.78 0.58, 197.42 0 M197.42 0 C212.87 1.03, 220.5 5.2, 218.67 21.25 M197.42 0 C213.54 -1.24, 219.99 8.86, 218.67 21.25 M218.67 21.25 C218.87 39.06, 220.77 51.52, 218.67 63.75 M218.67 21.25 C219.01 37.59, 219.39 53.78, 218.67 63.75 M218.67 63.75 C218.41 77.27, 210.33 84.46, 197.42 85 M218.67 63.75 C217.01 75.86, 209.94 84.41, 197.42 85 M197.42 85 C147.64 88.18, 94.5 86.46, 21.25 85 M197.42 85 C140.4 84.1, 84.98 83.95, 21.25 85 M21.25 85 C5.77 84.55, 0.77 77.32, 0 63.75 M21.25 85 C6.09 87.09, 2.08 77.82, 0 63.75 M0 63.75 C0.29 49.19, -0.2 33.62, 0 21.25 M0 63.75 C0.58 47.4, -0.38 32.13, 0 21.25 M0 21.25 C-1.74 7.65, 8.56 -0.88, 21.25 0 M0 21.25 C1.8 8.22, 5.68 2.28, 21.25 0" stroke="#1e1e1e" stroke-width="2" fill="none"></path></g><g transform="translate(620.7646582760814 740.1037647004479) rotate(0 89.80992126464838 25)"><text x="89.80992126464844" y="17.619999999999997" font-family="Virgil, Segoe UI Emoji" font-size="20px" fill="#1e1e1e" text-anchor="middle" style="white-space: pre;" direction="ltr" dominant-baseline="alphabetic">GATK </text><text x="89.80992126464844" y="42.62" font-family="Virgil, Segoe UI Emoji" font-size="20px" fill="#1e1e1e" text-anchor="middle" style="white-space: pre;" direction="ltr" dominant-baseline="alphabetic">GenomicsDBImport</text></g><g stroke-linecap="round"><g transform="translate(543.183165362838 764.239098919755) rotate(0 19.898706537638873 0.9641304987845842)"><path d="M0.28 0.53 C7.03 0.75, 33.38 0.9, 40.04 0.87 M-0.24 0.33 C6.47 0.69, 32.84 1.53, 39.54 1.6" stroke="#1e1e1e" stroke-width="2" fill="none"></path></g><g transform="translate(543.183165362838 764.239098919755) rotate(0 19.898706537638873 0.9641304987845842)"><path d="M20.52 8.03 C25.57 6.38, 28.76 5.4, 39.54 1.6 M20.52 8.03 C24.54 6.72, 28.93 5.18, 39.54 1.6" stroke="#1e1e1e" stroke-width="2" fill="none"></path></g><g transform="translate(543.183165362838 764.239098919755) rotate(0 19.898706537638873 0.9641304987845842)"><path d="M20.83 -5.7 C25.77 -4.42, 28.89 -2.46, 39.54 1.6 M20.83 -5.7 C24.76 -4.03, 29.09 -2.59, 39.54 1.6" stroke="#1e1e1e" stroke-width="2" fill="none"></path></g></g><mask></mask><g stroke-linecap="round"><g transform="translate(708.0635290596329 820.5643813804256) rotate(0 0.012863403921187455 23.977137729086053)"><path d="M0.23 0.03 C0.27 8.09, 0.24 39.86, 0.36 47.94 M-0.32 -0.43 C-0.36 7.71, -0.32 40.12, -0.12 48.38" stroke="#1e1e1e" stroke-width="2" fill="none"></path></g><g transform="translate(708.0635290596329 820.5643813804256) rotate(0 0.012863403921187455 23.977137729086053)"><path d="M-8.65 25.71 C-6 32.63, -4.31 40.84, -0.12 48.38 M-8.65 25.71 C-5.78 32.42, -3.77 39.84, -0.12 48.38" stroke="#1e1e1e" stroke-width="2" fill="none"></path></g><g transform="translate(708.0635290596329 820.5643813804256) rotate(0 0.012863403921187455 23.977137729086053)"><path d="M7.91 25.53 C5.38 32.54, 1.89 40.8, -0.12 48.38 M7.91 25.53 C5.7 32.29, 2.61 39.77, -0.12 48.38" stroke="#1e1e1e" stroke-width="2" fill="none"></path></g></g><mask></mask><g stroke-linecap="round"><g transform="translate(878.0993942008804 282.8571356518237) rotate(0 -20.347661301520816 392.067855342782)"><path d="M1.02 -0.69 C1.06 110.71, 7.5 538.43, 0.11 669.2 C-7.27 799.98, -36.33 764.54, -43.29 783.93 M0.09 1.56 C0.08 112.57, 7.1 537.04, -0.31 667.58 C-7.72 798.12, -36.99 765.51, -44.35 784.82" stroke="#1e1e1e" stroke-width="2" fill="none"></path></g><g transform="translate(878.0993942008804 282.8571356518237) rotate(0 -20.347661301520816 392.067855342782)"><path d="M-31.44 763.42 C-36.16 771.36, -37.15 774.91, -44.35 784.82 M-31.44 763.42 C-33.65 768.21, -36.7 772.91, -44.35 784.82" stroke="#1e1e1e" stroke-width="2" fill="none"></path></g><g transform="translate(878.0993942008804 282.8571356518237) rotate(0 -20.347661301520816 392.067855342782)"><path d="M-20.7 776.73 C-28.6 780.93, -32.68 780.65, -44.35 784.82 M-20.7 776.73 C-25.53 778.51, -31.06 780.11, -44.35 784.82" stroke="#1e1e1e" stroke-width="2" fill="none"></path></g></g><mask></mask><g stroke-linecap="round" transform="translate(600.1364479207297 1034.6328013487562) rotate(0 109.33398437499994 42.5)"><path d="M3.19 8.07 C3.19 8.07, 3.19 8.07, 3.19 8.07 M3.19 8.07 C3.19 8.07, 3.19 8.07, 3.19 8.07 M0.7 23.13 C6.93 17.22, 12.55 9.53, 20.38 0.49 M0.7 23.13 C6.7 15.81, 14.12 7.18, 20.38 0.49 M0.83 35.17 C12.23 25.84, 18.26 14.14, 31.01 0.46 M0.83 35.17 C8.28 25.35, 15.71 17.53, 31.01 0.46 M0.96 47.21 C15.47 30.88, 30.34 13.94, 41.64 0.42 M0.96 47.21 C15.55 30.82, 28.35 13.62, 41.64 0.42 M1.1 59.25 C18.27 41.21, 35.19 21.42, 52.27 0.39 M1.1 59.25 C17.95 40.22, 34.55 21.68, 52.27 0.39 M1.23 71.29 C22.14 45.03, 45.19 21.13, 62.9 0.35 M1.23 71.29 C19.95 49.1, 38.92 28.25, 62.9 0.35 M5.3 78.81 C18.83 60.77, 35.58 44.17, 73.53 0.32 M5.3 78.81 C23.97 58.65, 40.16 37.38, 73.53 0.32 M11.99 83.3 C34.89 58.67, 57.55 30.42, 84.16 0.28 M11.99 83.3 C35.26 55.44, 59.72 28.64, 84.16 0.28 M20.65 85.53 C49.92 52.31, 79.32 19.12, 94.79 0.25 M20.65 85.53 C39.32 64.1, 57.82 42.44, 94.79 0.25 M31.28 85.5 C58.19 54.02, 86.26 20.56, 105.42 0.21 M31.28 85.5 C51.05 62.46, 68.43 40.66, 105.42 0.21 M41.91 85.46 C64.08 56.55, 85.95 33.48, 116.05 0.18 M41.91 85.46 C66.57 56.55, 92.23 25.64, 116.05 0.18 M52.54 85.43 C69.02 67.16, 85.84 49.48, 126.68 0.14 M52.54 85.43 C76.82 57.51, 101.16 30.12, 126.68 0.14 M63.17 85.39 C86.54 58.87, 107.89 34.04, 137.31 0.11 M63.17 85.39 C87.08 56.61, 112.33 28, 137.31 0.11 M73.8 85.36 C103.17 51.55, 129.68 18.93, 147.94 0.08 M73.8 85.36 C92.22 62.83, 111.3 42.3, 147.94 0.08 M84.44 85.32 C112.83 49.83, 143.04 16.87, 157.91 0.8 M84.44 85.32 C102.77 64.66, 121.81 41.56, 157.91 0.8 M95.07 85.29 C111.38 66.74, 127.68 44.97, 168.54 0.76 M95.07 85.29 C121.81 53.95, 150.1 20.29, 168.54 0.76 M105.7 85.25 C124.65 62.57, 141.66 42.45, 179.17 0.73 M105.7 85.25 C127.67 59.88, 151.47 32.43, 179.17 0.73 M116.33 85.22 C143.19 56.24, 168.5 25.35, 189.8 0.69 M116.33 85.22 C140.23 58.21, 163.2 28.42, 189.8 0.69 M126.3 85.94 C143.85 63.48, 164.12 38.6, 200.43 0.66 M126.3 85.94 C151.2 58.64, 174.72 32.68, 200.43 0.66 M136.93 85.91 C162.78 55.07, 187.95 24.34, 209.1 2.89 M136.93 85.91 C160.02 60.24, 182.71 33.21, 209.1 2.89 M147.56 85.87 C163.13 63.71, 182.52 47.64, 215.13 8.14 M147.56 85.87 C166.59 64.68, 184.93 42.3, 215.13 8.14 M158.19 85.84 C177.69 65.69, 195.12 42.78, 218.55 16.4 M158.19 85.84 C173.79 65.49, 190.41 48.02, 218.55 16.4 M168.82 85.8 C186.14 66.16, 203.62 44.54, 218.68 28.44 M168.82 85.8 C178.89 73.36, 190.88 60.33, 218.68 28.44 M179.45 85.77 C190.51 73.08, 198.33 63.35, 218.81 40.49 M179.45 85.77 C192.13 70.47, 205.17 55.83, 218.81 40.49 M190.08 85.73 C200.23 74.97, 208.05 62.15, 218.95 52.53 M190.08 85.73 C200.52 75.14, 208.65 64.1, 218.95 52.53 M201.37 84.94 C206.93 78.21, 214.64 71.04, 219.08 64.57 M201.37 84.94 C206.4 78.84, 210.47 74.97, 219.08 64.57 M3.31 76.98 C3.31 76.98, 3.31 76.98, 3.31 76.98 M3.31 76.98 C3.31 76.98, 3.31 76.98, 3.31 76.98 M24.41 84.72 C17.91 80.19, 13.32 77.07, 1.01 64.38 M24.41 84.72 C15.4 76.42, 5.5 69.31, 1.01 64.38 M36.45 84.58 C27.76 76.81, 19.22 69.21, 0.98 53.75 M36.45 84.58 C23.59 71.45, 7.87 59.51, 0.98 53.75 M49.24 85.11 C34.84 72.81, 23.78 61.47, 0.94 43.12 M49.24 85.11 C33.16 71.89, 16.8 58.49, 0.94 43.12 M61.28 84.97 C41.53 64.73, 21.99 47.4, 0.91 32.49 M61.28 84.97 C39.47 67.11, 19.46 47.17, 0.91 32.49 M73.32 84.84 C46.48 61.7, 22 42.16, 0.87 21.86 M73.32 84.84 C47.51 61.39, 21.42 39.17, 0.87 21.86 M85.37 84.71 C60.82 64.62, 39.65 45, 1.59 11.89 M85.37 84.71 C52.44 57.16, 20.98 28.38, 1.59 11.89 M97.41 84.58 C74.16 66.72, 55.34 48.59, 6.09 5.19 M97.41 84.58 C78.87 67.54, 58.16 50.64, 6.09 5.19 M110.2 85.1 C72.92 52.74, 35.45 20.21, 13.6 1.12 M110.2 85.1 C80.4 58.02, 48.81 30.1, 13.6 1.12 M122.24 84.96 C84.53 53.12, 44.1 16.39, 24.13 -0.32 M122.24 84.96 C99.21 64.64, 75.76 43.01, 24.13 -0.32 M134.28 84.83 C112.23 62.65, 87.51 41.79, 36.93 0.2 M134.28 84.83 C114.15 68.79, 95.29 52.58, 36.93 0.2 M146.32 84.7 C122.24 64.66, 104.52 47.82, 48.97 0.07 M146.32 84.7 C124.9 65.19, 102.19 45.19, 48.97 0.07 M158.37 84.57 C131.31 63.07, 103.29 38.34, 61.01 -0.07 M158.37 84.57 C139.14 67.08, 118.94 49.62, 61.01 -0.07 M171.16 85.09 C133.63 52.58, 96.92 20.72, 73.05 -0.2 M171.16 85.09 C137.26 54.72, 100.51 24.69, 73.05 -0.2 M183.2 84.96 C151.97 60.07, 123.31 33.65, 85.09 -0.33 M183.2 84.96 C151.48 57.57, 118.43 27.78, 85.09 -0.33 M195.24 84.82 C171.56 63.62, 148.69 46.59, 97.89 0.19 M195.24 84.82 C165.66 61.11, 138.35 35.91, 97.89 0.19 M205.02 82.72 C179.68 58.58, 151.05 36.72, 109.93 0.06 M205.02 82.72 C173.42 55.01, 141.7 28.12, 109.93 0.06 M212.53 78.65 C188.9 55.76, 164.06 36.36, 121.97 -0.08 M212.53 78.65 C190.36 57.59, 166.53 39.17, 121.97 -0.08 M217.78 72.61 C189.59 47.57, 159.97 25.29, 134.01 -0.21 M217.78 72.61 C189.47 47.19, 160.01 22.2, 134.01 -0.21 M219.26 63.3 C197 45.02, 180.38 31.32, 146.05 -0.34 M219.26 63.3 C193.88 39.9, 169.25 19.55, 146.05 -0.34 M219.22 52.67 C202.1 36.6, 182.72 22.11, 158.84 0.18 M219.22 52.67 C204.03 38.29, 187.97 25.44, 158.84 0.18 M219.19 42.04 C204.76 31.51, 193.51 19.21, 170.89 0.05 M219.19 42.04 C206.65 30.54, 193.78 21.06, 170.89 0.05 M219.15 31.41 C212.76 25.08, 203.39 17.6, 182.93 -0.09 M219.15 31.41 C206.05 19.96, 191.86 6.95, 182.93 -0.09 M219.12 20.78 C213.43 14.78, 205.89 11.02, 194.97 -0.22 M219.12 20.78 C210.77 12.86, 202 4.65, 194.97 -0.22" stroke="#ffec99" stroke-width="1" fill="none"></path><path d="M21.25 0 C75.16 0.81, 128.66 -1.22, 197.42 0 M21.25 0 C67 -1, 113.65 0.33, 197.42 0 M197.42 0 C213.58 -1.88, 217.11 6.6, 218.67 21.25 M197.42 0 C212.1 -0.82, 217.9 7.39, 218.67 21.25 M218.67 21.25 C218.05 37.54, 219.09 51.68, 218.67 63.75 M218.67 21.25 C218.86 34.21, 218.43 48.7, 218.67 63.75 M218.67 63.75 C218.72 78.67, 211.39 86.7, 197.42 85 M218.67 63.75 C218.83 76.02, 209.99 82.93, 197.42 85 M197.42 85 C146.59 84.81, 93.44 82.97, 21.25 85 M197.42 85 C160.83 84.24, 124.15 82.46, 21.25 85 M21.25 85 C6.66 86.99, -0.05 77.76, 0 63.75 M21.25 85 C7.38 84.25, 2.13 78.08, 0 63.75 M0 63.75 C-0.25 52.72, -0.16 39.67, 0 21.25 M0 63.75 C-0.42 50.69, -0.07 38.96, 0 21.25 M0 21.25 C-1.21 6.23, 7.7 1.37, 21.25 0 M0 21.25 C1.44 6.7, 8.69 -0.9, 21.25 0" stroke="#1e1e1e" stroke-width="2" fill="none"></path></g><g transform="translate(634.3404863023062 1052.1328013487562) rotate(0 75.1299459934234 25)"><text x="75.12994599342346" y="17.619999999999997" font-family="Virgil, Segoe UI Emoji" font-size="20px" fill="#1e1e1e" text-anchor="middle" style="white-space: pre;" direction="ltr" dominant-baseline="alphabetic">GATK </text><text x="75.12994599342346" y="42.62" font-family="Virgil, Segoe UI Emoji" font-size="20px" fill="#1e1e1e" text-anchor="middle" style="white-space: pre;" direction="ltr" dominant-baseline="alphabetic">GenotypeGVCFs</text></g><g stroke-linecap="round"><g transform="translate(709.0880503013873 1130.7422941087596) rotate(0 0.2608347071280832 23.913571700817442)"><path d="M-0.4 -0.19 C-0.27 7.83, 0.86 40.54, 0.92 48.59 M0.4 -0.77 C0.48 7.32, 0.63 39.48, 0.73 47.71" stroke="#1e1e1e" stroke-width="2" fill="none"></path></g><g transform="translate(709.0880503013873 1130.7422941087596) rotate(0 0.2608347071280832 23.913571700817442)"><path d="M-7.74 25.01 C-5.2 33.36, -1.8 39.04, 0.73 47.71 M-7.74 25.01 C-5.24 30.15, -4.02 36.15, 0.73 47.71" stroke="#1e1e1e" stroke-width="2" fill="none"></path></g><g transform="translate(709.0880503013873 1130.7422941087596) rotate(0 0.2608347071280832 23.913571700817442)"><path d="M8.83 24.88 C5.92 33.21, 3.88 38.94, 0.73 47.71 M8.83 24.88 C7.21 30.12, 4.31 36.15, 0.73 47.71" stroke="#1e1e1e" stroke-width="2" fill="none"></path></g></g><mask></mask><g stroke-linecap="round"><g transform="translate(708.2100948409675 976.3420814315709) rotate(0 0.3216333956127073 24.37765970970554)"><path d="M-0.14 -0.36 C-0.07 7.63, 0.63 40.29, 0.72 48.42 M0.79 0.65 C0.79 8.96, 0.55 41.05, 0.42 49.11" stroke="#1e1e1e" stroke-width="2" fill="none"></path></g><g transform="translate(708.2100948409675 976.3420814315709) rotate(0 0.3216333956127073 24.37765970970554)"><path d="M-7.61 26.26 C-5.39 34.66, -1.99 41.96, 0.42 49.11 M-7.61 26.26 C-4.86 33.22, -2.77 39.61, 0.42 49.11" stroke="#1e1e1e" stroke-width="2" fill="none"></path></g><g transform="translate(708.2100948409675 976.3420814315709) rotate(0 0.3216333956127073 24.37765970970554)"><path d="M8.96 26.45 C5.45 34.76, 3.12 41.99, 0.42 49.11 M8.96 26.45 C6.75 33.39, 3.87 39.74, 0.42 49.11" stroke="#1e1e1e" stroke-width="2" fill="none"></path></g></g><mask></mask><g stroke-linecap="round" transform="translate(621.067022310778 1189.8754903103895) rotate(0 87.20901993627393 41.830078125)"><path d="M20.92 0 C50.13 1.52, 88.63 1.54, 153.5 0 C169.23 -1.29, 171.26 7.24, 174.42 20.92 C177.28 36.78, 172.82 51.79, 174.42 62.75 C174.92 75.17, 164.83 85.5, 153.5 83.66 C128.2 86.99, 96.46 82.08, 20.92 83.66 C7.25 83.4, -3.1 79.24, 0 62.75 C-0.78 45.94, 3.68 36.87, 0 20.92 C1.85 6.66, 3.63 -2.48, 20.92 0" stroke="none" stroke-width="0" fill="#a5d8ff"></path><path d="M20.92 0 C55.69 -0.66, 89.05 1.2, 153.5 0 M20.92 0 C58.28 0.31, 96.41 0.68, 153.5 0 M153.5 0 C168.79 -1.76, 174.16 6.23, 174.42 20.92 M153.5 0 C166.84 1, 172.99 6.93, 174.42 20.92 M174.42 20.92 C175.79 35.04, 173.83 51.54, 174.42 62.75 M174.42 20.92 C173.67 33.42, 173.96 46.23, 174.42 62.75 M174.42 62.75 C176 78.25, 165.84 84.6, 153.5 83.66 M174.42 62.75 C174.79 75.77, 166.63 82.68, 153.5 83.66 M153.5 83.66 C119.97 81.9, 88.09 82.04, 20.92 83.66 M153.5 83.66 C118.93 83.11, 83.87 81.71, 20.92 83.66 M20.92 83.66 C7.64 83.38, -0.6 76.13, 0 62.75 M20.92 83.66 C5.46 82.78, -0.53 75.95, 0 62.75 M0 62.75 C-2.11 52.53, -0.34 41.88, 0 20.92 M0 62.75 C0.52 53.54, -0.02 43.95, 0 20.92 M0 20.92 C0.64 8.2, 6.89 0.99, 20.92 0 M0 20.92 C-1.57 4.76, 7.39 -0.24, 20.92 0" stroke="#1e1e1e" stroke-width="4" fill="none"></path></g><g transform="translate(651.6360894086312 1206.7055684353895) rotate(0 56.63995283842081 25)"><text x="56.63995283842087" y="17.619999999999997" font-family="Virgil, Segoe UI Emoji" font-size="20px" fill="#1e1e1e" text-anchor="middle" style="white-space: pre;" direction="ltr" dominant-baseline="alphabetic">Joint-called</text><text x="56.63995283842087" y="42.62" font-family="Virgil, Segoe UI Emoji" font-size="20px" fill="#1e1e1e" text-anchor="middle" style="white-space: pre;" direction="ltr" dominant-baseline="alphabetic">VCF</text></g><g stroke-linecap="round"><g transform="translate(528.6342933469583 723.6557347863668) rotate(0 27.258060338754092 13.922532988289447)"><path d="M-0.71 -0.54 C8.44 4, 45.99 22.42, 55.23 27.15 M1.11 1.8 C10.06 6.49, 44.8 23.82, 54.15 28.38" stroke="#1e1e1e" stroke-width="2" fill="none"></path></g><g transform="translate(528.6342933469583 723.6557347863668) rotate(0 27.258060338754092 13.922532988289447)"><path d="M29.3 25.64 C36.51 26.27, 44.53 26.36, 54.15 28.38 M29.3 25.64 C37.48 25.62, 45.53 27.14, 54.15 28.38" stroke="#1e1e1e" stroke-width="2" fill="none"></path></g><g transform="translate(528.6342933469583 723.6557347863668) rotate(0 27.258060338754092 13.922532988289447)"><path d="M36.88 10.31 C41.61 15.89, 47.16 20.97, 54.15 28.38 M36.88 10.31 C42.7 15.05, 48.41 21.28, 54.15 28.38" stroke="#1e1e1e" stroke-width="2" fill="none"></path></g></g><mask></mask><g stroke-linecap="round"><g transform="translate(545.0425584156804 805.7607609325732) rotate(0 20.329742944411294 -13.782084528743042)"><path d="M-0.35 -0.48 C6.24 -5.09, 33.27 -23.44, 40.01 -28.03 M0.47 0.47 C7.18 -4.06, 34.23 -22.89, 41.01 -27.58" stroke="#1e1e1e" stroke-width="2" fill="none"></path></g><g transform="translate(545.0425584156804 805.7607609325732) rotate(0 20.329742944411294 -13.782084528743042)"><path d="M26.88 -7.59 C31.59 -16.15, 37.1 -23.84, 41.01 -27.58 M26.88 -7.59 C29.65 -12.11, 33.26 -16.11, 41.01 -27.58" stroke="#1e1e1e" stroke-width="2" fill="none"></path></g><g transform="translate(545.0425584156804 805.7607609325732) rotate(0 20.329742944411294 -13.782084528743042)"><path d="M17.34 -21.35 C25.72 -24.52, 34.94 -26.84, 41.01 -27.58 M17.34 -21.35 C22.13 -22.92, 27.8 -23.96, 41.01 -27.58" stroke="#1e1e1e" stroke-width="2" fill="none"></path></g></g><mask></mask><g transform="translate(425.76323401603327 447.0206387203026) rotate(0 54.66996765136719 12.5)"><text x="0" y="17.619999999999997" font-family="Excalifont, Segoe UI Emoji" font-size="20px" fill="#1e1e1e" text-anchor="start" style="white-space: pre;" direction="ltr" dominant-baseline="alphabetic">GVCF mode</text></g></svg>