<svg version="1.1" xmlns="http://www.w3.org/2000/svg" viewBox="0 0 1000 580" width="1000" height="580">
  <!-- svg-source:excalidraw -->
  <style>
    text { font-family: "Segoe UI", system-ui, -apple-system, sans-serif; }
    .title { font-size: 22px; font-weight: 600; fill: #1e1e1e; }
    .heading { font-size: 16px; font-weight: 600; }
    .keyword { font-size: 13px; font-family: "SF Mono", "Fira Code", monospace; }
    .code { font-size: 12px; font-family: "SF Mono", "Fira Code", monospace; fill: #444444; }
    .note { font-size: 12px; fill: #666666; }
    .diff { font-size: 13px; fill: #666666; }
  </style>

  <!-- Title -->
  <text x="500" y="28" text-anchor="middle" class="title">nf-test Structure: Pipeline vs Process Tests</text>

  <!-- Pipeline test (left side) -->
  <text x="225" y="60" text-anchor="middle" class="heading" fill="#4a9eed">Pipeline-level test</text>

  <!-- Outer block -->
  <rect x="20" y="75" width="430" height="430" rx="10" fill="#dbe4ff" fill-opacity="0.25" stroke="#4a9eed" stroke-width="2"/>
  <text x="35" y="97" class="keyword" fill="#4a9eed">nextflow_pipeline {</text>

  <!-- Metadata -->
  <rect x="40" y="110" width="390" height="52" rx="6" fill="#a5d8ff" fill-opacity="0.5" stroke="#4a9eed" stroke-width="1"/>
  <text x="55" y="131" class="code">name  "Test Workflow main.nf"</text>
  <text x="55" y="150" class="code">script  "main.nf"</text>

  <!-- Test block -->
  <rect x="40" y="178" width="390" height="310" rx="6" fill="#ffffff" stroke="#4a9eed" stroke-width="1"/>
  <text x="55" y="198" class="keyword" fill="#4a9eed">test("Should run successfully...") {</text>

  <!-- When block -->
  <rect x="60" y="212" width="350" height="105" rx="6" fill="#fff3bf" fill-opacity="0.5" stroke="#f59e0b" stroke-width="1"/>
  <text x="75" y="232" class="keyword" fill="#f59e0b">when {</text>
  <rect x="80" y="242" width="310" height="55" rx="4" fill="#ffffff" stroke="#f59e0b" stroke-width="0.5"/>
  <text x="95" y="260" class="keyword" fill="#f59e0b">params {</text>
  <text x="115" y="280" class="code" fill="#888888">input_file = "${projectDir}/..."</text>
  <text x="75" y="308" class="code" fill="#f59e0b">}</text>

  <!-- Then block -->
  <rect x="60" y="330" width="350" height="140" rx="6" fill="#b2f2bb" fill-opacity="0.3" stroke="#22c55e" stroke-width="1"/>
  <text x="75" y="350" class="keyword" fill="#22c55e">then {</text>
  <text x="95" y="373" class="code">assert workflow.success</text>
  <text x="95" y="393" class="code">assert workflow.trace</text>
  <text x="115" y="410" class="code">.tasks().size() == 6</text>
  <text x="95" y="430" class="code">assert file(...).exists()</text>
  <text x="75" y="455" class="code" fill="#22c55e">}</text>

  <!-- Process test (right side) -->
  <text x="735" y="60" text-anchor="middle" class="heading" fill="#8b5cf6">Process-level test</text>

  <!-- Outer block -->
  <rect x="530" y="75" width="450" height="430" rx="10" fill="#e5dbff" fill-opacity="0.25" stroke="#8b5cf6" stroke-width="2"/>
  <text x="545" y="97" class="keyword" fill="#8b5cf6">nextflow_process {</text>

  <!-- Metadata -->
  <rect x="550" y="110" width="410" height="52" rx="6" fill="#d0bfff" fill-opacity="0.5" stroke="#8b5cf6" stroke-width="1"/>
  <text x="565" y="131" class="code">name  "Test Process sayHello"</text>
  <text x="565" y="150" class="code">script  "main.nf"   process  "sayHello"</text>

  <!-- Test block -->
  <rect x="550" y="178" width="410" height="310" rx="6" fill="#ffffff" stroke="#8b5cf6" stroke-width="1"/>
  <text x="565" y="198" class="keyword" fill="#8b5cf6">test("Should produce correct output") {</text>

  <!-- When block -->
  <rect x="570" y="212" width="370" height="105" rx="6" fill="#fff3bf" fill-opacity="0.5" stroke="#f59e0b" stroke-width="1"/>
  <text x="585" y="232" class="keyword" fill="#f59e0b">when {</text>
  <rect x="590" y="242" width="330" height="55" rx="4" fill="#ffffff" stroke="#f59e0b" stroke-width="0.5"/>
  <text x="605" y="260" class="keyword" fill="#f59e0b">process {</text>
  <text x="625" y="280" class="code" fill="#888888">input[0] = "hello"</text>
  <text x="585" y="308" class="code" fill="#f59e0b">}</text>

  <!-- Then block -->
  <rect x="570" y="330" width="370" height="140" rx="6" fill="#b2f2bb" fill-opacity="0.3" stroke="#22c55e" stroke-width="1"/>
  <text x="585" y="350" class="keyword" fill="#22c55e">then {</text>
  <text x="605" y="373" class="code">assert process.success</text>
  <text x="605" y="396" class="code">assert snapshot(process.out)</text>
  <text x="625" y="413" class="code">.match()</text>
  <text x="585" y="455" class="code" fill="#22c55e">}</text>

  <!-- Key difference callout -->
  <rect x="20" y="525" width="960" height="45" rx="8" fill="#fff3bf" fill-opacity="0.4" stroke="#f59e0b" stroke-width="1"/>
  <text x="35" y="545" class="diff" font-weight="600" fill="#1e1e1e">Key difference:</text>
  <text x="150" y="545" class="diff">Pipeline tests use</text>
  <text x="280" y="545" class="keyword" fill="#4a9eed">params {}</text>
  <text x="345" y="545" class="diff">to configure the whole run. Process tests use</text>
  <text x="645" y="545" class="keyword" fill="#8b5cf6">process {}</text>
  <text x="716" y="545" class="diff">to provide direct inputs.</text>
</svg>
