<svg version="1.1" xmlns="http://www.w3.org/2000/svg" viewBox="0 0 900 520" width="900" height="520">
  <!-- svg-source:excalidraw -->
  <style>
    text { font-family: "Segoe UI", system-ui, -apple-system, sans-serif; }
    .title { font-size: 22px; font-weight: 600; fill: #1e1e1e; }
    .step-num { font-size: 20px; font-weight: 700; }
    .step-label { font-size: 14px; font-weight: 500; fill: #1e1e1e; }
    .step-detail { font-size: 11px; fill: #666666; }
    .heading { font-size: 15px; font-weight: 600; }
    .code { font-size: 11px; font-family: "SF Mono", "Fira Code", monospace; fill: #444444; }
    .note { font-size: 12px; fill: #666666; }
    .result { font-size: 18px; font-weight: 600; }
  </style>

  <defs>
    <marker id="arrow" viewBox="0 0 10 10" refX="9" refY="5" markerWidth="6" markerHeight="6" orient="auto-start-reverse">
      <path d="M 0 0 L 10 5 L 0 10 z" fill="#1e1e1e"/>
    </marker>
    <marker id="arrow-green" viewBox="0 0 10 10" refX="9" refY="5" markerWidth="6" markerHeight="6" orient="auto-start-reverse">
      <path d="M 0 0 L 10 5 L 0 10 z" fill="#22c55e"/>
    </marker>
    <marker id="arrow-red" viewBox="0 0 10 10" refX="9" refY="5" markerWidth="6" markerHeight="6" orient="auto-start-reverse">
      <path d="M 0 0 L 10 5 L 0 10 z" fill="#ef4444"/>
    </marker>
  </defs>

  <!-- Title -->
  <text x="210" y="28" text-anchor="middle" class="title">nf-test Execution Flow</text>

  <!-- Step 1 -->
  <circle cx="40" cy="72" r="16" fill="#4a9eed" stroke="none"/>
  <text x="40" y="78" text-anchor="middle" class="step-num" fill="#ffffff">1</text>
  <rect x="65" y="50" width="260" height="44" rx="8" fill="#a5d8ff" stroke="#4a9eed" stroke-width="1.5"/>
  <text x="195" y="68" text-anchor="middle" class="step-label">Run test command</text>
  <text x="195" y="84" text-anchor="middle" class="code">nf-test test tests/main.nf.test</text>

  <line x1="195" y1="94" x2="195" y2="120" stroke="#1e1e1e" stroke-width="1.5" marker-end="url(#arrow)"/>

  <!-- Step 2 -->
  <circle cx="40" cy="142" r="16" fill="#f59e0b" stroke="none"/>
  <text x="40" y="148" text-anchor="middle" class="step-num" fill="#ffffff">2</text>
  <rect x="65" y="120" width="260" height="44" rx="8" fill="#fff3bf" stroke="#f59e0b" stroke-width="1.5"/>
  <text x="195" y="138" text-anchor="middle" class="step-label">Create isolated directory</text>
  <text x="195" y="154" text-anchor="middle" class="code">.nf-test/tests/&lt;hash&gt;/</text>

  <line x1="195" y1="164" x2="195" y2="190" stroke="#1e1e1e" stroke-width="1.5" marker-end="url(#arrow)"/>

  <!-- Step 3 -->
  <circle cx="40" cy="212" r="16" fill="#22c55e" stroke="none"/>
  <text x="40" y="218" text-anchor="middle" class="step-num" fill="#ffffff">3</text>
  <rect x="65" y="190" width="260" height="44" rx="8" fill="#b2f2bb" stroke="#22c55e" stroke-width="1.5"/>
  <text x="195" y="208" text-anchor="middle" class="step-label">Apply when {} block</text>
  <text x="195" y="224" text-anchor="middle" class="step-detail">Set params and/or process inputs</text>

  <line x1="195" y1="234" x2="195" y2="260" stroke="#1e1e1e" stroke-width="1.5" marker-end="url(#arrow)"/>

  <!-- Step 4 -->
  <circle cx="40" cy="282" r="16" fill="#8b5cf6" stroke="none"/>
  <text x="40" y="288" text-anchor="middle" class="step-num" fill="#ffffff">4</text>
  <rect x="65" y="260" width="260" height="44" rx="8" fill="#d0bfff" stroke="#8b5cf6" stroke-width="1.5"/>
  <text x="195" y="278" text-anchor="middle" class="step-label">Run Nextflow</text>
  <text x="195" y="294" text-anchor="middle" class="step-detail">Pipeline/process executes in isolation</text>

  <line x1="195" y1="304" x2="195" y2="330" stroke="#1e1e1e" stroke-width="1.5" marker-end="url(#arrow)"/>

  <!-- Step 5 -->
  <circle cx="40" cy="352" r="16" fill="#ef4444" stroke="none"/>
  <text x="40" y="358" text-anchor="middle" class="step-num" fill="#ffffff">5</text>
  <rect x="65" y="330" width="260" height="44" rx="8" fill="#ffc9c9" stroke="#ef4444" stroke-width="1.5"/>
  <text x="195" y="348" text-anchor="middle" class="step-label">Evaluate then {} block</text>
  <text x="195" y="364" text-anchor="middle" class="step-detail">Check all assertions</text>

  <!-- Outcomes -->
  <line x1="325" y1="342" x2="390" y2="342" stroke="#22c55e" stroke-width="2" marker-end="url(#arrow-green)"/>
  <rect x="395" y="325" width="100" height="36" rx="8" fill="#b2f2bb" stroke="#22c55e" stroke-width="2"/>
  <text x="445" y="349" text-anchor="middle" class="result" fill="#22c55e">PASSED</text>

  <line x1="325" y1="362" x2="390" y2="362" stroke="#ef4444" stroke-width="2" marker-end="url(#arrow-red)"/>
  <rect x="395" y="345" width="100" height="36" rx="8" fill="#ffc9c9" stroke="#ef4444" stroke-width="2"/>
  <text x="445" y="369" text-anchor="middle" class="result" fill="#ef4444">FAILED</text>

  <!-- Right panel: Why isolation matters -->
  <rect x="530" y="50" width="350" height="455" rx="10" fill="#dbe4ff" fill-opacity="0.2" stroke="#4a9eed" stroke-width="1"/>
  <text x="705" y="75" text-anchor="middle" class="heading" fill="#4a9eed">Why isolation matters</text>

  <!-- Project directory -->
  <rect x="550" y="95" width="150" height="140" rx="6" fill="#fff3bf" fill-opacity="0.5" stroke="#f59e0b" stroke-width="1"/>
  <text x="625" y="115" text-anchor="middle" class="step-label" fill="#b45309">Project directory</text>
  <text x="570" y="138" class="code">main.nf</text>
  <text x="570" y="155" class="code">greetings.csv</text>
  <text x="570" y="172" class="code">tests/</text>
  <text x="570" y="189" class="code">results/</text>

  <!-- Not equal -->
  <text x="720" y="172" text-anchor="middle" font-size="24" font-weight="700" fill="#ef4444">&#x2260;</text>

  <!-- Test directory -->
  <rect x="740" y="95" width="120" height="140" rx="6" fill="#d0bfff" fill-opacity="0.5" stroke="#8b5cf6" stroke-width="1"/>
  <text x="800" y="115" text-anchor="middle" class="step-label" fill="#8b5cf6">Test directory</text>
  <text x="758" y="138" class="code">.nf-test/tests/</text>
  <text x="768" y="155" class="code">&lt;hash&gt;/</text>
  <text x="778" y="172" class="code">meta/</text>
  <text x="778" y="192" class="code" fill="#999999">(empty!)</text>

  <!-- Pitfall callout -->
  <rect x="550" y="260" width="310" height="130" rx="8" fill="#ffc9c9" fill-opacity="0.3" stroke="#ef4444" stroke-width="1.5"/>
  <text x="570" y="283" class="heading" fill="#ef4444">Common pitfall</text>
  <text x="570" y="305" class="note">Files like greetings.csv are NOT</text>
  <text x="570" y="322" class="note">available in the test directory.</text>
  <text x="570" y="348" class="note" font-weight="500" fill="#444444">Use ${projectDir} to reference</text>
  <text x="570" y="365" class="note" font-weight="500" fill="#444444">files from the original project.</text>

  <!-- Fix example -->
  <rect x="550" y="410" width="310" height="80" rx="6" fill="#b2f2bb" fill-opacity="0.3" stroke="#22c55e" stroke-width="1"/>
  <text x="570" y="432" class="step-label" fill="#22c55e">Solution:</text>
  <text x="570" y="455" class="code">params {</text>
  <text x="580" y="472" class="code">input_file = "${projectDir}/greetings.csv"</text>
  <text x="570" y="484" class="code">}</text>
</svg>
