<svg version="1.1" xmlns="http://www.w3.org/2000/svg" viewBox="0 0 1033.4194907706317 537.103515625" width="2066.8389815412634" height="1074.20703125">
  <!-- svg-source:excalidraw -->
  
  <defs>
    <style class="style-fonts">
      @font-face {
        font-family: "Virgil";
        src: url("https://excalidraw.com/Virgil.woff2");
      }
      @font-face {
        font-family: "Cascadia";
        src: url("https://excalidraw.com/Cascadia.woff2");
      }
    </style>
  </defs>
  <rect x="0" y="0" width="1033.4194907706317" height="537.103515625" fill="#ffffff"></rect><g stroke-linecap="round"><g transform="translate(11.100578814372426 298.7240208397699) rotate(0 39.37505837849966 0.4012300975885523)"><path d="M-1.1 0.36 C11.97 0.28, 64.12 -0.2, 77.54 -0.2 M0.52 -0.5 C14.06 -0.4, 66.74 1.49, 79.85 1.28" stroke="#495057" stroke-width="4" fill="none"></path></g><g transform="translate(11.100578814372426 298.7240208397699) rotate(0 39.37505837849966 0.4012300975885523)"><path d="M52.12 9.9 C57.72 11, 65.06 8.22, 79.28 2.87 M51.43 10.73 C60.05 7.67, 67.21 4.87, 79.99 2.04" stroke="#495057" stroke-width="4" fill="none"></path></g><g transform="translate(11.100578814372426 298.7240208397699) rotate(0 39.37505837849966 0.4012300975885523)"><path d="M52.4 -10.62 C57.97 -4.89, 65.25 -3.05, 79.28 2.87 M51.71 -9.79 C60.06 -6.96, 67.15 -3.87, 79.99 2.04" stroke="#495057" stroke-width="4" fill="none"></path></g></g><mask></mask><g stroke-linecap="round" transform="translate(100.54487680949916 266.05544679258105) rotate(0 12.41015625 32.078125)"><path d="M12.49 -0.25 C14.99 -1.03, 18.9 2.41, 20.75 6.5 C22.61 10.59, 23.2 17.63, 23.63 24.29 C24.06 30.95, 24.36 40.37, 23.33 46.46 C22.3 52.55, 20.02 58.26, 17.47 60.82 C14.91 63.38, 10.58 63.61, 8.02 61.82 C5.45 60.03, 3.55 55.72, 2.08 50.08 C0.61 44.44, -1.12 34.81, -0.81 27.97 C-0.49 21.14, 1.85 13.61, 3.98 9.06 C6.1 4.52, 10.37 2.14, 11.93 0.7 C13.48 -0.74, 13.14 0.15, 13.31 0.42 M12.74 1.5 C15.25 1.17, 18.17 2.76, 19.9 6.79 C21.64 10.81, 22.8 18.97, 23.16 25.65 C23.53 32.33, 22.93 41, 22.1 46.87 C21.27 52.74, 20.37 58.14, 18.21 60.89 C16.04 63.63, 11.95 65.25, 9.09 63.31 C6.24 61.37, 2.79 55.29, 1.08 49.25 C-0.63 43.21, -1.48 34.18, -1.16 27.06 C-0.83 19.95, 0.6 11.24, 3.03 6.56 C5.46 1.88, 11.94 0.02, 13.41 -1.01 C14.88 -2.04, 11.87 -0.15, 11.83 0.37" stroke="#000000" stroke-width="1" fill="none"></path></g><g stroke-linecap="round"><g transform="translate(114.55268930949916 267.12575929258105) rotate(0 181.05983294775478 0.35822756506476594)"><path d="M-0.11 1.14 C75.97 2.23, 150.61 2.44, 362.23 -1.12 M0.19 -0.56 C77.86 0.44, 156.63 1.46, 361.82 0.05" stroke="#000000" stroke-width="1" fill="none"></path></g></g><mask></mask><g stroke-linecap="round"><g transform="translate(114.07366954882576 330.16313223215354) rotate(0 182.84684466939433 -0.2810449871114997)"><path d="M1.13 0.48 C121.63 -0.15, 242.68 0.04, 365.09 -1.05 M-0.55 -0.41 C105.97 -0.61, 213.48 -1.26, 366.25 -0.03" stroke="#000000" stroke-width="1" fill="none"></path></g></g><mask></mask><g stroke-linecap="round"><g transform="translate(238.5193544175416 269.1596627296799) rotate(0 6.541996522977399 29.244929955851717)"><path d="M1.08 0.47 C2.61 2.49, 6.45 7.16, 8.42 12.02 C10.38 16.88, 12.7 23.51, 12.88 29.62 C13.06 35.74, 10.97 43.86, 9.51 48.71 C8.04 53.55, 4.91 57.13, 4.08 58.7 M0.19 -0.33 C1.7 1.87, 5.79 8.18, 7.86 13.38 C9.93 18.58, 12.39 24.87, 12.61 30.86 C12.83 36.84, 10.87 44.62, 9.19 49.28 C7.51 53.94, 3.67 57, 2.55 58.82" stroke="#000000" stroke-width="1" fill="none"></path></g></g><mask></mask><g stroke-linecap="round"><g transform="translate(477.9266395619227 269.0727349105923) rotate(0 5.5474418575930144 30.134584459707582)"><path d="M0.47 0.75 C1.7 2.79, 5.44 8.65, 7.32 13.31 C9.21 17.97, 11.4 22.66, 11.77 28.7 C12.15 34.75, 10.92 44.46, 9.57 49.6 C8.22 54.75, 4.75 58.11, 3.68 59.58 M-0.75 0.1 C0.31 2.33, 4.25 6.79, 6.19 11.69 C8.14 16.58, 10.41 22.97, 10.93 29.46 C11.44 35.95, 10.17 45.53, 9.29 50.65 C8.4 55.77, 6.48 58.5, 5.6 60.17" stroke="#000000" stroke-width="1" fill="none"></path></g></g><mask></mask><g stroke-linecap="round"><g transform="translate(365.6194395285536 267.91831120646043) rotate(0 6.478818403634875 28.29231260040632)"><path d="M0.75 -0.34 C2.01 1.62, 6.93 7.35, 8.61 12.2 C10.3 17.06, 10.55 22.6, 10.86 28.77 C11.17 34.93, 11.52 44.3, 10.47 49.2 C9.42 54.1, 5.74 56.65, 4.56 58.15 M-0.31 -1.56 C0.77 0.54, 5.91 8.47, 8.16 13.66 C10.41 18.85, 12.77 23.49, 13.19 29.56 C13.61 35.62, 12.31 45.3, 10.66 50.03 C9 54.77, 4.32 56.27, 3.28 57.98" stroke="#000000" stroke-width="1" fill="none"></path></g></g><mask></mask><g transform="translate(147.49521997407697 286.062344129964) rotate(0 35.15625 12)"><text x="0" y="0" font-family="Cascadia, Segoe UI Emoji" font-size="20px" fill="#000000" text-anchor="start" style="white-space: pre;" direction="ltr" dominant-baseline="text-before-edge">dado z</text></g><g transform="translate(279.9610924210663 286.3059053410133) rotate(0 35.15624999999997 12)"><text x="0" y="0" font-family="Cascadia, Segoe UI Emoji" font-size="20px" fill="#000000" text-anchor="start" style="white-space: pre;" direction="ltr" dominant-baseline="text-before-edge">dado y</text></g><g transform="translate(396.26545120361243 286.3059053410133) rotate(0 35.15625 12)"><text x="0" y="0" font-family="Cascadia, Segoe UI Emoji" font-size="20px" fill="#000000" text-anchor="start" style="white-space: pre;" direction="ltr" dominant-baseline="text-before-edge">dado x</text></g><g transform="translate(115.81546512397978 206.328125) rotate(0 37.9119987487793 16.80000000000001)"><text x="0" y="0" font-family="Virgil, Segoe UI Emoji" font-size="28px" fill="#000000" text-anchor="start" style="white-space: pre;" direction="ltr" dominant-baseline="text-before-edge">Canal</text></g><g stroke-linecap="round" transform="translate(556.1950663101888 62.103515625) rotate(0 169.34247483341449 232.5)"><path d="M32 0 M32 0 C109.78 1.45, 190.56 -2.49, 306.68 0 M32 0 C106.7 0.32, 177.18 -1.88, 306.68 0 M306.68 0 C329.18 -0.35, 334.83 14.43, 338.68 32 M306.68 0 C331.68 -2.37, 334.56 11.27, 338.68 32 M338.68 32 C340.24 151.58, 338.54 267.93, 338.68 433 M338.68 32 C337.4 120.65, 338.41 211.31, 338.68 433 M338.68 433 C336.14 453.2, 330.66 461.82, 306.68 465 M338.68 433 C342.17 453.1, 324.05 469.27, 306.68 465 M306.68 465 C234.75 463.96, 165.39 464.68, 32 465 M306.68 465 C201.19 464.43, 98.16 463.23, 32 465 M32 465 C8.69 461.82, -0.5 453.2, 0 433 M32 465 C6.94 468.5, -2.43 453.95, 0 433 M0 433 C0.69 324.06, 0.85 211.14, 0 32 M0 433 C-2.5 307.68, -1.89 181.65, 0 32 M0 32 C0.13 12.78, 8.96 -3.38, 32 0 M0 32 C0.43 14.13, 9.48 3.45, 32 0" stroke="#000000" stroke-width="2" fill="none"></path></g><g transform="translate(566.2922474539389 10) rotate(0 60.676002502441406 16.799999999999997)"><text x="0" y="0" font-family="Virgil, Segoe UI Emoji" font-size="28px" fill="#000000" text-anchor="start" style="white-space: pre;" direction="ltr" dominant-baseline="text-before-edge">Processo</text></g><g stroke-linecap="round"><g transform="translate(500.9857476808786 299.51900253000395) rotate(0 56.31858744424835 -62.40461464162158)"><path d="M0.71 1.08 C19.32 -20.07, 93.46 -104.78, 111.93 -125.89" stroke="#000000" stroke-width="1.5" fill="none" stroke-dasharray="8 9"></path></g><g transform="translate(500.9857476808786 299.51900253000395) rotate(0 56.31858744424835 -62.40461464162158)"><path d="M102.9 -95.97 C104.71 -105.64, 108.65 -117.16, 112.52 -126.62" stroke="#000000" stroke-width="1.5" fill="none"></path></g><g transform="translate(500.9857476808786 299.51900253000395) rotate(0 56.31858744424835 -62.40461464162158)"><path d="M87.45 -109.49 C94.3 -114.94, 103.14 -122.17, 112.52 -126.62" stroke="#000000" stroke-width="1.5" fill="none"></path></g></g><mask></mask><g stroke-linecap="round" transform="translate(619.74116234244 146.6755701274999) rotate(0 73.51953125 26.697265625)"><path d="M14.72 1.35 L139.51 2.21 L145.07 1.49 L147.97 9.33 L144.95 46.62 L140.01 50.39 L132.37 54.45 L6.89 53.36 L1.36 51.98 L-0.15 44.04 L-0.53 9.21 L0.44 6.12 L5.78 0.64 L11.7 -1.42" stroke="none" stroke-width="0" fill="#15aabf"></path><path d="M13.35 0 M13.35 0 C61.26 -2.92, 104.95 -2.37, 133.69 0 M13.35 0 C53.23 0.96, 94.62 -0.8, 133.69 0 M133.69 0 C142.51 1.44, 146.26 4.81, 147.04 13.35 M133.69 0 C140.93 -1.38, 145.7 4.36, 147.04 13.35 M147.04 13.35 C146.38 19.16, 146.25 29.35, 147.04 40.05 M147.04 13.35 C148.14 20.44, 147.72 27.76, 147.04 40.05 M147.04 40.05 C147.73 47.6, 141.46 53.37, 133.69 53.39 M147.04 40.05 C147.55 48.96, 144.11 52.13, 133.69 53.39 M133.69 53.39 C101.16 53.47, 69.6 54.12, 13.35 53.39 M133.69 53.39 C105.02 52.41, 76.6 53.4, 13.35 53.39 M13.35 53.39 C3.01 52.01, -1.91 48.28, 0 40.05 M13.35 53.39 C3.82 55.18, -1.41 49.13, 0 40.05 M0 40.05 C-1.2 31.58, 0.37 25.05, 0 13.35 M0 40.05 C-0.16 31.49, 0.75 24.87, 0 13.35 M0 13.35 C-1.54 4.2, 3.54 1.81, 13.35 0 M0 13.35 C-2.12 6.37, 3.47 0.89, 13.35 0" stroke="#000000" stroke-width="1" fill="none"></path></g><g transform="translate(658.10444359244 161.3728357524999) rotate(0 35.15625 12)"><text x="35.15625" y="0" font-family="Cascadia, Segoe UI Emoji" font-size="20px" fill="#000000" text-anchor="middle" style="white-space: pre;" direction="ltr" dominant-baseline="text-before-edge">dado x</text></g><g stroke-linecap="round"><g transform="translate(775.5484892499401 178.07226241815988) rotate(0 123.52683908805909 0.7011934966270985)"><path d="M-0.82 0.58 C40.39 0.62, 206.24 0.99, 247.87 0.72" stroke="#000000" stroke-width="1.5" fill="none" stroke-dasharray="8 9"></path></g><g transform="translate(775.5484892499401 178.07226241815988) rotate(0 123.52683908805909 0.7011934966270985)"><path d="M220.67 9.9 C230.83 8.24, 237.88 5.92, 248.29 0.99" stroke="#000000" stroke-width="1.5" fill="none"></path></g><g transform="translate(775.5484892499401 178.07226241815988) rotate(0 123.52683908805909 0.7011934966270985)"><path d="M220.64 -10.62 C230.9 -5.02, 237.96 -0.07, 248.29 0.99" stroke="#000000" stroke-width="1.5" fill="none"></path></g></g><mask></mask><g stroke-linecap="round" transform="translate(819.6246182073935 150.845703125) rotate(0 73.51953125 26.697265625)"><path d="M12.96 -1.16 L138.02 0.21 L141.83 3.34 L148.46 8.64 L146.61 46.75 L140.79 51.97 L135.19 54.88 L8.16 54.3 L3.46 50.87 L-0.33 41.57 L0.86 8.83 L2.75 5.56 L4.33 3.39 L14.31 1.41" stroke="none" stroke-width="0" fill="#fab005"></path><path d="M13.35 0 M13.35 0 C57.85 -0.08, 99.27 -1.36, 133.69 0 M13.35 0 C44.82 0.57, 76.38 0.22, 133.69 0 M133.69 0 C141.98 -1.01, 148.4 3.7, 147.04 13.35 M133.69 0 C142.05 1.09, 147.93 3.3, 147.04 13.35 M147.04 13.35 C149.05 19.58, 148.5 24.52, 147.04 40.05 M147.04 13.35 C147.47 22.25, 147.81 31.53, 147.04 40.05 M147.04 40.05 C145.63 49.48, 143.4 54.25, 133.69 53.39 M147.04 40.05 C146.93 48.63, 141.76 52.88, 133.69 53.39 M133.69 53.39 C92.17 52.42, 52.05 52.28, 13.35 53.39 M133.69 53.39 C97.34 54.24, 61.97 53.77, 13.35 53.39 M13.35 53.39 C2.9 54.67, 0.49 50.24, 0 40.05 M13.35 53.39 C4.08 53.48, 1.29 50.4, 0 40.05 M0 40.05 C-0.04 28.41, 1.78 18.03, 0 13.35 M0 40.05 C-0.82 31.01, -1.03 20.53, 0 13.35 M0 13.35 C-0.39 5.64, 4.29 -0.01, 13.35 0 M0 13.35 C0.15 3.03, 2.71 -2.03, 13.35 0" stroke="#000000" stroke-width="1" fill="none"></path></g><g transform="translate(852.1285244573935 165.54296875) rotate(0 41.015625 12)"><text x="41.015625" y="0" font-family="Cascadia, Segoe UI Emoji" font-size="20px" fill="#000000" text-anchor="middle" style="white-space: pre;" direction="ltr" dominant-baseline="text-before-edge">saída x</text></g><g stroke-linecap="round"><g transform="translate(501.5665323224873 300.46595591749565) rotate(0 55.2624846809307 1.2314557672851834)"><path d="M-0.6 0.62 C17.95 0.82, 92.55 1.58, 111.12 1.84" stroke="#000000" stroke-width="1.5" fill="none" stroke-dasharray="8 9"></path></g><g transform="translate(501.5665323224873 300.46595591749565) rotate(0 55.2624846809307 1.2314557672851834)"><path d="M83.85 13.34 C90.65 10.16, 99.28 7, 112.84 1.5" stroke="#000000" stroke-width="1.5" fill="none"></path></g><g transform="translate(501.5665323224873 300.46595591749565) rotate(0 55.2624846809307 1.2314557672851834)"><path d="M84.09 -7.18 C90.94 -4.51, 99.49 -1.82, 112.84 1.5" stroke="#000000" stroke-width="1.5" fill="none"></path></g></g><mask></mask><g stroke-linecap="round" transform="translate(619.74116234244 277.7418199631221) rotate(0 73.51953125 26.697265625)"><path d="M14.41 -1 L140.57 2.4 L143.52 4.42 L147.2 10.97 L147.92 45.55 L143.41 52.59 L134.83 52.14 L7.14 53.8 L2.47 48.26 L-0.64 43.93 L1.6 9.94 L2.28 7.21 L5.49 2.71 L14.68 0.18" stroke="none" stroke-width="0" fill="#15aabf"></path><path d="M13.35 0 M13.35 0 C55.66 -1.08, 94.51 -1.47, 133.69 0 M13.35 0 C52.29 -0.95, 89.95 -1.18, 133.69 0 M133.69 0 C141.08 0.12, 145.59 3.94, 147.04 13.35 M133.69 0 C143.51 0.85, 148.7 6.58, 147.04 13.35 M147.04 13.35 C145.18 24.07, 147.85 33.84, 147.04 40.05 M147.04 13.35 C146.13 22.61, 147.17 31.83, 147.04 40.05 M147.04 40.05 C148.42 50.56, 141.37 53.36, 133.69 53.39 M147.04 40.05 C147.51 50.58, 142.07 53.27, 133.69 53.39 M133.69 53.39 C101.52 53.28, 67.39 52.46, 13.35 53.39 M133.69 53.39 C99.4 52.87, 64.03 52.37, 13.35 53.39 M13.35 53.39 C4.88 54.15, -1.38 49.96, 0 40.05 M13.35 53.39 C3.13 52.83, -1.52 51.05, 0 40.05 M0 40.05 C-0.84 31.74, 1.27 22.12, 0 13.35 M0 40.05 C0.14 31.23, -1.04 24.87, 0 13.35 M0 13.35 C-0.83 2.82, 4.89 -0.15, 13.35 0 M0 13.35 C-1.83 5.03, 4.53 -0.62, 13.35 0" stroke="#000000" stroke-width="1" fill="none"></path></g><g transform="translate(658.10444359244 292.4390855881221) rotate(0 35.15625 12)"><text x="35.15625" y="0" font-family="Cascadia, Segoe UI Emoji" font-size="20px" fill="#000000" text-anchor="middle" style="white-space: pre;" direction="ltr" dominant-baseline="text-before-edge">dado y</text></g><g stroke-linecap="round"><g transform="translate(775.7073257961902 309.269688570385) rotate(0 122.41904358996135 0.5487151030451116)"><path d="M-0.11 0.65 C40.61 0.57, 203.97 0.59, 244.95 0.45" stroke="#000000" stroke-width="1.5" fill="none" stroke-dasharray="8 9"></path></g><g transform="translate(775.7073257961902 309.269688570385) rotate(0 122.41904358996135 0.5487151030451116)"><path d="M217.85 11.12 C227.35 8.87, 236.18 5.11, 246.02 1.59" stroke="#000000" stroke-width="1.5" fill="none"></path></g><g transform="translate(775.7073257961902 309.269688570385) rotate(0 122.41904358996135 0.5487151030451116)"><path d="M217.82 -9.4 C227.49 -4.43, 236.33 -0.97, 246.02 1.59" stroke="#000000" stroke-width="1.5" fill="none"></path></g></g><mask></mask><g stroke-linecap="round" transform="translate(818.6246182073935 282.12394618062234) rotate(0 73.51953125 17)"><path d="M10.07 -0.18 L143.34 0.9 L147.26 6.5 L146.17 30.8 L145.99 33.01 L137.29 33.63 L6.02 32.6 L-1.27 28.37 L0.75 9.89 L1.84 2.53 L10.5 0.28" stroke="none" stroke-width="0" fill="#fab005"></path><path d="M8.5 0 M8.5 0 C53.76 0.83, 96.94 1.24, 138.54 0 M8.5 0 C38.91 0.2, 69.31 1.33, 138.54 0 M138.54 0 C143.37 -1.8, 145.74 1.32, 147.04 8.5 M138.54 0 C144.34 -1.67, 146.46 3.75, 147.04 8.5 M147.04 8.5 C148.16 13.62, 148.73 18.45, 147.04 25.5 M147.04 8.5 C147.51 14.53, 146.92 19.89, 147.04 25.5 M147.04 25.5 C147.09 31.45, 144.22 35.38, 138.54 34 M147.04 25.5 C148.89 29.76, 144.16 34.47, 138.54 34 M138.54 34 C89.83 33.07, 42.46 35.05, 8.5 34 M138.54 34 C101.77 33.37, 64.24 34.18, 8.5 34 M8.5 34 C3.94 35.66, 0.1 31.6, 0 25.5 M8.5 34 C3.7 32.41, 1.17 29.85, 0 25.5 M0 25.5 C1.18 21.6, 0.12 15.53, 0 8.5 M0 25.5 C-0.15 19.5, -0.05 13.14, 0 8.5 M0 8.5 C-1.79 0.92, 4.18 -0.83, 8.5 0 M0 8.5 C-1.88 3.34, 2.66 -1.83, 8.5 0" stroke="#000000" stroke-width="1" fill="none"></path></g><g transform="translate(851.1285244573935 287.12394618062234) rotate(0 41.015625 12)"><text x="41.015625" y="0" font-family="Cascadia, Segoe UI Emoji" font-size="20px" fill="#000000" text-anchor="middle" style="white-space: pre;" direction="ltr" dominant-baseline="text-before-edge">saída y</text></g><g stroke-linecap="round"><g transform="translate(504.826653017505 308.9043534837449) rotate(0 56.51513432326368 62.79765533174958)"><path d="M-0.08 -0.03 C18.67 21.01, 94.16 104.82, 113.11 125.63" stroke="#000000" stroke-width="1.5" fill="none" stroke-dasharray="8 9"></path></g><g transform="translate(504.826653017505 308.9043534837449) rotate(0 56.51513432326368 62.79765533174958)"><path d="M86.54 110.53 C95.91 116.29, 103.88 123, 112.6 125.49" stroke="#000000" stroke-width="1.5" fill="none"></path></g><g transform="translate(504.826653017505 308.9043534837449) rotate(0 56.51513432326368 62.79765533174958)"><path d="M101.76 96.76 C105.72 107.34, 108.34 118.89, 112.6 125.49" stroke="#000000" stroke-width="1.5" fill="none"></path></g></g><mask></mask><g stroke-linecap="round" transform="translate(619.74116234244 408.8080697987443) rotate(0 73.51953125 26.697265625)"><path d="M12.36 -0.13 L139.48 -0.24 L143.78 3.08 L145.57 11.76 L145.7 45.75 L140.3 50.85 L132.36 53.68 L5.75 52.02 L4.2 50.77 L0.19 42.87 L1.39 8.76 L0.35 3.73 L5.79 0.65 L12.66 1" stroke="none" stroke-width="0" fill="#15aabf"></path><path d="M13.35 0 M13.35 0 C49.42 1, 84.52 0.2, 133.69 0 M13.35 0 C42.26 -0.95, 70.46 -0.45, 133.69 0 M133.69 0 C140.86 -1.14, 148.93 4.62, 147.04 13.35 M133.69 0 C141.16 1.5, 145.75 5.91, 147.04 13.35 M147.04 13.35 C145.65 20.76, 147.5 27.39, 147.04 40.05 M147.04 13.35 C147.28 23.31, 146.14 34.18, 147.04 40.05 M147.04 40.05 C145.4 47.61, 141.99 52.33, 133.69 53.39 M147.04 40.05 C146.38 50.19, 143.11 54.12, 133.69 53.39 M133.69 53.39 C103.57 53.32, 76.85 56.06, 13.35 53.39 M133.69 53.39 C108.32 54.45, 83.79 54.62, 13.35 53.39 M13.35 53.39 C3.35 53.93, 0.63 47.41, 0 40.05 M13.35 53.39 C2.54 53.3, 2.16 46.77, 0 40.05 M0 40.05 C0.15 32.01, -1.47 20.56, 0 13.35 M0 40.05 C0.1 34.04, 0.32 28.87, 0 13.35 M0 13.35 C0 3.94, 5.64 0.56, 13.35 0 M0 13.35 C-1.67 6.11, 3.94 0.3, 13.35 0" stroke="#000000" stroke-width="1" fill="none"></path></g><g transform="translate(658.10444359244 423.5053354237443) rotate(0 35.15625 12)"><text x="35.15625" y="0" font-family="Cascadia, Segoe UI Emoji" font-size="20px" fill="#000000" text-anchor="middle" style="white-space: pre;" direction="ltr" dominant-baseline="text-before-edge">dado z</text></g><g stroke-linecap="round"><g transform="translate(782.7203642499401 440.77481097764405) rotate(0 119.87329491660142 0.38399595580995083)"><path d="M0.05 -0.15 C40 0.11, 199.68 0.91, 239.7 0.92" stroke="#000000" stroke-width="1.5" fill="none" stroke-dasharray="8 9"></path></g><g transform="translate(782.7203642499401 440.77481097764405) rotate(0 119.87329491660142 0.38399595580995083)"><path d="M211.22 9.83 C221.46 7.55, 228.18 3.5, 239.03 -0.41" stroke="#000000" stroke-width="1.5" fill="none"></path></g><g transform="translate(782.7203642499401 440.77481097764405) rotate(0 119.87329491660142 0.38399595580995083)"><path d="M211.28 -10.69 C221.39 -6.87, 228.1 -4.81, 239.03 -0.41" stroke="#000000" stroke-width="1.5" fill="none"></path></g></g><mask></mask><g stroke-linecap="round" transform="translate(819.6246182073935 413.4021892362447) rotate(0 73.51953125 26.697265625)"><path d="M12.27 0.08 L139.28 -0.43 L145.24 2.83 L146.69 8.69 L145.54 44.55 L142.11 49.76 L133.15 54.26 L8.22 52.54 L3.04 51.24 L-1.26 41.64 L-1.28 10.8 L0.65 4.53 L6.22 1.72 L13.46 0.99" stroke="none" stroke-width="0" fill="#fab005"></path><path d="M13.35 0 M13.35 0 C55.89 -1.81, 97.17 0.58, 133.69 0 M13.35 0 C55.05 -1.1, 95.74 0.72, 133.69 0 M133.69 0 C142.76 -1.24, 148.35 3.33, 147.04 13.35 M133.69 0 C144.05 -1.09, 149.18 5.83, 147.04 13.35 M147.04 13.35 C147.68 20.89, 147.11 23.72, 147.04 40.05 M147.04 13.35 C147.15 21.17, 146.28 30.34, 147.04 40.05 M147.04 40.05 C145.97 48.37, 143.67 53.85, 133.69 53.39 M147.04 40.05 C147.76 47.51, 141.96 54.69, 133.69 53.39 M133.69 53.39 C108.81 51.68, 81.64 55.52, 13.35 53.39 M133.69 53.39 C106.72 52.04, 79.88 52.91, 13.35 53.39 M13.35 53.39 C2.91 51.73, -0.09 50.82, 0 40.05 M13.35 53.39 C2.27 54.28, -2.08 47.26, 0 40.05 M0 40.05 C-1.55 30.52, -1.46 24.06, 0 13.35 M0 40.05 C0.51 32.23, -0.2 25.02, 0 13.35 M0 13.35 C0.56 2.99, 5.89 -0.44, 13.35 0 M0 13.35 C0.3 3.11, 2.84 -1.82, 13.35 0" stroke="#000000" stroke-width="1" fill="none"></path></g><g transform="translate(852.1285244573935 428.0994548612447) rotate(0 41.015625 12)"><text x="41.015625" y="0" font-family="Cascadia, Segoe UI Emoji" font-size="20px" fill="#000000" text-anchor="middle" style="white-space: pre;" direction="ltr" dominant-baseline="text-before-edge">saída z</text></g><g transform="translate(618.3821407188836 108.19536218001485) rotate(0 41.32999801635742 12)"><text x="0" y="0" font-family="Virgil, Segoe UI Emoji" font-size="20px" fill="#000000" text-anchor="start" style="white-space: pre;" direction="ltr" dominant-baseline="text-before-edge">tarefa 1</text></g><g transform="translate(618.3821407188836 239.78584476573837) rotate(0 45.73999786376953 12)"><text x="0" y="0" font-family="Virgil, Segoe UI Emoji" font-size="20px" fill="#000000" text-anchor="start" style="white-space: pre;" direction="ltr" dominant-baseline="text-before-edge">tarefa 2</text></g><g transform="translate(618.2233041726336 374.47720523520434) rotate(0 45.43000030517578 12)"><text x="0" y="0" font-family="Virgil, Segoe UI Emoji" font-size="20px" fill="#000000" text-anchor="start" style="white-space: pre;" direction="ltr" dominant-baseline="text-before-edge">tarefa 3</text></g></svg>