<svg version="1.1" xmlns="http://www.w3.org/2000/svg" viewBox="0 0 706.7383966383621 281.1882746254343" width="1413.4767932767243" height="562.3765492508686">
  <!-- svg-source:excalidraw -->
  
  <defs>
    <style class="style-fonts">
      @font-face {
        font-family: "Virgil";
        src: url("https://excalidraw.com/Virgil.woff2");
      }
      @font-face {
        font-family: "Cascadia";
        src: url("https://excalidraw.com/Cascadia.woff2");
      }
    </style>
  </defs>
  <rect x="0" y="0" width="706.7383966383621" height="281.1882746254343" fill="#ffffff"></rect><g stroke-linecap="round"><g transform="translate(144.35880069429675 42.67529071169042) rotate(0 39.12939819264244 0.27385924678549145)"><path d="M0.54 -1.15 C13.88 -1.15, 66.07 -0.32, 78.89 0.03 M-0.63 0.87 C12.7 1.07, 64.83 1.91, 78.24 1.64" stroke="#495057" stroke-width="4" fill="none"></path></g><g transform="translate(144.35880069429675 42.67529071169042) rotate(0 39.12939819264244 0.27385924678549145)"><path d="M48.14 12.85 C56.06 8.17, 63.49 8.96, 78.99 3.6 M50.47 11.67 C55.03 8.65, 62.23 7, 78.02 1.16" stroke="#495057" stroke-width="4" fill="none"></path></g><g transform="translate(144.35880069429675 42.67529071169042) rotate(0 39.12939819264244 0.27385924678549145)"><path d="M48.15 -7.67 C56.09 -8.13, 63.51 -3.12, 78.99 3.6 M50.48 -8.85 C55.22 -7.46, 62.43 -4.71, 78.02 1.16" stroke="#495057" stroke-width="4" fill="none"></path></g></g><mask></mask><g stroke-linecap="round" transform="translate(233.81872368942334 10) rotate(0 12.41015625 32.078125)"><path d="M13.8 0.42 C16.62 0.08, 19.91 3.14, 21.88 7.83 C23.85 12.52, 25.41 21.63, 25.63 28.56 C25.86 35.49, 24.99 43.87, 23.22 49.41 C21.45 54.96, 17.61 59.87, 15.02 61.83 C12.43 63.79, 10.01 63.79, 7.7 61.17 C5.38 58.54, 2.24 52.13, 1.12 46.08 C-0.01 40.03, 0.17 31.42, 0.93 24.86 C1.69 18.3, 3.43 10.87, 5.68 6.72 C7.92 2.57, 12.69 0.8, 14.4 -0.04 C16.11 -0.88, 15.97 0.97, 15.94 1.7 M17.41 2.69 C19.86 5.53, 23.55 15.05, 24.68 21.51 C25.81 27.96, 25.39 34.95, 24.2 41.42 C23 47.89, 19.89 56.75, 17.51 60.32 C15.12 63.88, 12.13 63.75, 9.91 62.79 C7.7 61.83, 5.92 59.34, 4.21 54.56 C2.5 49.78, -0.17 41.19, -0.33 34.13 C-0.49 27.06, 1.74 17.56, 3.27 12.15 C4.8 6.75, 6.14 2.84, 8.85 1.67 C11.55 0.5, 18.1 4.95, 19.5 5.15 C20.9 5.36, 17.49 2.62, 17.25 2.88" stroke="#000000" stroke-width="1" fill="none"></path></g><g stroke-linecap="round"><g transform="translate(247.82653618942334 11.0703125) rotate(0 181.07760938070152 0.10165038532107928)"><path d="M0.14 -0.93 C126.33 -0.21, 250.81 0.13, 361.32 1.14 M-0.62 -0.6 C119.52 0.25, 238.69 0.2, 362.77 0.06" stroke="#000000" stroke-width="1" fill="none"></path></g></g><mask></mask><g stroke-linecap="round"><g transform="translate(247.34751642874994 74.1076854395726) rotate(0 183.20047053009716 0.7346822714414145)"><path d="M-0.92 1.15 C75.76 0.21, 150.97 -1.31, 367.32 0.37 M-0.59 0.11 C124.95 2.11, 250.11 2.62, 366.26 0.44" stroke="#000000" stroke-width="1" fill="none"></path></g></g><mask></mask><g stroke-linecap="round"><g transform="translate(331.49632629746577 13.104215937098843) rotate(0 6.203808116353855 29.924006091596965)"><path d="M-0.89 1.11 C0.43 3.22, 6.18 8.2, 8.51 12.81 C10.84 17.41, 12.58 22.54, 13.1 28.75 C13.63 34.96, 13.06 45.04, 11.66 50.07 C10.26 55.1, 6.14 57.62, 4.7 58.95 M0.85 0.64 C2.03 2.38, 5.99 6.1, 8.01 10.92 C10.03 15.73, 12.82 22.79, 12.95 29.53 C13.09 36.27, 10.39 46.41, 8.82 51.36 C7.24 56.3, 4.32 57.75, 3.49 59.21" stroke="#000000" stroke-width="1" fill="none"></path></g></g><mask></mask><g stroke-linecap="round"><g transform="translate(611.2004864418469 12.935087052403503) rotate(0 6.833286917365797 29.143037947596497)"><path d="M1.11 0.85 C2.44 3.25, 6.47 8.53, 8.11 13.53 C9.74 18.54, 10.44 24.75, 10.91 30.86 C11.38 36.97, 12.09 45.69, 10.93 50.22 C9.77 54.75, 5.24 56.5, 3.93 58.04 M0.23 0.25 C1.43 2.43, 5.22 7.22, 7.39 12.03 C9.57 16.83, 12.6 23.1, 13.26 29.08 C13.93 35.07, 12.58 43.14, 11.36 47.93 C10.15 52.71, 7.23 56.05, 5.98 57.81" stroke="#000000" stroke-width="1" fill="none"></path></g></g><mask></mask><g stroke-linecap="round"><g transform="translate(519.8151614084779 13.221922051111733) rotate(0 6.47499391676314 28.856202948888267)"><path d="M0.85 0.45 C2.47 2.15, 6.81 6.39, 8.84 11.34 C10.86 16.28, 12.64 23.78, 13.01 30.13 C13.39 36.48, 12.75 44.79, 11.08 49.45 C9.41 54.11, 4.13 56.53, 3.01 58.08 M-0.17 -0.37 C1.48 1.97, 6.34 7.61, 8.5 12.34 C10.67 17.06, 12.3 21.63, 12.82 27.97 C13.33 34.32, 12.96 45.43, 11.59 50.42 C10.22 55.4, 5.53 56.7, 4.58 57.87" stroke="#000000" stroke-width="1" fill="none"></path></g></g><mask></mask><g transform="translate(291.56309132400133 30.078125) rotate(0 6.5 12)"><text x="0" y="0" font-family="Cascadia, Segoe UI Emoji" font-size="20px" fill="#000000" text-anchor="start" style="white-space: pre;" direction="ltr" dominant-baseline="text-before-edge">4</text></g><g transform="translate(383.5982205509905 30.078125) rotate(0 6.5 12)"><text x="0" y="0" font-family="Cascadia, Segoe UI Emoji" font-size="20px" fill="#000000" text-anchor="start" style="white-space: pre;" direction="ltr" dominant-baseline="text-before-edge">3</text></g><g transform="translate(477.78539183353666 30.078125) rotate(0 6.5 12)"><text x="0" y="0" font-family="Cascadia, Segoe UI Emoji" font-size="20px" fill="#000000" text-anchor="start" style="white-space: pre;" direction="ltr" dominant-baseline="text-before-edge">2</text></g><g transform="translate(53.527696249950395 21.865429442006075) rotate(0 31.5 18)"><text x="0" y="0" font-family="Virgil, Segoe UI Emoji" font-size="28px" fill="#000000" text-anchor="start" style="white-space: pre;" direction="ltr" dominant-baseline="text-before-edge">nums</text></g><g stroke-linecap="round"><g transform="translate(426.28664421924134 12.89980588624394) rotate(0 5.934395889001166 29.178319113756032)"><path d="M0.88 0.2 C1.96 2.28, 4.97 6.77, 6.77 11.6 C8.58 16.43, 11.06 22.83, 11.7 29.2 C12.33 35.57, 11.89 44.86, 10.58 49.8 C9.28 54.75, 5 57.15, 3.86 58.88 M-0.12 -0.74 C1.3 1.56, 7.2 7.58, 9.02 12.74 C10.84 17.9, 10.51 23.85, 10.81 30.21 C11.11 36.58, 11.66 46.14, 10.84 50.95 C10.01 55.77, 6.86 57.64, 5.87 59.09" stroke="#000000" stroke-width="1" fill="none"></path></g></g><mask></mask><g transform="translate(571.5227852702609 30.078125) rotate(0 6.5 12)"><text x="0" y="0" font-family="Cascadia, Segoe UI Emoji" font-size="20px" fill="#000000" text-anchor="start" style="white-space: pre;" direction="ltr" dominant-baseline="text-before-edge">1</text></g><g stroke-linecap="round"><g transform="translate(628.4168245776184 43.21920168755804) rotate(0 31.18793245953526 -0.157398804277193)"><path d="M-0.79 0.44 C9.22 0.19, 50.56 -0.71, 61.02 -0.75 M1 -0.38 C11.28 -0.54, 53.13 0.06, 63.16 0.39" stroke="#495057" stroke-width="4" fill="none"></path></g><g transform="translate(628.4168245776184 43.21920168755804) rotate(0 31.18793245953526 -0.157398804277193)"><path d="M35.48 8.23 C44.27 6.37, 56.69 3.24, 62.76 -1.01 M33.89 9.16 C43.73 6.77, 54.55 3.2, 63.16 0.22" stroke="#495057" stroke-width="4" fill="none"></path></g><g transform="translate(628.4168245776184 43.21920168755804) rotate(0 31.18793245953526 -0.157398804277193)"><path d="M35.93 -12.29 C44.67 -6.33, 56.92 -1.64, 62.76 -1.01 M34.34 -11.36 C44.03 -6.89, 54.71 -3.6, 63.16 0.22" stroke="#495057" stroke-width="4" fill="none"></path></g></g><mask></mask><g stroke-linecap="round"><g transform="translate(168.16400146484375 237.73146888115951) rotate(0 30.4880444260761 0.24767071549979391)"><path d="M-0.35 0.8 C9.68 0.57, 49.2 -0.2, 59.17 -0.3 M1.66 0.17 C12.15 0.57, 51.28 0.52, 61.33 0.69" stroke="#495057" stroke-width="4" fill="none"></path></g><g transform="translate(168.16400146484375 237.73146888115951) rotate(0 30.4880444260761 0.24767071549979391)"><path d="M34.39 8.98 C37.29 7.41, 44.14 7.26, 61.72 1.49 M32.13 10.26 C39.03 8.86, 44.46 5.84, 61.35 0.36" stroke="#495057" stroke-width="4" fill="none"></path></g><g transform="translate(168.16400146484375 237.73146888115951) rotate(0 30.4880444260761 0.24767071549979391)"><path d="M34.54 -11.54 C37.6 -8.72, 44.41 -4.48, 61.72 1.49 M32.29 -10.26 C39.25 -7.3, 44.66 -5.96, 61.35 0.36" stroke="#495057" stroke-width="4" fill="none"></path></g></g><mask></mask><g stroke-linecap="round" transform="translate(239.54493368947283 205.9057281447935) rotate(0 12.41015625 32.078125)"><path d="M7.58 3.14 C9.98 -0.03, 13.48 -1.61, 16.07 0.26 C18.66 2.12, 21.84 8.64, 23.13 14.35 C24.43 20.06, 24.17 27.72, 23.84 34.54 C23.51 41.35, 22.98 50.43, 21.16 55.27 C19.33 60.11, 15.53 63.13, 12.88 63.57 C10.23 64.02, 7.45 61.72, 5.27 57.94 C3.08 54.16, 0.36 47.51, -0.23 40.91 C-0.82 34.32, 0.31 24.94, 1.72 18.37 C3.13 11.81, 7.07 4.06, 8.24 1.51 C9.42 -1.05, 8.77 2.39, 8.79 3.03 M16.34 4.09 C18.3 6.58, 21.36 11.99, 22.8 18.25 C24.23 24.5, 25.37 35.1, 24.96 41.61 C24.56 48.12, 22.84 53.39, 20.38 57.29 C17.91 61.18, 12.76 65.27, 10.18 64.97 C7.61 64.67, 6.7 60.71, 4.92 55.51 C3.15 50.31, -0.07 40.66, -0.46 33.76 C-0.84 26.87, 0.97 19.45, 2.6 14.14 C4.22 8.84, 6.75 3.57, 9.3 1.93 C11.85 0.29, 16.61 3.93, 17.88 4.28 C19.16 4.63, 17.06 3.95, 16.95 4.05" stroke="#000000" stroke-width="1" fill="none"></path></g><g stroke-linecap="round"><g transform="translate(253.55274618947283 206.9760406447935) rotate(0 180.45270742267303 0.5491144756441599)"><path d="M-1.09 -0.8 C97.47 2.47, 196.36 2.51, 361.29 0.66 M0.01 0.25 C128.43 0.8, 257.57 0.89, 361.99 0.42" stroke="#000000" stroke-width="1" fill="none"></path></g></g><mask></mask><g stroke-linecap="round"><g transform="translate(253.07372642879955 270.0134135843661) rotate(0 183.03400325789437 0.2985627517404623)"><path d="M-0.79 -0.58 C134.6 2.22, 268.78 0.88, 366.86 0.69 M0.25 -0.35 C75.51 -0.01, 151.4 -0.42, 366.62 0.33" stroke="#000000" stroke-width="1" fill="none"></path></g></g><mask></mask><g stroke-linecap="round"><g transform="translate(337.22253629751526 209.00994408189234) rotate(0 5.9560965026826125 29.084600816865873)"><path d="M-0.76 -0.56 C0.77 1.72, 5.91 7.72, 8.1 12.6 C10.3 17.48, 11.89 22.43, 12.41 28.73 C12.92 35.02, 12.76 45.39, 11.21 50.38 C9.65 55.36, 4.24 57.08, 3.08 58.64 M1.04 1.77 C2.54 3.74, 5.58 5.98, 7.39 10.6 C9.2 15.22, 11.16 23.23, 11.89 29.49 C12.62 35.75, 12.99 43.3, 11.79 48.17 C10.59 53.04, 5.71 56.93, 4.68 58.73" stroke="#000000" stroke-width="1" fill="none"></path></g></g><mask></mask><g stroke-linecap="round"><g transform="translate(616.9266964418965 208.84081519719706) rotate(0 6.4825467033975315 29.628734267855464)"><path d="M-0.56 0.44 C0.93 2.71, 5.99 7.84, 7.9 12.84 C9.81 17.83, 10.32 24.45, 10.88 30.41 C11.44 36.37, 12.45 43.8, 11.24 48.6 C10.03 53.4, 4.71 57.57, 3.61 59.23 M1.35 -0.37 C2.79 1.6, 5.1 6.17, 7.08 10.96 C9.05 15.76, 12.43 22.04, 13.22 28.4 C14.02 34.76, 13.12 43.91, 11.84 49.12 C10.55 54.32, 7.02 57.68, 5.5 59.63" stroke="#000000" stroke-width="1" fill="none"></path></g></g><mask></mask><g stroke-linecap="round"><g transform="translate(525.5413714085275 209.12765019590523) rotate(0 5.897179588173458 29.832529193999676)"><path d="M0.44 0.24 C1.92 2.21, 6.12 6.28, 8.14 11.31 C10.16 16.34, 12.34 24.14, 12.56 30.44 C12.78 36.74, 10.85 44.26, 9.46 49.14 C8.07 54.01, 5.2 58.12, 4.21 59.7 M-0.78 -0.68 C0.65 1.45, 5.29 7.44, 7.44 12.29 C9.59 17.15, 11.85 22.17, 12.13 28.45 C12.41 34.72, 10.69 44.62, 9.12 49.94 C7.56 55.25, 3.5 58.51, 2.74 60.35" stroke="#000000" stroke-width="1" fill="none"></path></g></g><mask></mask><g transform="translate(291.74633257405094 225.9838531447935) rotate(0 12 12)"><text x="0" y="0" font-family="Cascadia, Segoe UI Emoji" font-size="20px" fill="#000000" text-anchor="start" style="white-space: pre;" direction="ltr" dominant-baseline="text-before-edge">16</text></g><g transform="translate(389.32443055104 225.8666656447935) rotate(0 6.5 12)"><text x="0" y="0" font-family="Cascadia, Segoe UI Emoji" font-size="20px" fill="#000000" text-anchor="start" style="white-space: pre;" direction="ltr" dominant-baseline="text-before-edge">9</text></g><g transform="translate(483.51160183358616 225.9838531447935) rotate(0 6.5 12)"><text x="0" y="0" font-family="Cascadia, Segoe UI Emoji" font-size="20px" fill="#000000" text-anchor="start" style="white-space: pre;" direction="ltr" dominant-baseline="text-before-edge">4</text></g><g transform="translate(10 217.77115758679957) rotate(0 71.58200073242188 16.80000000000001)"><text x="0" y="0" font-family="Virgil, Segoe UI Emoji" font-size="28px" fill="#000000" text-anchor="start" style="white-space: pre;" direction="ltr" dominant-baseline="text-before-edge">quadrados</text></g><g stroke-linecap="round"><g transform="translate(432.01285421929083 208.80553403103744) rotate(0 6.032513894280612 28.668978342868854)"><path d="M0.66 -1.12 C2.02 0.84, 5.12 7.34, 7.08 12.37 C9.04 17.41, 11.93 22.88, 12.42 29.11 C12.9 35.34, 11.44 44.85, 10.01 49.74 C8.57 54.63, 4.63 56.77, 3.8 58.45 M-0.45 0.91 C1.4 3.02, 7.43 9.06, 9.49 13.92 C11.55 18.78, 11.83 23.92, 11.9 30.08 C11.98 36.24, 10.98 46.13, 9.95 50.85 C8.93 55.58, 6.91 57.06, 5.78 58.44" stroke="#000000" stroke-width="1" fill="none"></path></g></g><mask></mask><g transform="translate(577.2489952703104 225.9838531447935) rotate(0 6.5 12)"><text x="0" y="0" font-family="Cascadia, Segoe UI Emoji" font-size="20px" fill="#000000" text-anchor="start" style="white-space: pre;" direction="ltr" dominant-baseline="text-before-edge">1</text></g><g stroke-linecap="round"><g transform="translate(634.1430345776679 239.1249298323516) rotate(0 31.008066283255005 -0.25129294420594306)"><path d="M-0.58 0.01 C9.74 0.09, 52.24 -0.67, 62.6 -0.67 M1.32 -1.03 C11.47 -0.71, 52.04 0.13, 61.9 0.52" stroke="#495057" stroke-width="4" fill="none"></path></g><g transform="translate(634.1430345776679 239.1249298323516) rotate(0 31.008066283255005 -0.25129294420594306)"><path d="M33.45 10.77 C42.52 5.8, 53.79 2.73, 60.63 1.87 M32.64 10.27 C44.19 6.59, 53.65 4.07, 62.81 0" stroke="#495057" stroke-width="4" fill="none"></path></g><g transform="translate(634.1430345776679 239.1249298323516) rotate(0 31.008066283255005 -0.25129294420594306)"><path d="M34.04 -9.74 C42.72 -7.43, 53.77 -3.21, 60.63 1.87 M33.23 -10.24 C44.57 -6.67, 53.82 -1.95, 62.81 0" stroke="#495057" stroke-width="4" fill="none"></path></g></g><mask></mask><g stroke-linecap="round"><g transform="translate(426.7923165202609 95.53993593434353) rotate(0 0.14521359577776138 44.64766928777101)"><path d="M1.16 0.71 C0.84 15.38, -0.76 73.77, -0.87 88.58" stroke="#000000" stroke-width="1.5" fill="none" stroke-dasharray="1.5 7"></path></g><g transform="translate(426.7923165202609 95.53993593434353) rotate(0 0.14521359577776138 44.64766928777101)"><path d="M-9.41 58.75 C-6.5 72.04, -1.01 82.77, -2.2 89.26" stroke="#000000" stroke-width="1.5" fill="none" stroke-dasharray="1.5 5"></path></g><g transform="translate(426.7923165202609 95.53993593434353) rotate(0 0.14521359577776138 44.64766928777101)"><path d="M11.1 59.13 C5.99 72.47, 3.46 83.05, -2.2 89.26" stroke="#000000" stroke-width="1.5" fill="none" stroke-dasharray="1.5 5"></path></g></g><mask></mask><g transform="translate(447.5345040202609 117.40321718434353) rotate(0 33 23)"><text x="0" y="0" font-family="Virgil, Segoe UI Emoji" font-size="36px" fill="#000000" text-anchor="start" style="white-space: pre;" direction="ltr" dominant-baseline="text-before-edge">map</text></g></svg>