<svg version="1.1" xmlns="http://www.w3.org/2000/svg" viewBox="0 0 1100 500" width="1100" height="500">
  <!-- svg-source:excalidraw -->
  <!-- NOTE: repo CSS forces `.excalidraw svg rect { fill: transparent }`, so every
       filled shape here is a <polygon>; <rect> is used only for stroked outlines. -->

  <defs>
    <marker id="arrow-grey" markerWidth="9" markerHeight="7" refX="8" refY="3.5" orient="auto">
      <polygon points="0 0, 9 3.5, 0 7" fill="#868e96"/>
    </marker>
  </defs>

  <!-- ===== Clients row ===== -->
  <!-- Web -->
  <rect x="40" y="20" width="320" height="84" fill="none" stroke="#b6b9bd" stroke-width="2"/>
  <polygon points="40,20 360,20 360,26 40,26" fill="#2563eb"/>
  <circle cx="150" cy="66" r="13" fill="none" stroke="#2563eb" stroke-width="2"/>
  <path d="M137 66h26 M150 53a18 18 0 0 1 0 26 18 18 0 0 1 0-26Z" fill="none" stroke="#2563eb" stroke-width="2"/>
  <text x="185" y="73" font-family="inherit" font-size="22" font-weight="bold" fill="#201637">Web</text>

  <!-- CLI -->
  <rect x="388" y="20" width="320" height="84" fill="none" stroke="#b6b9bd" stroke-width="2"/>
  <polygon points="388,20 708,20 708,26 388,26" fill="#201637"/>
  <rect x="486" y="53" width="28" height="22" rx="2" fill="none" stroke="#201637" stroke-width="2"/>
  <path d="M492 60l4 4-4 4 M500 68h6" fill="none" stroke="#201637" stroke-width="2" stroke-linecap="round" stroke-linejoin="round"/>
  <text x="524" y="73" font-family="inherit" font-size="22" font-weight="bold" fill="#201637">CLI</text>

  <!-- Terraform -->
  <rect x="736" y="20" width="320" height="84" fill="none" stroke="#b6b9bd" stroke-width="2"/>
  <polygon points="736,20 1056,20 1056,26 736,26" fill="#7b42bc"/>
  <g fill="#7b42bc" transform="translate(820,54) scale(1.05)">
    <path d="M0 0v8.3l7.2 4.16V4.16zM23.2 4.64L16 8.8v8.32l7.2-4.16zM8 4.64v8.32l7.2 4.16V8.8z"/>
  </g>
  <text x="858" y="73" font-family="inherit" font-size="22" font-weight="bold" fill="#201637">Terraform</text>

  <!-- clients -> API -->
  <line x1="200" y1="104" x2="200" y2="146" stroke="#868e96" stroke-width="2" marker-end="url(#arrow-grey)"/>
  <line x1="548" y1="104" x2="548" y2="146" stroke="#868e96" stroke-width="2" marker-end="url(#arrow-grey)"/>
  <line x1="896" y1="104" x2="896" y2="146" stroke="#868e96" stroke-width="2" marker-end="url(#arrow-grey)"/>

  <!-- ===== API bar ===== -->
  <polygon points="40,150 1056,150 1056,210 40,210" fill="#31c9ac"/>
  <text x="486" y="188" text-anchor="end" font-family="inherit" font-size="24" font-weight="bold" fill="#06403a">API</text>
  <line x1="506" y1="168" x2="506" y2="192" stroke="#06403a" stroke-width="1.5" opacity="0.5"/>
  <text x="526" y="187" font-family="inherit" font-size="15" font-weight="bold" letter-spacing="2" fill="#06403a">STANDARD INTERFACE</text>

  <!-- API -> Platform -->
  <line x1="548" y1="210" x2="548" y2="222" stroke="#868e96" stroke-width="2"/>

  <!-- ===== Platform bar ===== -->
  <polygon points="40,222 1056,222 1056,340 40,340" fill="#065647"/>
  <text x="548" y="290" text-anchor="middle" font-family="inherit" font-size="42" font-weight="bold" letter-spacing="-1" fill="#ffffff">seqera</text>
  <text x="548" y="315" text-anchor="middle" font-family="inherit" font-size="14" font-weight="bold" letter-spacing="6" fill="#31c9ac">PLATFORM</text>

  <!-- Platform -> services -->
  <line x1="200" y1="340" x2="200" y2="384" stroke="#868e96" stroke-width="2" marker-end="url(#arrow-grey)"/>
  <line x1="548" y1="340" x2="548" y2="384" stroke="#868e96" stroke-width="2" marker-end="url(#arrow-grey)"/>
  <line x1="896" y1="340" x2="896" y2="384" stroke="#868e96" stroke-width="2" marker-end="url(#arrow-grey)"/>

  <!-- ===== Services row ===== -->
  <!-- GitHub -->
  <rect x="40" y="388" width="320" height="92" fill="none" stroke="#b6b9bd" stroke-width="2"/>
  <polygon points="40,388 360,388 360,394 40,394" fill="#201637"/>
  <path d="M150 416a16 16 0 0 0-5 31c0.8 0.15 1.1-0.35 1.1-0.77v-2.7c-4.45 0.97-5.39-2.15-5.39-2.15-0.73-1.85-1.78-2.34-1.78-2.34-1.45-0.99 0.11-0.97 0.11-0.97 1.6 0.11 2.45 1.65 2.45 1.65 1.43 2.45 3.74 1.74 4.65 1.33 0.14-1.03 0.56-1.74 1.01-2.14-3.55-0.4-7.29-1.78-7.29-7.91 0-1.75 0.62-3.18 1.65-4.3-0.17-0.4-0.72-2.03 0.16-4.24 0 0 1.35-0.43 4.4 1.64a15.3 15.3 0 0 1 8 0c3.05-2.07 4.4-1.64 4.4-1.64 0.88 2.21 0.33 3.84 0.16 4.24 1.03 1.12 1.65 2.55 1.65 4.3 0 6.15-3.75 7.5-7.31 7.9 0.57 0.5 1.08 1.46 1.08 2.95v4.37c0 0.42 0.29 0.93 1.1 0.77a16 16 0 0 0-5-31Z" fill="#201637"/>
  <text x="185" y="450" font-family="inherit" font-size="22" font-weight="bold" fill="#201637">GitHub</text>

  <!-- Cloud -->
  <rect x="388" y="388" width="320" height="92" fill="none" stroke="#b6b9bd" stroke-width="2"/>
  <polygon points="388,388 548,388 548,394 388,394" fill="#f59e0b"/>
  <polygon points="548,388 708,388 708,394 548,394" fill="#2563eb"/>
  <path d="M430 432a9 9 0 0 1 17-3 7 7 0 0 1 1 14h-16a6 6 0 0 1-2-11Z" fill="none" stroke="#495057" stroke-width="2" stroke-linejoin="round"/>
  <text x="470" y="430" font-family="inherit" font-size="20" font-weight="bold" fill="#201637">Cloud</text>
  <rect x="430" y="446" width="54" height="22" rx="4" fill="none" stroke="#f59e0b" stroke-width="1.5"/>
  <text x="457" y="461" text-anchor="middle" font-family="inherit" font-size="12" font-weight="bold" fill="#b45309">AWS</text>
  <rect x="492" y="446" width="62" height="22" rx="4" fill="none" stroke="#2563eb" stroke-width="1.5"/>
  <text x="523" y="461" text-anchor="middle" font-family="inherit" font-size="12" font-weight="bold" fill="#1d4ed8">Azure</text>
  <rect x="562" y="446" width="54" height="22" rx="4" fill="none" stroke="#2563eb" stroke-width="1.5"/>
  <text x="589" y="461" text-anchor="middle" font-family="inherit" font-size="12" font-weight="bold" fill="#1d4ed8">GCP</text>

  <!-- Containers -->
  <rect x="736" y="388" width="320" height="92" fill="none" stroke="#b6b9bd" stroke-width="2"/>
  <polygon points="736,388 1056,388 1056,394 736,394" fill="#2563eb"/>
  <g fill="#2563eb">
    <polygon points="838,438 846,438 846,446 838,446"/>
    <polygon points="848,438 856,438 856,446 848,446"/>
    <polygon points="858,438 866,438 866,446 858,446"/>
    <polygon points="848,428 856,428 856,436 848,436"/>
    <polygon points="858,428 866,428 866,436 858,436"/>
    <path d="M832 446h40a10 10 0 0 1-10 8h-22a12 12 0 0 1-12-10Z"/>
  </g>
  <text x="880" y="450" font-family="inherit" font-size="22" font-weight="bold" fill="#201637">Containers</text>
</svg>
