<?xml version="1.0" encoding="UTF-8"?>
<svg id="Layer_1" data-name="Layer 1" xmlns="http://www.w3.org/2000/svg" xmlns:xlink="http://www.w3.org/1999/xlink" viewBox="0 0 597.55 107.77">
  <defs>
    <style>
      .cls-1 {
        fill: url(#linear-gradient);
      }

      .cls-2 {
        fill: #26af64;
      }

      .cls-3 {
        fill: url(#linear-gradient-3);
      }

      .cls-4 {
        fill: url(#linear-gradient-4);
      }

      .cls-5 {
        fill: url(#linear-gradient-2);
      }
    </style>
    <linearGradient id="linear-gradient" x1="243.7" y1="29.18" x2="280.37" y2="57.83" gradientUnits="userSpaceOnUse">
      <stop offset=".21" stop-color="#035421"/>
      <stop offset=".27" stop-color="#08612b"/>
      <stop offset=".43" stop-color="#158343"/>
      <stop offset=".59" stop-color="#1e9b55"/>
      <stop offset=".73" stop-color="#24a960"/>
      <stop offset=".85" stop-color="#26af64"/>
    </linearGradient>
    <linearGradient id="linear-gradient-2" x1="210.68" y1="61.53" x2="219.58" y2="112.03" gradientUnits="userSpaceOnUse">
      <stop offset=".1" stop-color="#035421"/>
      <stop offset=".44" stop-color="#26af64"/>
    </linearGradient>
    <linearGradient id="linear-gradient-3" x1="145.14" y1="37.83" x2="192.25" y2="66.14" gradientUnits="userSpaceOnUse">
      <stop offset=".62" stop-color="#26af64"/>
      <stop offset="1" stop-color="#035421"/>
    </linearGradient>
    <linearGradient id="linear-gradient-4" x1="124.25" y1="86.63" x2="156.93" y2="106.27" gradientUnits="userSpaceOnUse">
      <stop offset=".15" stop-color="#26af64"/>
      <stop offset=".24" stop-color="#22a65d"/>
      <stop offset=".37" stop-color="#198f4c"/>
      <stop offset=".54" stop-color="#0b6931"/>
      <stop offset=".62" stop-color="#035421"/>
    </linearGradient>
  </defs>
  <path class="cls-1" d="M245.31,31.49c2.89-.1,4.51,.08,5.49,.17h37.92v15.47h-17.8s-11.94,.03-18.1,0c-12.59,.09-24.4,2.28-24.98,2.35l17.47-17.99Z"/>
  <path class="cls-5" d="M195.31,64.25c1.08,1.4,1.08,1.46,2.17,3,19.63,27.59,46.69,24.89,47.83,24.76v15.49c-.3,.04-.08,.12-2.72,.12-10.67,0-37.59-3.06-57.74-31.39-.56-.78-.56-.8-1.11-1.55l11.57-10.43Z"/>
  <path class="cls-3" d="M183.18,73.94c-18.96-25.51-34.29-26.93-34.29-26.93v-15.44c2.31,.05,22.36,1.39,45.33,31.28l-11.04,11.09Z"/>
  <path class="cls-2" d="M0,106.59V38.47c11.04-5.49,22.54-8.24,34.5-8.24,10.49,0,18.69,2.73,24.6,8.2,5.91,5.47,8.87,13.13,8.87,22.99v45.17h-18.1V59.88c0-2.01-.18-3.69-.55-5.04-.37-1.35-1.1-2.76-2.21-4.23-1.1-1.47-2.91-2.57-5.41-3.31-2.5-.74-5.71-1.1-9.64-1.1-4.41,0-9.07,.44-13.98,1.32v59.07H0Z"/>
  <path class="cls-2" d="M79.73,69.81c0-12.06,2.68-21.7,8.05-28.91,5.37-7.21,13.89-10.81,25.56-10.81,11.04,0,19.38,3.51,25.05,10.52,5.66,7.01,8.5,15.65,8.5,25.89,0,4.22-.1,7.33-.3,9.34h-48.77c.49,6.52,2.44,10.89,5.85,13.09,3.41,2.21,7.83,3.31,13.28,3.31,8.83,0,14.54,.19,25.6-2.97l.09,15.34c-5.77,2.7-17.87,3.16-28.41,3.16-3.34,0-6.47-.27-9.42-.81-2.94-.54-5.99-1.67-9.15-3.38-3.16-1.72-5.87-3.9-8.15-6.55-2.27-2.65-4.14-6.31-5.6-11-1.46-4.68-2.19-10.09-2.19-16.22Zm18.1-6.47h30.31c-.49-5.16-2.02-9.51-4.6-13.06-2.57-3.55-6.12-5.33-10.63-5.33s-8.03,1.45-10.56,4.34c-2.53,2.9-4.03,7.58-4.52,14.05Z"/>
  <rect class="cls-2" x="252.83" y="9.12" width="18.1" height="17.15"/>
  <path class="cls-2" d="M272.95,90.56c-1.35-1.13-2.02-3.31-2.02-6.55v-31.32h-18.1v30.22c0,7.75,2.13,13.83,6.4,18.24,4.27,4.41,10.13,6.62,17.58,6.62h.37c4.17,0,8.02-.74,11.55-2.21v-14.93c-2.5,1.08-5.37,1.62-8.61,1.62-3.43,0-5.82-.56-7.17-1.69Z"/>
  <path d="M301.01,46.93v-15.52h12.8c.1-20.94,9.44-31.41,28.03-31.41,2.4,0,4.86,.25,7.36,.75V15.15c-1.82-.2-3.16-.29-4.05-.29-4.71,0-8.09,1.13-10.15,3.38-2.06,2.26-3.09,6.65-3.09,13.17h17.29v15.52h-17.29v59.66h-18.1V46.93h-12.8Z"/>
  <path d="M363.98,106.59V2.79h18.1V106.59h-18.1Z"/>
  <path d="M411.21,97.77c-6.13-6.67-9.2-16.23-9.2-28.69s3.06-22.02,9.2-28.69c6.13-6.67,14.92-10,26.37-10s20.24,3.34,26.37,10c6.13,6.67,9.2,16.23,9.2,28.69s-3.07,22.02-9.2,28.69c-6.13,6.67-14.92,10-26.37,10s-20.24-3.33-26.37-10Zm13.21-47.6c-2.87,3.29-4.3,9.6-4.3,18.94s1.43,15.64,4.3,18.91c2.87,3.26,7.27,4.89,13.2,4.89s10.32-1.63,13.17-4.89c2.84-3.26,4.27-9.56,4.27-18.91s-1.42-15.66-4.27-18.94c-2.84-3.29-7.23-4.93-13.17-4.93s-10.33,1.64-13.2,4.93Z"/>
  <path d="M483.23,31.41h19.13l15.96,54.22,14.34-54.22h15.52l14.27,54.22,15.96-54.22h19.13l-26.63,75.18h-18.1l-12.36-43.26-12.51,43.26h-18.1l-26.63-75.18Z"/>
  <path class="cls-4" d="M158.12,83.41c-19.67,9.97-36.13,8.73-37.14,8.66l-1.21,15.45c.26,.02,1.4,.1,3.27,.1,6.44,0,21.01-.74,38.24-8.58l-3.15-15.63Z"/>
  <path class="cls-2" d="M250.8,31.66c-1.24-.12-4.19-.31-8.38,0h-.07c-12.39,.93-35.49,6.23-57,30.58-9.9,11.2-20.56,18.23-30.31,22.63-13.32,15.34-35.28,22.64-35.28,22.64,.26,.02,1.4,.1,3.27,.1,10.71,0,45.3-2.7,73.94-35.12,17.87-20.23,25.37-21.74,35.74-24.25,0,0,9.55-4.94,21.89-8.7,17.54-5.58,34.12-7.89,34.12-7.89h-37.92Z"/>
</svg>