<?xml version="1.0" encoding="UTF-8"?>
<svg id="Layer_1" data-name="Layer 1" xmlns="http://www.w3.org/2000/svg" viewBox="0 0 597.55 107.77">
  <defs>
    <style>
      .cls-1 {
        fill: #fff;
      }
    </style>
  </defs>
  <path class="cls-1" d="M245.31,31.49l-.03,.03c-.87,.02-1.83,.07-2.86,.14h-.07c-11.53,.87-32.33,5.53-52.49,25.79-21.09-24.65-38.8-25.83-40.96-25.88v15.44s13.16,1.24,30.18,21.71c-8.03,7.54-16.32,12.68-24.03,16.16,0,0-.02,.02-.02,.02-4.4,2.01-8.61,3.48-12.46,4.54v-.16c-3.46,.99-6.4,1.65-9.07,2.09-7.23,1.09-11.98,.74-12.51,.7v.18c-1.3,0-2.62,0-4.03,0-5.44,0-9.87-1.1-13.28-3.31-3.41-2.21-5.36-6.57-5.85-13.09h48.77c.2-2.01,.3-5.12,.3-9.34,0-10.25-2.83-18.88-8.5-25.89-5.67-7.01-14.01-10.52-25.05-10.52-11.67,0-20.19,3.6-25.56,10.81-5.37,7.21-8.05,16.85-8.05,28.91,0,6.13,.73,11.54,2.19,16.22,1.46,4.68,3.33,8.35,5.6,11,2.27,2.65,4.99,4.83,8.15,6.55,3.16,1.72,6.21,2.85,9.15,3.38,2.94,.54,6.08,.81,9.42,.81,2.97,0,6.07-.04,9.12-.15,6.52-.02,20.65-.85,37.39-8.34,.15-.07,.3-.13,.45-.19,.03-.01,.05-.02,.08-.04h0c8.81-3.95,18.19-9.68,27.28-17.98,19.63,23.84,44,26.55,54.03,26.55,2.65,0,2.42-.08,2.72-.12v-15.49c-1.11,.13-26.49,2.66-45.91-22.19,13.4-14.66,20.7-18.19,28.45-20.33h0c.58-.07,12.39-2.26,24.98-2.35,6.16,.03,18.1,0,18.1,0h17.8v-15.47h-37.92c-.98-.09-2.6-.27-5.49-.17ZM102.35,49.29c2.53-2.89,6.04-4.34,10.56-4.34s8.06,1.78,10.63,5.33c2.58,3.55,4.11,7.91,4.6,13.06h-30.31c.49-6.47,2-11.15,4.52-14.05Z"/>
  <path class="cls-1" d="M59.11,38.44c-5.91-5.47-14.11-8.2-24.6-8.2-11.97,0-23.47,2.75-34.5,8.24V106.59H18.1V47.52c4.9-.88,9.56-1.32,13.98-1.32,3.92,0,7.14,.37,9.64,1.1,2.5,.74,4.3,1.84,5.41,3.31,1.1,1.47,1.84,2.88,2.21,4.23,.37,1.35,.55,3.03,.55,5.04v46.71h18.1V61.43c0-9.86-2.96-17.52-8.87-22.99Z"/>
  <rect class="cls-1" x="252.83" y="9.12" width="18.1" height="17.15"/>
  <path class="cls-1" d="M272.95,90.56c-1.35-1.13-2.02-3.31-2.02-6.55v-31.32h-18.1v30.22c0,7.75,2.13,13.83,6.4,18.24,4.27,4.41,10.13,6.62,17.58,6.62h.37c4.17,0,8.02-.74,11.55-2.21v-14.93c-2.5,1.08-5.37,1.62-8.61,1.62-3.43,0-5.82-.56-7.17-1.69Z"/>
  <path class="cls-1" d="M313.81,31.41h-12.8v15.52h12.8v59.66h18.1V46.93h17.29v-15.52h-17.29c0-6.52,1.03-10.91,3.09-13.17,2.06-2.25,5.44-3.38,10.15-3.38,.88,0,2.23,.1,4.05,.29V.75c-2.5-.5-4.95-.75-7.36-.75-18.59,0-27.93,10.47-28.03,31.41Z"/>
  <rect class="cls-1" x="363.98" y="2.79" width="18.1" height="103.8"/>
  <path class="cls-1" d="M437.58,30.38c-11.45,0-20.24,3.34-26.37,10-6.13,6.67-9.2,16.23-9.2,28.69s3.06,22.02,9.2,28.69c6.13,6.67,14.92,10,26.37,10s20.24-3.33,26.37-10c6.13-6.67,9.2-16.23,9.2-28.69s-3.07-22.02-9.2-28.69c-6.13-6.67-14.92-10-26.37-10Zm13.2,57.64c-2.84,3.26-7.23,4.89-13.17,4.89s-10.34-1.63-13.2-4.89c-2.87-3.26-4.3-9.56-4.3-18.91s1.43-15.66,4.3-18.94c2.87-3.29,7.27-4.93,13.2-4.93s10.32,1.64,13.17,4.93c2.84,3.29,4.27,9.6,4.27,18.94s-1.42,15.64-4.27,18.91Z"/>
  <polygon class="cls-1" points="578.42 31.41 562.46 85.63 548.19 31.41 532.66 31.41 518.32 85.63 502.36 31.41 483.23 31.41 509.86 106.59 527.96 106.59 540.46 63.34 552.82 106.59 570.92 106.59 597.55 31.41 578.42 31.41"/>
</svg>