<?xml version="1.0" encoding="UTF-8"?>
<svg id="Layer_1" data-name="Layer 1" xmlns="http://www.w3.org/2000/svg" viewBox="0 0 82.85 75.1">
  <defs>
    <style>
      .cls-1 {
        fill: #231f20;
      }
    </style>
  </defs>
  <path class="cls-1" d="M30.18,37.15c-8.03,7.54-16.32,12.68-24.03,16.16,0,0-.02,.02-.02,.02-2.09,.96-4.14,1.78-6.12,2.51v16.28c3.74-1.13,7.71-2.56,11.84-4.41,.15-.07,.3-.13,.45-.19,.03-.01,.05-.02,.08-.04h0c8.81-3.95,18.19-9.68,27.28-17.98,14.35,17.43,31.23,23.56,43.2,25.6v-15.77c-9.25-2.07-21.7-7.45-32.36-21.09,13.4-14.66,20.7-18.19,28.45-20.33h0c.19-.02,1.63-.28,3.91-.61V1.73c-11.62,2.68-26.93,9.11-41.9,24.15C19.87,1.23,2.16,.05,0,0V15.44s13.16,1.24,30.18,21.71Z"/>
</svg>