<?xml version="1.0" encoding="UTF-8"?>
<svg id="Layer_1" data-name="Layer 1" xmlns="http://www.w3.org/2000/svg" xmlns:xlink="http://www.w3.org/1999/xlink" viewBox="0 0 168.96 76.16">
  <defs>
    <style>
      .cls-1 {
        fill: none;
      }

      .cls-2 {
        fill: url(#linear-gradient);
      }

      .cls-3 {
        clip-path: url(#clippath);
      }

      .cls-4 {
        fill: #26af64;
      }

      .cls-5 {
        fill: url(#linear-gradient-3);
      }

      .cls-6 {
        fill: url(#linear-gradient-4);
      }

      .cls-7 {
        fill: url(#linear-gradient-2);
      }
    </style>
    <clipPath id="clippath">
      <rect class="cls-1" x="29.13" y=".11" width="82.85" height="75.93"/>
    </clipPath>
    <linearGradient id="linear-gradient" x1="123.94" y1="-2.28" x2="160.6" y2="26.37" gradientUnits="userSpaceOnUse">
      <stop offset=".21" stop-color="#035421"/>
      <stop offset=".27" stop-color="#08612b"/>
      <stop offset=".43" stop-color="#158343"/>
      <stop offset=".59" stop-color="#1e9b55"/>
      <stop offset=".73" stop-color="#24a960"/>
      <stop offset=".85" stop-color="#26af64"/>
    </linearGradient>
    <linearGradient id="linear-gradient-2" x1="90.91" y1="30.08" x2="99.81" y2="80.57" gradientUnits="userSpaceOnUse">
      <stop offset=".1" stop-color="#035421"/>
      <stop offset=".44" stop-color="#26af64"/>
    </linearGradient>
    <linearGradient id="linear-gradient-3" x1="25.37" y1="6.37" x2="72.48" y2="34.68" gradientUnits="userSpaceOnUse">
      <stop offset=".62" stop-color="#26af64"/>
      <stop offset="1" stop-color="#035421"/>
    </linearGradient>
    <linearGradient id="linear-gradient-4" x1="4.48" y1="55.17" x2="37.16" y2="74.81" gradientUnits="userSpaceOnUse">
      <stop offset=".15" stop-color="#26af64"/>
      <stop offset=".24" stop-color="#22a65d"/>
      <stop offset=".37" stop-color="#198f4c"/>
      <stop offset=".54" stop-color="#0b6931"/>
      <stop offset=".62" stop-color="#035421"/>
    </linearGradient>
  </defs>
  <g class="cls-3">
    <g>
      <path class="cls-2" d="M125.54,.03c2.89-.1,4.51,.08,5.49,.17h37.92V15.67h-17.8s-11.94,.03-18.1,0c-12.59,.09-24.4,2.28-24.98,2.35L125.54,.03Z"/>
      <path class="cls-7" d="M75.54,32.79c1.08,1.4,1.08,1.46,2.17,3,19.63,27.59,46.69,24.89,47.83,24.76v15.49c-.3,.04-.08,.12-2.72,.12-10.67,0-37.59-3.06-57.74-31.39-.56-.78-.56-.8-1.11-1.55l11.57-10.43Z"/>
      <path class="cls-5" d="M63.42,42.48C44.46,16.97,29.13,15.54,29.13,15.54V.11c2.31,.05,22.36,1.39,45.33,31.28l-11.04,11.09Z"/>
      <path class="cls-6" d="M38.35,51.95C18.69,61.92,2.22,60.68,1.21,60.61l-1.21,15.45c.26,.02,1.4,.1,3.27,.1,6.44,0,21.01-.74,38.24-8.58l-3.15-15.63Z"/>
      <path class="cls-4" d="M131.04,.2c-1.24-.12-4.19-.31-8.38,0h-.07c-12.39,.93-35.49,6.23-57,30.58-9.9,11.2-20.56,18.23-30.31,22.63C21.96,68.76,0,76.06,0,76.06c.26,.02,1.4,.1,3.27,.1,10.71,0,45.3-2.7,73.94-35.12,17.87-20.23,25.37-21.74,35.74-24.25,0,0,9.55-4.94,21.89-8.7C152.37,2.51,168.96,.2,168.96,.2h-37.92Z"/>
    </g>
  </g>
</svg>