<?xml version="1.0" encoding="UTF-8"?>
<svg id="Layer_1" data-name="Layer 1" xmlns="http://www.w3.org/2000/svg" viewBox="0 0 66.18 52.32">
  <defs>
    <style>
      .cls-1 {
        fill: #231f20;
        fill-rule: evenodd;
      }
    </style>
  </defs>
  <path class="cls-1" d="M14.98,0H52.6c1.61,0,2.93,1.32,2.93,2.93h0c0,1.61-1.32,2.93-2.93,2.93H14.98c-1.61,0-2.93-1.32-2.93-2.93h0c0-1.61,1.32-2.93,2.93-2.93Z"/>
  <path class="cls-1" d="M63.36,0h0c1.55,0,2.82,1.27,2.82,2.82v.23c0,1.55-1.27,2.82-2.82,2.82h0c-1.55,0-2.82-1.27-2.82-2.82v-.23c0-1.55,1.27-2.82,2.82-2.82Z"/>
  <path class="cls-1" d="M2.93,0H7.1c1.61,0,2.93,1.32,2.93,2.93h0c0,1.61-1.32,2.93-2.93,2.93H2.93c-1.61,0-2.93-1.32-2.93-2.93H0C0,1.32,1.32,0,2.93,0Z"/>
  <path class="cls-1" d="M2.93,11.6H40.55c1.61,0,2.93,1.32,2.93,2.93h0c0,1.61-1.32,2.93-2.93,2.93H2.93c-1.61,0-2.93-1.32-2.93-2.93H0c0-1.61,1.32-2.93,2.93-2.93Z"/>
  <path class="cls-1" d="M49.85,11.6h0c1.55,0,2.82,1.27,2.82,2.82v.23c0,1.55-1.27,2.82-2.82,2.82h0c-1.55,0-2.82-1.27-2.82-2.82v-.23c0-1.55,1.27-2.82,2.82-2.82Z"/>
  <path class="cls-1" d="M59.08,11.6h4.17c1.61,0,2.93,1.32,2.93,2.93h0c0,1.61-1.32,2.93-2.93,2.93h-4.17c-1.61,0-2.93-1.32-2.93-2.93h0c0-1.61,1.32-2.93,2.93-2.93Z"/>
  <path class="cls-1" d="M15.6,23.26H53.22c1.61,0,2.93,1.32,2.93,2.93h0c0,1.61-1.32,2.93-2.93,2.93H15.6c-1.61,0-2.93-1.32-2.93-2.93h0c0-1.61,1.32-2.93,2.93-2.93Z"/>
  <path class="cls-1" d="M63.36,23.26h0c1.55,0,2.82,1.27,2.82,2.82v.23c0,1.55-1.27,2.82-2.82,2.82h0c-1.55,0-2.82-1.27-2.82-2.82v-.23c0-1.55,1.27-2.82,2.82-2.82Z"/>
  <path class="cls-1" d="M2.93,23.26H7.1c1.61,0,2.93,1.32,2.93,2.93h0c0,1.61-1.32,2.93-2.93,2.93H2.93c-1.61,0-2.93-1.32-2.93-2.93H0c0-1.61,1.32-2.93,2.93-2.93Z"/>
  <g>
    <path class="cls-1" d="M63.25,34.86H25.63c-1.61,0-2.93,1.32-2.93,2.93h0c0,1.61,1.32,2.93,2.93,2.93H63.25c1.61,0,2.93-1.32,2.93-2.93h0c0-1.61-1.32-2.93-2.93-2.93Z"/>
    <path class="cls-1" d="M16.33,34.86h0c-1.55,0-2.82,1.27-2.82,2.82v.23c0,1.55,1.27,2.82,2.82,2.82h0c1.55,0,2.82-1.27,2.82-2.82v-.23c0-1.55-1.27-2.82-2.82-2.82Z"/>
    <path class="cls-1" d="M7.1,34.86H2.93C1.32,34.86,0,36.18,0,37.79H0c0,1.61,1.32,2.93,2.93,2.93H7.1c1.61,0,2.93-1.32,2.93-2.93h0c0-1.61-1.32-2.93-2.93-2.93Z"/>
  </g>
  <path class="cls-1" d="M51.2,46.46H13.58c-1.61,0-2.93,1.32-2.93,2.93h0c0,1.61,1.32,2.93,2.93,2.93H51.2c1.61,0,2.93-1.32,2.93-2.93h0c0-1.61-1.32-2.93-2.93-2.93Z"/>
  <path class="cls-1" d="M2.82,46.46h0C1.27,46.46,0,47.73,0,49.28v.23c0,1.55,1.27,2.82,2.82,2.82h0c1.55,0,2.82-1.27,2.82-2.82v-.23c0-1.55-1.27-2.82-2.82-2.82Z"/>
  <path class="cls-1" d="M63.25,46.46h-4.17c-1.61,0-2.93,1.32-2.93,2.93h0c0,1.61,1.32,2.93,2.93,2.93h4.17c1.61,0,2.93-1.32,2.93-2.93h0c0-1.61-1.32-2.93-2.93-2.93Z"/>
</svg>