<svg version="1.1" xmlns="http://www.w3.org/2000/svg" viewBox="0 0 944.9300952968119 147.5833879846749" width="1889.8601905936239" height="295.1667759693498">
  <!-- svg-source:excalidraw -->
  
  <defs>
    <style class="style-fonts">
      @font-face {
        font-family: "Virgil";
        src: url("https://excalidraw.com/Virgil.woff2");
      }
      @font-face {
        font-family: "Cascadia";
        src: url("https://excalidraw.com/Cascadia.woff2");
      }
    </style>
  </defs>
  <rect x="0" y="0" width="944.9300952968119" height="147.5833879846749" fill="#ffffff"></rect><g stroke-linecap="round" transform="translate(271.03145389840597 54.3515625) rotate(0 194.845703125 32.10546875000003)"><path d="M4.27 3.71 C4.27 3.71, 4.27 3.71, 4.27 3.71 M4.27 3.71 C4.27 3.71, 4.27 3.71, 4.27 3.71 M3.36 10.87 C6.25 9.02, 7.09 6.41, 10.57 2.57 M3.36 10.87 C6.71 7.19, 9.4 3.88, 10.57 2.57 M2.44 18.02 C6.48 11.18, 12.56 6.83, 17.53 0.66 M2.44 18.02 C6.04 13.86, 11.26 8.62, 17.53 0.66 M2.83 23.66 C8.85 16.38, 18.34 5.05, 22.51 1.02 M2.83 23.66 C7.84 16.96, 15.37 9.57, 22.51 1.02 M2.57 30.06 C8.82 24.61, 12.03 18.9, 27.5 1.38 M2.57 30.06 C11.91 18.51, 21.8 7.25, 27.5 1.38 M2.97 35.7 C10.3 23.6, 20.79 15.71, 33.14 0.99 M2.97 35.7 C12.18 24.07, 22.08 12.82, 33.14 0.99 M2.7 42.1 C13.62 31.12, 25.76 15.92, 38.13 1.35 M2.7 42.1 C12.4 32.06, 20.62 20.79, 38.13 1.35 M3.1 47.74 C13.63 33.31, 28.18 19.77, 43.77 0.95 M3.1 47.74 C17.73 29.07, 34.63 10.9, 43.77 0.95 M1.53 55.65 C14 40.02, 26.29 24.77, 48.76 1.31 M1.53 55.65 C15.17 39.82, 29.87 24.7, 48.76 1.31 M3.89 59.03 C21.99 36.77, 41.34 14.04, 54.4 0.92 M3.89 59.03 C23.76 36.79, 43.29 14.64, 54.4 0.92 M6.25 62.41 C24.03 42.85, 42.98 19.9, 59.39 1.28 M6.25 62.41 C21.21 43.46, 37.4 27.21, 59.39 1.28 M10.58 63.52 C22.2 50.09, 36.18 35.59, 65.03 0.88 M10.58 63.52 C25.58 45.3, 42.67 25.7, 65.03 0.88 M14.26 65.39 C26.13 50.28, 40.13 35.89, 70.02 1.24 M14.26 65.39 C31.67 46.61, 48.25 26, 70.02 1.24 M19.24 65.75 C37.01 46.94, 50.83 30.68, 75.66 0.85 M19.24 65.75 C33.79 49.22, 47.79 31.29, 75.66 0.85 M24.89 65.36 C39.98 49.68, 53.35 33.12, 80.65 1.21 M24.89 65.36 C46.54 42.26, 66.94 17.21, 80.65 1.21 M29.87 65.72 C46.9 45.92, 62.38 26.81, 86.29 0.81 M29.87 65.72 C49 45.49, 66.02 25.31, 86.29 0.81 M35.52 65.32 C54.13 45.12, 69.37 25.4, 91.28 1.17 M35.52 65.32 C46.87 52.45, 59.89 38.24, 91.28 1.17 M40.5 65.68 C58.33 46.28, 77.62 25.76, 96.92 0.78 M40.5 65.68 C54.5 50.61, 69.16 33.76, 96.92 0.78 M46.15 65.29 C70.37 39.28, 90.44 14.83, 101.91 1.14 M46.15 65.29 C64.81 43.53, 83.02 23.54, 101.91 1.14 M51.13 65.65 C70.69 44.4, 89.41 21.99, 107.55 0.75 M51.13 65.65 C72.11 41.45, 93.75 16.42, 107.55 0.75 M56.78 65.26 C71.01 47.15, 87.45 29.2, 112.54 1.11 M56.78 65.26 C72.09 47.1, 88.67 30.17, 112.54 1.11 M61.76 65.62 C77.21 46.29, 98.06 26.67, 118.19 0.71 M61.76 65.62 C81.26 43.87, 101.04 22.66, 118.19 0.71 M67.41 65.22 C85.91 45.36, 103.46 24.06, 123.17 1.07 M67.41 65.22 C79.86 49.83, 92.58 36.92, 123.17 1.07 M72.39 65.58 C84.34 49.67, 97.83 36.96, 128.16 1.43 M72.39 65.58 C88.31 46.52, 105.82 29.59, 128.16 1.43 M77.38 65.94 C98.92 39.18, 121.58 14.4, 133.8 1.04 M77.38 65.94 C98.77 40.8, 120.85 13.96, 133.8 1.04 M83.02 65.55 C98.82 49.06, 112.54 32.39, 138.79 1.4 M83.02 65.55 C102.27 44.38, 118.99 23.66, 138.79 1.4 M88.01 65.91 C105.07 46.91, 126.49 25.79, 144.43 1 M88.01 65.91 C111.91 39.11, 134.35 14, 144.43 1 M93.65 65.51 C109.65 46.66, 126.22 28.7, 149.42 1.36 M93.65 65.51 C108.33 48.8, 122.88 30.89, 149.42 1.36 M98.64 65.87 C120.42 40.74, 138.36 19.5, 155.06 0.97 M98.64 65.87 C116.11 45.41, 133.28 26.04, 155.06 0.97 M104.28 65.48 C121.94 46.31, 139.99 25.22, 160.05 1.33 M104.28 65.48 C119.65 46.75, 135.27 30.6, 160.05 1.33 M109.27 65.84 C121.85 50.71, 131.36 38.46, 165.69 0.93 M109.27 65.84 C120.61 51.51, 134.66 37.59, 165.69 0.93 M114.91 65.44 C126.85 48.93, 142.64 33.36, 170.68 1.29 M114.91 65.44 C125.66 53.09, 138.07 38.47, 170.68 1.29 M119.9 65.8 C138.93 43.55, 160.73 18.9, 176.32 0.9 M119.9 65.8 C133.97 50.06, 147.43 34.19, 176.32 0.9 M125.54 65.41 C144.95 42.23, 168.38 16.68, 181.31 1.26 M125.54 65.41 C141.39 46.31, 158.07 27.73, 181.31 1.26 M130.53 65.77 C152.49 42.95, 171.77 19.54, 186.95 0.86 M130.53 65.77 C147.57 44.7, 164.66 24.49, 186.95 0.86 M136.17 65.37 C145.73 54.63, 156.45 40.95, 191.94 1.22 M136.17 65.37 C151.12 49.86, 164.01 33.84, 191.94 1.22 M141.16 65.73 C159.48 41.13, 182.98 17.24, 197.58 0.83 M141.16 65.73 C152.04 51.77, 165.96 38.03, 197.58 0.83 M146.8 65.34 C160.14 49.71, 177.01 33.95, 202.57 1.19 M146.8 65.34 C165.88 43.1, 185.83 21.32, 202.57 1.19 M151.79 65.7 C171.81 46.13, 187.81 22.25, 208.21 0.79 M151.79 65.7 C171.24 43.28, 190.61 20.23, 208.21 0.79 M157.43 65.31 C177.29 44.21, 194.55 22.16, 213.2 1.15 M157.43 65.31 C177.83 41.89, 199.27 16.43, 213.2 1.15 M162.42 65.67 C178.19 48.01, 191.52 31.6, 218.19 1.52 M162.42 65.67 C182.32 43.42, 202.42 20.06, 218.19 1.52 M167.41 66.03 C189.48 42.54, 209.79 17.57, 223.83 1.12 M167.41 66.03 C181.77 49.57, 197.05 33.51, 223.83 1.12 M173.05 65.63 C193.35 42.16, 216.37 18.79, 228.82 1.48 M173.05 65.63 C188.4 48.41, 205.04 30.89, 228.82 1.48 M178.04 65.99 C191.02 51.04, 202.27 34.13, 234.46 1.09 M178.04 65.99 C191.14 51.86, 205.28 35.84, 234.46 1.09 M183.68 65.6 C200.12 44.44, 217.87 25.54, 239.45 1.45 M183.68 65.6 C206.36 40.31, 226.84 15.18, 239.45 1.45 M188.67 65.96 C202.65 50.52, 218.12 31.52, 245.09 1.05 M188.67 65.96 C203.52 46.67, 220.65 28.64, 245.09 1.05 M194.31 65.56 C213.3 42.29, 232.37 23.05, 250.08 1.41 M194.31 65.56 C207.16 51.12, 220.45 35.57, 250.08 1.41 M199.3 65.92 C211.09 53.94, 220.98 39.86, 255.72 1.02 M199.3 65.92 C217.46 47.46, 233.53 26.64, 255.72 1.02 M204.94 65.53 C225.03 42.55, 242.49 24.15, 260.71 1.38 M204.94 65.53 C223.65 42.42, 242.71 21.35, 260.71 1.38 M209.93 65.89 C225.49 50.09, 236.32 33.24, 266.35 0.98 M209.93 65.89 C229 45.12, 245.96 22.69, 266.35 0.98 M215.57 65.49 C236.86 39.33, 258.63 12.72, 271.34 1.34 M215.57 65.49 C231.51 47.96, 246.14 29.33, 271.34 1.34 M220.56 65.85 C240.36 44.12, 257.34 22.14, 276.98 0.95 M220.56 65.85 C238.72 45.72, 257.53 24.47, 276.98 0.95 M226.2 65.46 C242.12 50.09, 255.87 30.26, 281.97 1.31 M226.2 65.46 C239.86 49.65, 254.66 33.14, 281.97 1.31 M231.19 65.82 C248.21 44.59, 264.79 23.53, 287.61 0.91 M231.19 65.82 C251.28 41.86, 272.07 16.89, 287.61 0.91 M236.83 65.42 C254.14 45.96, 270.01 30.01, 292.6 1.27 M236.83 65.42 C251.28 48.21, 267.11 31.3, 292.6 1.27 M241.82 65.78 C253.39 53.31, 264.14 37.71, 298.24 0.88 M241.82 65.78 C258.6 47.19, 274.4 28.54, 298.24 0.88 M247.46 65.39 C260.19 50.23, 272.48 36.5, 303.23 1.24 M247.46 65.39 C259.85 51.84, 271.25 39.82, 303.23 1.24 M252.45 65.75 C268.88 47.78, 285.69 29.8, 308.87 0.84 M252.45 65.75 C264.67 52.04, 276.86 38.4, 308.87 0.84 M258.09 65.35 C272.22 45.77, 288.97 28.75, 313.86 1.2 M258.09 65.35 C278.62 43.07, 296.64 22.55, 313.86 1.2 M263.08 65.72 C276.86 52.61, 288.47 38.18, 318.84 1.56 M263.08 65.72 C275.29 52.7, 286.46 39.24, 318.84 1.56 M268.07 66.08 C281.48 50.29, 297.56 34.67, 324.49 1.17 M268.07 66.08 C290.1 42.29, 311.72 16.62, 324.49 1.17 M273.71 65.68 C293.78 45.08, 308.92 24.66, 329.47 1.53 M273.71 65.68 C290.59 44.82, 307.79 26.45, 329.47 1.53 M278.7 66.04 C291.62 51.08, 302.52 40.18, 335.12 1.14 M278.7 66.04 C292.35 48.35, 307.32 32.94, 335.12 1.14 M284.34 65.65 C299.89 47.41, 314.8 30.21, 340.1 1.5 M284.34 65.65 C297.32 50.16, 309.6 36.36, 340.1 1.5 M289.33 66.01 C311.6 40.07, 332.56 14.73, 345.75 1.1 M289.33 66.01 C309.45 43.54, 328.23 20.18, 345.75 1.1 M294.97 65.61 C309.82 45.8, 327.58 28.09, 350.73 1.46 M294.97 65.61 C316.42 39.86, 338.52 14.81, 350.73 1.46 M299.96 65.97 C316.12 50.34, 332.02 33.68, 356.38 1.07 M299.96 65.97 C314.13 50.41, 329.14 32.65, 356.38 1.07 M305.6 65.58 C322.39 49.49, 335.35 30.43, 361.37 1.43 M305.6 65.58 C318.32 51.57, 331.93 35.94, 361.37 1.43 M310.59 65.94 C330.52 43.8, 351.56 20.86, 367.01 1.03 M310.59 65.94 C332.94 41.09, 354.24 15.48, 367.01 1.03 M316.23 65.54 C328.28 48.45, 342.91 32.28, 372 1.39 M316.23 65.54 C329.25 52.19, 340.9 37.74, 372 1.39 M321.22 65.9 C341.31 41.75, 361.09 16, 377.64 1 M321.22 65.9 C333.96 52.84, 345.43 39, 377.64 1 M326.86 65.51 C348.4 40.08, 369.79 14.6, 381.97 2.11 M326.86 65.51 C339.11 50.52, 351.57 36.39, 381.97 2.11 M331.85 65.87 C345.14 47.62, 358.5 33.36, 385.64 3.98 M331.85 65.87 C351.35 42.82, 372.01 17.88, 385.64 3.98 M337.49 65.47 C358.38 43.27, 376.62 21.68, 388.01 7.36 M337.49 65.47 C357.5 41.67, 377.57 18.07, 388.01 7.36 M342.48 65.83 C353.37 55.97, 359.91 44.75, 390.37 10.74 M342.48 65.83 C354.75 53.44, 364.38 41.72, 390.37 10.74 M348.12 65.44 C357.74 52.35, 367.41 42.44, 390.76 16.38 M348.12 65.44 C359.16 53.83, 369.42 41.22, 390.76 16.38 M353.11 65.8 C365.53 48.96, 380.46 31.25, 390.5 22.78 M353.11 65.8 C362.77 54.26, 374.63 40.69, 390.5 22.78 M358.09 66.16 C364.88 55.52, 372.21 46.57, 390.9 28.42 M358.09 66.16 C371.04 50.83, 383.79 35.83, 390.9 28.42 M363.74 65.76 C370.49 58.69, 373.96 54.81, 390.64 34.82 M363.74 65.76 C372.68 56.22, 379.72 45.96, 390.64 34.82 M368.72 66.12 C375.48 58.79, 380.57 50.95, 391.03 40.46 M368.72 66.12 C377.01 55.86, 385.31 45.33, 391.03 40.46 M375.02 64.98 C380.69 57.08, 383.33 53.13, 391.43 46.11 M375.02 64.98 C379.24 59.46, 384.96 53.24, 391.43 46.11 M381.32 63.83 C384.7 60.82, 386.37 56.3, 390.51 53.26 M381.32 63.83 C383.98 60.96, 387.77 56.49, 390.51 53.26" stroke="#fab005" stroke-width="0.5" fill="none"></path><path d="M16.05 0 M16.05 0 C140.5 2.14, 263.35 0.54, 373.64 0 M16.05 0 C109.46 0.89, 201.29 1.08, 373.64 0 M373.64 0 C383.12 0.27, 390.68 4.63, 389.69 16.05 M373.64 0 C383.5 -1.18, 391.69 7.35, 389.69 16.05 M389.69 16.05 C388.01 29.78, 391.32 42.98, 389.69 48.16 M389.69 16.05 C390.48 26.14, 390.4 37.59, 389.69 48.16 M389.69 48.16 C388.17 58.51, 385.86 65.63, 373.64 64.21 M389.69 48.16 C389.35 57.56, 383.28 66.28, 373.64 64.21 M373.64 64.21 C243.54 61.82, 112.01 62.06, 16.05 64.21 M373.64 64.21 C264.3 66.13, 155.32 66.53, 16.05 64.21 M16.05 64.21 C7.23 66.18, 1.35 58.87, 0 48.16 M16.05 64.21 C4.03 65.79, 0.54 57.83, 0 48.16 M0 48.16 C0.25 41.27, -1.18 32.7, 0 16.05 M0 48.16 C-0.74 34.91, -0.31 22.48, 0 16.05 M0 16.05 C0.6 7.25, 4.21 1.77, 16.05 0 M0 16.05 C1.4 5.19, 5.27 0.4, 16.05 0" stroke="transparent" stroke-width="1" fill="none"></path></g><g stroke-linecap="round" transform="translate(10 31.829481734674914) rotate(0 85.41015625 52.876953125)"><path d="M26.44 0 M26.44 0 C54.54 0.42, 85.27 -1.59, 144.38 0 M26.44 0 C60.49 0.22, 92.27 -0.68, 144.38 0 M144.38 0 C161.93 0.42, 170.87 9.96, 170.82 26.44 M144.38 0 C159.82 0.93, 172.23 10.26, 170.82 26.44 M170.82 26.44 C169.2 35.97, 169.07 48.33, 170.82 79.32 M170.82 26.44 C169.79 38.12, 170.16 49.32, 170.82 79.32 M170.82 79.32 C172.4 96.93, 160.94 105.6, 144.38 105.75 M170.82 79.32 C170.76 97.62, 161.52 104.81, 144.38 105.75 M144.38 105.75 C120.57 102.98, 98.13 106.65, 26.44 105.75 M144.38 105.75 C106.02 104.96, 65.41 104.78, 26.44 105.75 M26.44 105.75 C7.79 105.32, 0.49 98.91, 0 79.32 M26.44 105.75 C9.28 106.36, 1.59 95.01, 0 79.32 M0 79.32 C0.02 59.09, -0.2 42.08, 0 26.44 M0 79.32 C-0.57 64.72, 1.11 51.33, 0 26.44 M0 26.44 C1.11 9.47, 8.08 1.57, 26.44 0 M0 26.44 C1.06 7.49, 6.88 -1.39, 26.44 0" stroke="#000000" stroke-width="2" fill="none"></path></g><g transform="translate(31.55615234375 67.9064348596749) rotate(0 63.85400390625 16.80000000000001)"><text x="63.85400390625" y="0" font-family="Virgil, Segoe UI Emoji" font-size="28px" fill="#000000" text-anchor="middle" style="white-space: pre;" direction="ltr" dominant-baseline="text-before-edge">tarefa α</text></g><g stroke-linecap="round"><g transform="translate(182.41333959275227 86.4552616734984) rotate(0 39.561572751893465 0.2901377805400216)"><path d="M-0.41 0.92 C12.76 0.86, 66.41 -0.18, 79.54 -0.4 M1.57 0.35 C14.65 0.49, 66.51 0.91, 79.17 0.98" stroke="#495057" stroke-width="4" fill="none"></path></g><g transform="translate(182.41333959275227 86.4552616734984) rotate(0 39.561572751893465 0.2901377805400216)"><path d="M52.44 12.89 C60.01 7.58, 69.61 4.87, 78.64 -0.5 M51.08 11.95 C58.89 9.43, 65.73 5.25, 80.04 0.55" stroke="#495057" stroke-width="4" fill="none"></path></g><g transform="translate(182.41333959275227 86.4552616734984) rotate(0 39.561572751893465 0.2901377805400216)"><path d="M52.58 -7.63 C60.09 -5.97, 69.65 -1.71, 78.64 -0.5 M51.22 -8.57 C59.12 -5.98, 65.92 -5.04, 80.04 0.55" stroke="#495057" stroke-width="4" fill="none"></path></g></g><mask></mask><g stroke-linecap="round" transform="translate(271.9904500878789 53.77910180799398) rotate(0 12.41015625 32.078125)"><path d="M10.72 0.33 C13.52 -0.73, 17.88 1.21, 20.13 5.07 C22.38 8.93, 23.53 17.05, 24.22 23.5 C24.91 29.94, 25.28 37.71, 24.28 43.74 C23.27 49.78, 20.73 56.56, 18.19 59.7 C15.65 62.85, 11.81 63.84, 9.03 62.6 C6.25 61.37, 2.87 57.62, 1.5 52.28 C0.14 46.93, 0.6 37.53, 0.85 30.53 C1.09 23.54, 0.78 15.4, 2.98 10.31 C5.17 5.21, 11.48 0.99, 14.01 -0.02 C16.54 -1.03, 18.09 3.59, 18.16 4.25 M10.77 0.03 C13.21 -0.79, 18.36 0.88, 20.43 5.1 C22.5 9.31, 22.66 18.28, 23.19 25.33 C23.72 32.38, 24.67 41.5, 23.61 47.42 C22.54 53.34, 19.25 58.13, 16.8 60.87 C14.35 63.61, 11.39 65.48, 8.92 63.87 C6.45 62.25, 3.36 57.22, 2.01 51.2 C0.65 45.18, 0.56 34.9, 0.79 27.73 C1.02 20.55, 1.43 12.53, 3.37 8.14 C5.3 3.75, 11.14 2.64, 12.4 1.39 C13.66 0.14, 10.89 0.38, 10.95 0.64" stroke="#000000" stroke-width="1" fill="none"></path></g><g stroke-linecap="round"><g transform="translate(285.9982625878789 54.84941430799398) rotate(0 180.58199995468044 0.7269979930142085)"><path d="M-0.67 0.25 C79.65 0.56, 158.47 -0.64, 361.39 0.53 M0.5 -0.21 C110.27 1.7, 219.63 2.71, 361.84 0.06" stroke="#000000" stroke-width="1" fill="none"></path></g></g><mask></mask><g stroke-linecap="round"><g transform="translate(285.5192428272055 117.88678724756647) rotate(0 183.33012817840773 -0.1706047120144376)"><path d="M0.4 0.83 C93.44 0.27, 189.42 0.5, 366.4 -0.21 M-0.07 -0.16 C106.69 -1.7, 213.16 -1.41, 366.73 0.24" stroke="#000000" stroke-width="1" fill="none"></path></g></g><mask></mask><g stroke-linecap="round"><g transform="translate(409.96492769592135 56.883317745092825) rotate(0 6.329589207068864 28.636999499135158)"><path d="M0.38 -0.96 C1.75 1.05, 6.37 7.66, 8.15 12.93 C9.93 18.2, 10.85 24.5, 11.07 30.64 C11.29 36.78, 10.47 45.17, 9.48 49.77 C8.49 54.37, 6.22 56.82, 5.15 58.23 M-0.88 1.15 C0.38 2.73, 5.06 6.51, 7.46 11.11 C9.86 15.71, 13.24 22.12, 13.52 28.76 C13.8 35.39, 10.71 46.01, 9.15 50.9 C7.59 55.8, 5.06 56.53, 4.18 58.1" stroke="#000000" stroke-width="1" fill="none"></path></g></g><mask></mask><g stroke-linecap="round"><g transform="translate(649.3722128403025 56.79638992600519) rotate(0 5.901686175843338 29.68008190578638)"><path d="M-0.46 -0.22 C1 1.69, 6.73 7.27, 8.81 12.33 C10.88 17.39, 11.61 23.74, 11.99 30.16 C12.37 36.58, 12.4 45.88, 11.08 50.85 C9.77 55.82, 5.15 58.67, 4.1 59.96 M1.49 -1.39 C2.89 0.66, 6.83 8.95, 8.46 13.85 C10.09 18.75, 10.73 22.18, 11.25 28.02 C11.78 33.86, 13.04 43.44, 11.6 48.89 C10.15 54.35, 4.04 58.74, 2.59 60.75" stroke="#000000" stroke-width="1" fill="none"></path></g></g><mask></mask><g stroke-linecap="round"><g transform="translate(537.0650128069335 55.641966221873304) rotate(0 6.161199758609712 29.718054598633614)"><path d="M-0.47 0.95 C0.96 3.17, 5.31 8.1, 7.52 12.8 C9.72 17.5, 12.39 22.94, 12.75 29.15 C13.11 35.36, 11.1 45.11, 9.7 50.06 C8.3 55.01, 5.11 57.31, 4.36 58.84 M1.48 0.41 C2.84 2.3, 4.67 5.96, 6.49 10.91 C8.32 15.87, 11.92 23.4, 12.42 30.14 C12.91 36.88, 11.06 46.53, 9.49 51.35 C7.91 56.16, 3.98 57.89, 2.97 59.03" stroke="#000000" stroke-width="1" fill="none"></path></g></g><mask></mask><g transform="translate(303.2660677224569 73.88756164537693) rotate(0 52.734375 12)"><text x="0" y="0" font-family="Cascadia, Segoe UI Emoji" font-size="20px" fill="#000000" text-anchor="start" style="white-space: pre;" direction="ltr" dominant-baseline="text-before-edge">arquivo z</text></g><g transform="translate(438.0863531994461 74.1467478564262) rotate(0 52.734375 12)"><text x="0" y="0" font-family="Cascadia, Segoe UI Emoji" font-size="20px" fill="#000000" text-anchor="start" style="white-space: pre;" direction="ltr" dominant-baseline="text-before-edge">arquivo y</text></g><g transform="translate(551.8086807319922 74.1467478564262) rotate(0 52.734375 12)"><text x="0" y="0" font-family="Cascadia, Segoe UI Emoji" font-size="20px" fill="#000000" text-anchor="start" style="white-space: pre;" direction="ltr" dominant-baseline="text-before-edge">arquivo x</text></g><g stroke-linecap="round"><g transform="translate(661.7989976279478 89.54843309745587) rotate(0 43.29619606867823 -0.45180565900389524)"><path d="M-0.48 0.19 C14.17 -0.07, 72.79 -1.21, 87.07 -1.08 M1.47 -0.76 C16.1 -0.95, 72.21 -0.14, 86.56 -0.17" stroke="#495057" stroke-width="4" fill="none"></path></g><g transform="translate(661.7989976279478 89.54843309745587) rotate(0 43.29619606867823 -0.45180565900389524)"><path d="M58.6 11.26 C62.83 5.92, 72.76 4.55, 84.82 1.17 M57.58 10.4 C67.9 5.72, 76.8 2.77, 86.4 0.12" stroke="#495057" stroke-width="4" fill="none"></path></g><g transform="translate(661.7989976279478 89.54843309745587) rotate(0 43.29619606867823 -0.45180565900389524)"><path d="M58.74 -9.26 C63.01 -9.84, 72.91 -6.45, 84.82 1.17 M57.72 -10.12 C67.88 -8.33, 76.73 -4.81, 86.4 0.12" stroke="#495057" stroke-width="4" fill="none"></path></g></g><mask></mask><g stroke-linecap="round" transform="translate(764.1097827968119 30.783799515325086) rotate(0 85.41015625 52.876953125)"><path d="M26.44 0 M26.44 0 C67.84 -0.13, 105.69 -1.35, 144.38 0 M26.44 0 C60.83 -0.49, 94.04 -0.81, 144.38 0 M144.38 0 C160.2 -1.69, 171.71 7.17, 170.82 26.44 M144.38 0 C162.57 -1.37, 172 10.67, 170.82 26.44 M170.82 26.44 C172.1 44.15, 172.38 64.06, 170.82 79.32 M170.82 26.44 C170.68 43.3, 170.19 60.85, 170.82 79.32 M170.82 79.32 C169.52 97.23, 161.41 107.16, 144.38 105.75 M170.82 79.32 C172.98 94.76, 160.04 106.94, 144.38 105.75 M144.38 105.75 C112.7 105.46, 84.02 105.86, 26.44 105.75 M144.38 105.75 C104.08 106.2, 62.3 106.45, 26.44 105.75 M26.44 105.75 C9.51 107.6, 1.21 94.99, 0 79.32 M26.44 105.75 C10.52 105.92, 2.01 95.3, 0 79.32 M0 79.32 C-0.93 66.84, -0.4 54.38, 0 26.44 M0 79.32 C-0.08 66.91, 1.04 55.1, 0 26.44 M0 26.44 C-0.37 8.68, 9.51 -1.71, 26.44 0 M0 26.44 C2.26 8.54, 10.73 -0.48, 26.44 0" stroke="#000000" stroke-width="2" fill="none"></path></g><g transform="translate(786.6599346217631 66.86075264032507) rotate(0 62.86000442504883 16.80000000000001)"><text x="62.86000442504883" y="0" font-family="Virgil, Segoe UI Emoji" font-size="28px" fill="#000000" text-anchor="middle" style="white-space: pre;" direction="ltr" dominant-baseline="text-before-edge">tarefa β</text></g><g transform="translate(280.36348514840597 10) rotate(0 37.9119987487793 16.799999999999997)"><text x="0" y="0" font-family="Virgil, Segoe UI Emoji" font-size="28px" fill="#000000" text-anchor="start" style="white-space: pre;" direction="ltr" dominant-baseline="text-before-edge">Canal</text></g></svg>